CommonSans-SemiBold.ufo
<glyph name="dollar" format="2">
	<unicode hex="0024"/>
	<advance width="582"/>
	<outline>
		<contour>
			<point x="374" y="287" type="curve" smooth="yes"/>
			<point x="345" y="295" type="line"/>
			<point x="345" y="81" type="line"/>
			<point x="408" y="88"/>
			<point x="462" y="124"/>
			<point x="462" y="191" type="curve" smooth="yes"/>
			<point x="462" y="240"/>
			<point x="417" y="275"/>
		</contour>
		<contour>
			<point x="233" y="421" type="curve" smooth="yes"/>
			<point x="265" y="412" type="line"/>
			<point x="265" y="620" type="line"/>
			<point x="201" y="615"/>
			<point x="161" y="584"/>
			<point x="161" y="527" type="curve" smooth="yes"/>
			<point x="161" y="481"/>
			<point x="183" y="435"/>
		</contour>
		<contour>
			<point x="265" y="81" type="curve"/>
			<point x="265" y="318" type="line"/>
			<point x="228" y="328" type="line" smooth="yes"/>
			<point x="123" y="358"/>
			<point x="71" y="420"/>
			<point x="71" y="516" type="curve" smooth="yes"/>
			<point x="71" y="624"/>
			<point x="149" y="700"/>
			<point x="265" y="707" type="curve"/>
			<point x="265" y="780" type="line"/>
			<point x="345" y="780" type="line"/>
			<point x="345" y="708" type="line"/>
			<point x="460" y="707"/>
			<point x="551" y="637"/>
			<point x="551" y="522" type="curve"/>
			<point x="461" y="522" type="line"/>
			<point x="461" y="587"/>
			<point x="418" y="620"/>
			<point x="345" y="621" type="curve"/>
			<point x="345" y="389" type="line"/>
			<point x="383" y="378" type="line" smooth="yes"/>
			<point x="479" y="350"/>
			<point x="552" y="293"/>
			<point x="552" y="191" type="curve" smooth="yes"/>
			<point x="552" y="67"/>
			<point x="466" y="-3"/>
			<point x="345" y="-10" type="curve"/>
			<point x="345" y="-80" type="line"/>
			<point x="265" y="-80" type="line"/>
			<point x="265" y="-11" type="line"/>
			<point x="139" y="-4"/>
			<point name=".hr01" x="60" y="69"/>
			<point x="60" y="194" type="curve"/>
			<point x="150" y="194" type="line"/>
			<point x="150" y="118"/>
			<point x="205" y="86"/>
		</contour>
	</outline>
</glyph>
<glyph name="percent" format="2">
	<unicode hex="0025"/>
	<advance width="720"/>
	<outline>
		<contour>
			<point x="485" y="176" type="curve" smooth="yes"/>
			<point x="485" y="104"/>
			<point x="485" y="52"/>
			<point x="552" y="52" type="curve" smooth="yes"/>
			<point x="569" y="52"/>
			<point x="582" y="55"/>
			<point x="591" y="61" type="curve" smooth="yes"/>
			<point x="619" y="79"/>
			<point x="619" y="122"/>
			<point x="619" y="176" type="curve" smooth="yes"/>
			<point x="619" y="248"/>
			<point x="619" y="300"/>
			<point x="552" y="300" type="curve" smooth="yes"/>
			<point x="485" y="300"/>
			<point x="485" y="248"/>
		</contour>
		<contour>
			<point x="101" y="544" type="curve" smooth="yes"/>
			<point x="101" y="472"/>
			<point x="101" y="420"/>
			<point name=".hr01" x="168" y="420" type="curve" smooth="yes"/>
			<point x="235" y="420"/>
			<point x="235" y="472"/>
			<point x="235" y="544" type="curve" smooth="yes"/>
			<point x="235" y="616"/>
			<point x="235" y="668"/>
			<point x="168" y="668" type="curve" smooth="yes"/>
			<point x="101" y="668"/>
			<point x="101" y="616"/>
		</contour>
		<contour>
			<point x="414" y="176" type="curve" smooth="yes"/>
			<point x="414" y="302"/>
			<point x="448" y="362"/>
			<point x="552" y="362" type="curve" smooth="yes"/>
			<point name=".hr02" x="655" y="362"/>
			<point x="690" y="302"/>
			<point x="690" y="176" type="curve" smooth="yes"/>
			<point x="690" y="50"/>
			<point x="656" y="-10"/>
			<point x="552" y="-10" type="curve" smooth="yes"/>
			<point x="448" y="-10"/>
			<point x="414" y="50"/>
		</contour>
		<contour>
			<point x="30" y="544" type="curve" smooth="yes"/>
			<point x="30" y="670"/>
			<point x="64" y="730"/>
			<point x="168" y="730" type="curve" smooth="yes"/>
			<point x="272" y="730"/>
			<point x="306" y="670"/>
			<point x="306" y="544" type="curve" smooth="yes"/>
			<point x="306" y="418"/>
			<point x="272" y="358"/>
			<point x="168" y="358" type="curve" smooth="yes"/>
			<point x="64" y="358"/>
			<point name=".hr03" x="30" y="418"/>
		</contour>
		<contour>
			<point x="608" y="700" type="line"/>
			<point x="201" y="0" type="line"/>
			<point x="110" y="0" type="line"/>
			<point x="521" y="700" type="line"/>
		</contour>
	</outline>
</glyph>
<glyph name="period" format="2">
	<unicode hex="002E"/>
	<advance width="165"/>
	<outline>
		<contour>
			<point x="111.25" y="0" type="line"/>
			<point x="53.75" y="0" type="line"/>
			<point x="53.75" y="80" type="line"/>
			<point x="111.25" y="80" type="line"/>
		</contour>
	</outline>
</glyph>
<glyph name="three" format="2">
	<unicode hex="0033"/>
	<advance width="520"/>
	<outline>
		<contour>
			<point x="40" y="160" type="curve"/>
			<point x="126" y="160" type="line"/>
			<point x="126" y="98"/>
			<point x="197" y="70"/>
			<point x="250" y="70" type="curve" smooth="yes"/>
			<point x="319" y="70"/>
			<point x="390" y="103"/>
			<point x="390" y="200" type="curve" smooth="yes"/>
			<point x="390" y="315"/>
			<point x="318" y="337"/>
			<point x="235" y="337" type="curve" smooth="yes"/>
			<point x="189" y="337" type="line"/>
			<point x="189" y="417" type="line"/>
			<point x="235" y="417" type="line" smooth="yes"/>
			<point x="309" y="417"/>
			<point name=".hr01" x="340" y="433"/>
			<point x="340" y="532" type="curve" smooth="yes"/>
			<point x="340" y="589"/>
			<point x="299" y="630"/>
			<point x="232" y="630" type="curve" smooth="yes"/>
			<point x="230" y="630" type="line" smooth="yes"/>
			<point x="175" y="630"/>
			<point x="126" y="601"/>
			<point x="126" y="551" type="curve"/>
			<point x="40" y="551" type="line"/>
			<point x="40" y="657"/>
			<point x="131" y="710"/>
			<point x="230" y="710" type="curve" smooth="yes"/>
			<point x="354" y="710"/>
			<point x="430" y="650"/>
			<point x="430" y="532" type="curve" smooth="yes"/>
			<point x="430" y="470"/>
			<point x="398" y="414"/>
			<point x="338" y="384" type="curve"/>
			<point x="416" y="370"/>
			<point name=".hr02" x="480" y="324"/>
			<point x="480" y="200" type="curve" smooth="yes"/>
			<point x="480" y="53"/>
			<point x="378" y="-10"/>
			<point x="250" y="-10" type="curve" smooth="yes"/>
			<point x="142" y="-10"/>
			<point x="40" y="43"/>
		</contour>
	</outline>
</glyph>
<glyph name="A" format="2">
	<unicode hex="0041"/>
	<advance width="586"/>
	<outline>
		<contour>
			<point x="367" y="285.625" type="line"/>
			<point x="293.125" y="519.375" type="line"/>
			<point x="219.25" y="285.625" type="line"/>
		</contour>
		<contour>
			<point x="455.5" y="0" type="line"/>
			<point x="403.625" y="165.625" type="line"/>
			<point x="182.625" y="165.625" type="line"/>
			<point x="130.75" y="0" type="line"/>
			<point x="10" y="0" type="line"/>
			<point x="222.125" y="680" type="line"/>
			<point x="362.875" y="680" type="line"/>
			<point x="576.25" y="0" type="line"/>
		</contour>
	</outline>
	<anchor name="top" x="285" y="740"/>
</glyph>
<glyph name="B" format="2">
	<unicode hex="0042"/>
	<advance width="611"/>
	<outline>
		<contour>
			<point x="293.375" y="314.375" type="curve" smooth="yes"/>
			<point x="189.5" y="314.375" type="line"/>
			<point x="189.5" y="107.5" type="line"/>
			<point x="280.625" y="107.5" type="line" smooth="yes"/>
			<point x="367.125" y="107.5"/>
			<point name=".hr01" x="410.625" y="143.75"/>
			<point x="410.625" y="215.75" type="curve" smooth="yes"/>
			<point x="410.625" y="279.625"/>
			<point x="376.25" y="314.375"/>
		</contour>
		<contour>
			<point x="285.5" y="572.5" type="curve" smooth="yes"/>
			<point x="189.5" y="572.5" type="line"/>
			<point x="189.5" y="421.875" type="line"/>
			<point x="293.375" y="421.875" type="line" smooth="yes"/>
			<point x="336.25" y="421.875"/>
			<point x="366.25" y="447.25"/>
			<point name=".hr02" x="366.25" y="492.625" type="curve" smooth="yes"/>
			<point x="366.25" y="540"/>
			<point x="345.125" y="572.5"/>
		</contour>
		<contour>
			<point x="280.625" y="0" type="curve" smooth="yes"/>
			<point x="68.75" y="0" type="line"/>
			<point x="68.75" y="680" type="line"/>
			<point x="285.5" y="680" type="line" smooth="yes"/>
			<point x="424.375" y="680"/>
			<point x="487" y="613.75"/>
			<point x="487" y="510.125" type="curve" smooth="yes"/>
			<point x="487" y="457.25"/>
			<point x="460.25" y="398.75"/>
			<point x="391.25" y="373.625" type="curve"/>
			<point x="469.25" y="359.625"/>
			<point x="531.375" y="303.125"/>
			<point x="531.375" y="208.25" type="curve" smooth="yes"/>
			<point name=".hr03" x="531.375" y="84.25"/>
			<point x="462.875" y="0"/>
		</contour>
	</outline>
	<anchor name="top" x="271.25" y="740"/>
</glyph>
<glyph name="C" format="2">
	<unicode hex="0043"/>
	<advance width="668"/>
	<outline>
		<contour>
			<point x="351.75" y="582.5" type="curve" smooth="yes"/>
			<point x="239.625" y="582.5"/>
			<point x="169.5" y="488.375"/>
			<point x="169.5" y="340" type="curve" smooth="yes"/>
			<point x="169.5" y="191.625"/>
			<point x="239.625" y="97.5"/>
			<point x="351.75" y="97.5" type="curve" smooth="yes"/>
			<point x="427.5" y="97.5"/>
			<point x="490" y="141.25"/>
			<point x="505.625" y="209" type="curve"/>
			<point x="613.125" y="209" type="line"/>
			<point x="590.25" y="76.875"/>
			<point x="489.125" y="-10"/>
			<point x="351.75" y="-10" type="curve" smooth="yes"/>
			<point x="160.25" y="-10"/>
			<point x="48.75" y="118.875"/>
			<point x="48.75" y="340" type="curve" smooth="yes"/>
			<point x="48.75" y="561.125"/>
			<point x="160.25" y="690"/>
			<point x="351.75" y="690" type="curve" smooth="yes"/>
			<point x="494.75" y="690"/>
			<point x="593.625" y="598.5"/>
			<point x="618.75" y="447.75" type="curve"/>
			<point x="511.25" y="447.75" type="line"/>
			<point x="492.75" y="534.625"/>
			<point x="433.375" y="582.5"/>
		</contour>
	</outline>
	<anchor name="top" x="348.75" y="740"/>
</glyph>
<glyph name="D" format="2">
	<unicode hex="0044"/>
	<advance width="636"/>
	<outline>
		<contour>
			<point x="189.5" y="572.5" type="line"/>
			<point x="189.5" y="107.5" type="line"/>
			<point x="300.5" y="107.5" type="line" smooth="yes"/>
			<point x="405" y="107.5"/>
			<point x="467.125" y="204.5"/>
			<point x="467.125" y="340" type="curve" smooth="yes"/>
			<point x="467.125" y="498"/>
			<point x="407" y="572.5"/>
			<point x="300.5" y="572.5" type="curve" smooth="yes"/>
		</contour>
		<contour>
			<point x="68.75" y="680" type="line"/>
			<point x="300.5" y="680" type="line" smooth="yes"/>
			<point x="490.5" y="680"/>
			<point x="587.5" y="552.75"/>
			<point x="587.5" y="340" type="curve" smooth="yes"/>
			<point x="587.5" y="125.375"/>
			<point x="491.125" y="0"/>
			<point x="300.5" y="0" type="curve" smooth="yes"/>
			<point x="68.75" y="0" type="line"/>
		</contour>
	</outline>
	<anchor name="top" x="286.25" y="740"/>
</glyph>
<glyph name="E" format="2">
	<unicode hex="0045"/>
	<advance width="510"/>
	<outline>
		<contour>
			<point x="420" y="296.25" type="line"/>
			<point x="189.5" y="296.25" type="line"/>
			<point x="189.5" y="101.25" type="line"/>
			<point x="460" y="101.25" type="line"/>
			<point x="460" y="0" type="line"/>
			<point x="68.75" y="0" type="line"/>
			<point x="68.75" y="680" type="line"/>
			<point x="460" y="680" type="line"/>
			<point x="460" y="578.75" type="line"/>
			<point x="189.5" y="578.75" type="line"/>
			<point x="189.5" y="397.5" type="line"/>
			<point x="420" y="397.5" type="line"/>
		</contour>
	</outline>
	<anchor name="top" x="265" y="740"/>
</glyph>
<glyph name="F" format="2">
	<unicode hex="0046"/>
	<advance width="510"/>
	<outline>
		<contour>
			<point x="420" y="296.25" type="line"/>
			<point x="189.5" y="296.25" type="line"/>
			<point x="189.5" y="0" type="line"/>
			<point x="68.75" y="0" type="line"/>
			<point x="68.75" y="680" type="line"/>
			<point x="460" y="680" type="line"/>
			<point x="460" y="578.75" type="line"/>
			<point x="189.5" y="578.75" type="line"/>
			<point x="189.5" y="397.5" type="line"/>
			<point x="420" y="397.5" type="line"/>
		</contour>
	</outline>
	<anchor name="top" x="265" y="740"/>
</glyph>
<glyph name="H" format="2">
	<unicode hex="0048"/>
	<advance width="638"/>
	<outline>
		<contour>
			<point x="569.5" y="680" type="line"/>
			<point x="569.5" y="0" type="line"/>
			<point x="448.75" y="0" type="line"/>
			<point x="448.75" y="287" type="line"/>
			<point x="189.5" y="287" type="line"/>
			<point x="189.5" y="0" type="line"/>
			<point x="68.75" y="0" type="line"/>
			<point x="68.75" y="680" type="line"/>
			<point x="189.5" y="680" type="line"/>
			<point x="189.5" y="394.5" type="line"/>
			<point x="448.75" y="394.5" type="line"/>
			<point x="448.75" y="680" type="line"/>
		</contour>
	</outline>
	<anchor name="top" x="320.625" y="740"/>
</glyph>
<glyph name="I" format="2">
	<unicode hex="0049"/>
	<advance width="258"/>
	<outline>
		<contour>
			<point x="189.5" y="0" type="line"/>
			<point x="68.75" y="0" type="line"/>
			<point x="68.75" y="680" type="line"/>
			<point x="189.5" y="680" type="line"/>
		</contour>
	</outline>
	<anchor name="top" x="128.125" y="740"/>
</glyph>
<glyph name="J" format="2">
	<unicode hex="004A"/>
	<advance width="338"/>
	<outline>
		<contour>
			<point x="105.25" y="0" type="curve" smooth="yes"/>
			<point x="50" y="0" type="line"/>
			<point x="50" y="107.5" type="line"/>
			<point x="76" y="107.5" type="line" smooth="yes"/>
			<point x="116" y="107.5"/>
			<point x="148" y="142.25"/>
			<point x="148" y="206.25" type="curve" smooth="yes"/>
			<point x="148" y="680" type="line"/>
			<point x="268.75" y="680" type="line"/>
			<point x="268.75" y="214" type="line" smooth="yes"/>
			<point x="268.75" y="91.25"/>
			<point x="233" y="0"/>
		</contour>
	</outline>
	<anchor name="top" x="203.625" y="740"/>
</glyph>
<glyph name="K" format="2">
	<unicode hex="004B"/>
	<advance width="630"/>
	<outline>
		<contour>
			<point x="189.5" y="263.375" type="line"/>
			<point x="189.5" y="0" type="line"/>
			<point x="68.75" y="0" type="line"/>
			<point x="68.75" y="680" type="line"/>
			<point x="189.5" y="680" type="line"/>
			<point x="189.5" y="363.875" type="line"/>
			<point x="265.625" y="380.875" type="line"/>
			<point x="445" y="680" type="line"/>
			<point x="579.75" y="680" type="line"/>
			<point x="379.75" y="350" type="line"/>
			<point x="619.75" y="0" type="line"/>
			<point x="472.5" y="0" type="line"/>
			<point x="278.75" y="287.125" type="line"/>
		</contour>
	</outline>
	<anchor name="top" x="288.125" y="740"/>
</glyph>
<glyph name="L" format="2">
	<unicode hex="004C"/>
	<advance width="529"/>
	<outline>
		<contour>
			<point x="189.5" y="680" type="line"/>
			<point x="189.5" y="107.5" type="line"/>
			<point x="481.625" y="107.5" type="line"/>
			<point x="481.625" y="0" type="line"/>
			<point x="68.75" y="0" type="line"/>
			<point x="68.75" y="680" type="line"/>
		</contour>
	</outline>
	<anchor name="top" x="129.375" y="740"/>
</glyph>
<glyph name="M" format="2">
	<unicode hex="004D"/>
	<advance width="835"/>
	<outline>
		<contour>
			<point x="766.5" y="680" type="line"/>
			<point x="766.5" y="0" type="line"/>
			<point x="645.75" y="0" type="line"/>
			<point x="645.75" y="408.25" type="line"/>
			<point x="487.375" y="0" type="line"/>
			<point x="346.625" y="0" type="line"/>
			<point x="189.5" y="406.375" type="line"/>
			<point x="189.5" y="0" type="line"/>
			<point x="68.75" y="0" type="line"/>
			<point x="68.75" y="680" type="line"/>
			<point x="202.75" y="680" type="line"/>
			<point x="381" y="239.375" type="line" smooth="yes"/>
			<point x="392.625" y="210.875"/>
			<point x="406.125" y="171.625"/>
			<point x="417.625" y="133.5" type="curve"/>
			<point x="429.125" y="171.625"/>
			<point x="442.625" y="210.875"/>
			<point x="454.25" y="239.375" type="curve" smooth="yes"/>
			<point x="632.5" y="680" type="line"/>
		</contour>
	</outline>
	<anchor name="top" x="424.375" y="740"/>
</glyph>
<glyph name="N" format="2">
	<unicode hex="004E"/>
	<advance width="678"/>
	<outline>
		<contour>
			<point x="189.5" y="417.5" type="curve" smooth="yes"/>
			<point x="189.5" y="0" type="line"/>
			<point x="68.75" y="0" type="line"/>
			<point x="68.75" y="680" type="line"/>
			<point x="202.75" y="680" type="line"/>
			<point x="491.125" y="196.375" type="line"/>
			<point x="488.5" y="221.625"/>
			<point x="488.5" y="244.875"/>
			<point x="488.5" y="262.5" type="curve" smooth="yes"/>
			<point x="488.5" y="680" type="line"/>
			<point x="609.25" y="680" type="line"/>
			<point x="609.25" y="0" type="line"/>
			<point x="475.25" y="0" type="line"/>
			<point x="186.875" y="483.625" type="line"/>
			<point x="189.5" y="458.375"/>
			<point x="189.5" y="435.125"/>
		</contour>
	</outline>
	<anchor name="top" x="333.875" y="740"/>
</glyph>
<glyph name="O" format="2">
	<unicode hex="004F"/>
	<advance width="704"/>
	<outline>
		<contour>
			<point x="351.75" y="582.5" type="curve" smooth="yes"/>
			<point x="239.625" y="582.5"/>
			<point x="169.5" y="488.375"/>
			<point x="169.5" y="340" type="curve" smooth="yes"/>
			<point x="169.5" y="191.625"/>
			<point x="239.625" y="97.5"/>
			<point x="351.75" y="97.5" type="curve" smooth="yes"/>
			<point x="463.875" y="97.5"/>
			<point x="534" y="191.625"/>
			<point x="534" y="340" type="curve" smooth="yes"/>
			<point x="534" y="488.375"/>
			<point x="463.875" y="582.5"/>
		</contour>
		<contour>
			<point x="351.75" y="-10" type="curve" smooth="yes"/>
			<point x="160.25" y="-10"/>
			<point x="48.75" y="118.875"/>
			<point x="48.75" y="340" type="curve" smooth="yes"/>
			<point x="48.75" y="561.125"/>
			<point x="160.25" y="690"/>
			<point x="351.75" y="690" type="curve" smooth="yes"/>
			<point x="543.25" y="690"/>
			<point x="654.75" y="561.125"/>
			<point x="654.75" y="340" type="curve" smooth="yes"/>
			<point x="654.75" y="118.875"/>
			<point x="543.25" y="-10"/>
		</contour>
	</outline>
	<anchor name="top" x="347.625" y="740"/>
</glyph>
<glyph name="P" format="2">
	<unicode hex="0050"/>
	<advance width="580"/>
	<outline>
		<contour>
			<point x="295.625" y="572.5" type="curve" smooth="yes"/>
			<point x="189.5" y="572.5" type="line"/>
			<point x="189.5" y="350" type="line"/>
			<point x="295.625" y="350" type="line" smooth="yes"/>
			<point x="373.125" y="350"/>
			<point x="418" y="397"/>
			<point x="418" y="468.25" type="curve" smooth="yes"/>
			<point x="418" y="534.75"/>
			<point x="368.625" y="572.5"/>
		</contour>
		<contour>
			<point x="284.375" y="242.5" type="curve" smooth="yes"/>
			<point x="189.5" y="242.5" type="line"/>
			<point x="189.5" y="0" type="line"/>
			<point x="68.75" y="0" type="line"/>
			<point x="68.75" y="680" type="line"/>
			<point x="284.375" y="680" type="line" smooth="yes"/>
			<point x="424.375" y="680"/>
			<point x="526.25" y="624.5"/>
			<point x="526.25" y="468.25" type="curve" smooth="yes"/>
			<point x="526.25" y="332.625"/>
			<point x="450.25" y="242.5"/>
		</contour>
	</outline>
	<anchor name="top" x="265" y="740"/>
</glyph>
<glyph name="Q" format="2">
	<unicode hex="0051"/>
	<advance width="704"/>
	<outline>
		<component base="O"/>
		<contour>
			<point x="624" y="-16" type="line"/>
			<point x="559.125" y="-71.25" type="line"/>
			<point x="350.875" y="147.625" type="line"/>
			<point x="415.75" y="202.875" type="line"/>
		</contour>
	</outline>
	<anchor name="top" x="348.75" y="740"/>
</glyph>
<glyph name="S" format="2">
	<unicode hex="0053"/>
	<advance width="604"/>
	<outline>
		<contour>
			<point x="48.75" y="211.75" type="curve"/>
			<point x="175.75" y="211.75" type="line"/>
			<point x="175.75" y="145.125"/>
			<point x="223.125" y="97.5"/>
			<point x="303.125" y="97.5" type="curve" smooth="yes"/>
			<point x="382.75" y="97.5"/>
			<point x="427.75" y="134.75"/>
			<point x="427.75" y="187.625" type="curve" smooth="yes"/>
			<point x="427.75" y="231.75"/>
			<point x="402.875" y="262.125"/>
			<point x="355.375" y="279" type="curve"/>
			<point x="169.5" y="362.875" type="line"/>
			<point x="107.625" y="389.5"/>
			<point name=".hr01" x="67.125" y="439"/>
			<point x="67.125" y="505.875" type="curve" smooth="yes"/>
			<point x="67.125" y="617.625"/>
			<point x="155.125" y="690"/>
			<point x="303.625" y="690" type="curve" smooth="yes"/>
			<point x="448" y="690"/>
			<point x="552.75" y="598.25"/>
			<point x="552.75" y="488.5" type="curve"/>
			<point x="425.75" y="488.5" type="line"/>
			<point x="425.75" y="541.625"/>
			<point x="378.875" y="582.5"/>
			<point x="292.375" y="582.5" type="curve" smooth="yes"/>
			<point x="229.375" y="582.5"/>
			<point x="194.125" y="556.875"/>
			<point x="194.125" y="506.5" type="curve" smooth="yes"/>
			<point x="194.125" y="471.875"/>
			<point x="215.375" y="445.625"/>
			<point x="259.875" y="428.75" type="curve"/>
			<point x="440.875" y="349.5" type="line"/>
			<point x="516.125" y="317.625"/>
			<point x="554.75" y="266.875"/>
			<point x="554.75" y="184.625" type="curve" smooth="yes"/>
			<point x="554.75" y="65.25"/>
			<point x="464" y="-10"/>
			<point x="299.875" y="-10" type="curve" smooth="yes"/>
			<point x="149.625" y="-10"/>
			<point name=".hr02" x="48.75" y="82"/>
		</contour>
	</outline>
	<anchor name="top" x="284.375" y="740"/>
</glyph>
<glyph name="T" format="2">
	<unicode hex="0054"/>
	<advance width="480"/>
	<outline>
		<contour>
			<point x="300.375" y="572.5" type="line"/>
			<point x="300.375" y="0" type="line"/>
			<point x="179.625" y="0" type="line"/>
			<point x="179.625" y="572.5" type="line"/>
			<point x="10" y="572.5" type="line"/>
			<point x="10" y="680" type="line"/>
			<point x="470" y="680" type="line"/>
			<point x="470" y="572.5" type="line"/>
		</contour>
	</outline>
	<anchor name="top" x="234.625" y="740"/>
</glyph>
<glyph name="U" format="2">
	<unicode hex="0055"/>
	<advance width="610"/>
	<outline>
		<contour>
			<point x="50" y="255" type="curve" smooth="yes"/>
			<point x="50" y="680" type="line"/>
			<point x="170" y="680" type="line"/>
			<point x="170" y="287.5" type="line" smooth="yes"/>
			<point x="170" y="161.875"/>
			<point x="212.5" y="103.75"/>
			<point x="305" y="103.75" type="curve" smooth="yes"/>
			<point x="397.5" y="103.75"/>
			<point x="440" y="161.875"/>
			<point x="440" y="287.5" type="curve" smooth="yes"/>
			<point x="440" y="680" type="line"/>
			<point x="560" y="680" type="line"/>
			<point x="560" y="255" type="line" smooth="yes"/>
			<point x="560" y="80"/>
			<point x="467.5" y="-10"/>
			<point x="305" y="-10" type="curve" smooth="yes"/>
			<point x="142.5" y="-10"/>
			<point x="50" y="80"/>
		</contour>
	</outline>
	<anchor name="top" x="306.875" y="740"/>
</glyph>
<glyph name="V" format="2">
	<unicode hex="0056"/>
	<advance width="586"/>
	<outline>
		<contour>
			<point x="317.25" y="239.375" type="curve" smooth="yes"/>
			<point x="455.5" y="680" type="line"/>
			<point x="576.25" y="680" type="line"/>
			<point x="362.875" y="0" type="line"/>
			<point x="222.125" y="0" type="line"/>
			<point x="10" y="680" type="line"/>
			<point x="130.75" y="680" type="line"/>
			<point x="269" y="239.375" type="line" smooth="yes"/>
			<point x="277.5" y="211.75"/>
			<point x="286" y="176.5"/>
			<point x="293.125" y="141.125" type="curve"/>
			<point x="300.25" y="176.5"/>
			<point x="308.75" y="211.75"/>
		</contour>
	</outline>
	<anchor name="top" x="295.125" y="740"/>
</glyph>
<glyph name="W" format="2">
	<unicode hex="0057"/>
	<advance width="1032"/>
	<outline>
		<contour>
			<point x="762.75" y="239.375" type="curve" smooth="yes"/>
			<point x="901" y="680" type="line"/>
			<point x="1021.75" y="680" type="line"/>
			<point x="808.375" y="0" type="line"/>
			<point x="667.625" y="0" type="line"/>
			<point x="515.875" y="484.125" type="line"/>
			<point x="362.875" y="0" type="line"/>
			<point x="222.125" y="0" type="line"/>
			<point x="10" y="680" type="line"/>
			<point x="130.75" y="680" type="line"/>
			<point x="269" y="239.375" type="line" smooth="yes"/>
			<point x="277.5" y="211.75"/>
			<point x="286" y="176.5"/>
			<point x="293.125" y="141.125" type="curve"/>
			<point x="300.25" y="176.5"/>
			<point x="308.75" y="211.75"/>
			<point x="317.25" y="239.375" type="curve" smooth="yes"/>
			<point x="455.5" y="680" type="line"/>
			<point x="576.25" y="680" type="line"/>
			<point x="714.5" y="239.375" type="line" smooth="yes"/>
			<point x="723" y="211.75"/>
			<point x="731.5" y="176.5"/>
			<point x="738.625" y="141.125" type="curve"/>
			<point x="745.75" y="176.5"/>
			<point x="754.25" y="211.75"/>
		</contour>
	</outline>
	<anchor name="top" x="517.375" y="740"/>
</glyph>
<glyph name="X" format="2">
	<unicode hex="0058"/>
	<advance width="661"/>
	<outline>
		<contour>
			<point x="595.5" y="680" type="line"/>
			<point x="399.25" y="344" type="line"/>
			<point x="601" y="0" type="line"/>
			<point x="455.25" y="0" type="line"/>
			<point x="326.5" y="220.375" type="line"/>
			<point x="197.125" y="0" type="line"/>
			<point x="53.25" y="0" type="line"/>
			<point x="254.75" y="343.375" type="line"/>
			<point x="57.5" y="680" type="line"/>
			<point x="202" y="680" type="line"/>
			<point x="327.125" y="466.375" type="line"/>
			<point x="452.875" y="680" type="line"/>
		</contour>
	</outline>
	<anchor name="top" x="329.375" y="740"/>
</glyph>
<glyph name="Y" format="2">
	<unicode hex="0059"/>
	<advance width="594"/>
	<outline>
		<contour>
			<point x="236.625" y="247.5" type="line"/>
			<point x="24.625" y="680" type="line"/>
			<point x="148.5" y="680" type="line"/>
			<point x="296" y="384.25" type="line"/>
			<point x="298" y="384.25" type="line"/>
			<point x="449" y="680" type="line"/>
			<point x="569.75" y="680" type="line"/>
			<point x="357.375" y="247.5" type="line"/>
			<point x="357.375" y="0" type="line"/>
			<point x="236.625" y="0" type="line"/>
		</contour>
	</outline>
	<anchor name="top" x="298.125" y="740"/>
</glyph>
<glyph name="Z" format="2">
	<unicode hex="005A"/>
	<advance width="576"/>
	<outline>
		<contour>
			<point x="533.75" y="107.5" type="line"/>
			<point x="533.75" y="0" type="line"/>
			<point x="34.625" y="0" type="line"/>
			<point x="34.625" y="55.25" type="line"/>
			<point x="353.25" y="572.5" type="line"/>
			<point x="51.25" y="572.5" type="line"/>
			<point x="51.25" y="680" type="line"/>
			<point x="529" y="680" type="line"/>
			<point x="529" y="624.75" type="line"/>
			<point x="210.75" y="107.5" type="line"/>
		</contour>
	</outline>
	<anchor name="top" x="278.125" y="740"/>
</glyph>
<glyph name="bracketleft" format="2">
	<unicode hex="005B"/>
	<advance width="423"/>
	<outline>
		<contour>
			<point x="70" y="842.5" type="line"/>
			<point x="352.5" y="842.5" type="line"/>
			<point x="352.5" y="735" type="line"/>
			<point x="190" y="735" type="line"/>
			<point x="190" y="-36" type="line"/>
			<point x="352.5" y="-36" type="line"/>
			<point x="352.5" y="-143.5" type="line"/>
			<point x="70" y="-143.5" type="line"/>
		</contour>
	</outline>
</glyph>
<glyph name="backslash" format="2">
	<unicode hex="005C"/>
	<advance width="558"/>
	<outline>
		<contour>
			<point x="382" y="0" type="line"/>
			<point x="35" y="700" type="line"/>
			<point x="173" y="700" type="line"/>
			<point x="522.5" y="0" type="line"/>
		</contour>
	</outline>
</glyph>
<glyph name="bracketright" format="2">
	<unicode hex="005D"/>
	<advance width="423"/>
	<outline>
		<contour>
			<point x="70" y="-143.5" type="line"/>
			<point x="70" y="-36" type="line"/>
			<point x="232.5" y="-36" type="line"/>
			<point x="232.5" y="735" type="line"/>
			<point x="70" y="735" type="line"/>
			<point x="70" y="842.5" type="line"/>
			<point x="352.5" y="842.5" type="line"/>
			<point x="352.5" y="-143.5" type="line"/>
		</contour>
	</outline>
</glyph>
<glyph name="asciicircum" format="2">
	<unicode hex="005E"/>
	<advance width="560"/>
	<outline>
		<contour>
			<point x="43.375" y="520" type="line"/>
			<point x="202.125" y="800" type="line"/>
			<point x="357.375" y="800" type="line"/>
			<point x="516.125" y="520" type="line"/>
			<point x="383.875" y="520" type="line"/>
			<point x="264.375" y="724.5" type="line"/>
			<point x="301.375" y="724.5" type="line"/>
			<point x="181.875" y="520" type="line"/>
		</contour>
	</outline>
</glyph>
<glyph name="grave" format="2">
	<unicode hex="0060"/>
	<advance width="289"/>
	<outline>
		<contour>
			<point x="124.75" y="520" type="line"/>
			<point x="37.5" y="712.5" type="line"/>
			<point x="182.5" y="712.5" type="line"/>
			<point x="232.5" y="520" type="line"/>
		</contour>
	</outline>
</glyph>
<glyph name="a" format="2">
	<unicode hex="0061"/>
	<advance width="512"/>
	<outline>
		<contour>
			<point x="51.25" y="123" type="curve" smooth="yes"/>
			<point x="51.25" y="208.125"/>
			<point x="116.5" y="256.375"/>
			<point x="252.625" y="274.625" type="curve"/>
			<point x="351.25" y="289.375" type="line"/>
			<point x="351.25" y="240.25" type="line"/>
			<point x="271.25" y="222.25" type="line" smooth="yes"/>
			<point x="198" y="205.75"/>
			<point x="177.5" y="183.375"/>
			<point x="177.5" y="136" type="curve" smooth="yes"/>
			<point x="177.5" y="99.625"/>
			<point x="207.75" y="72.5"/>
			<point x="246.625" y="72.5" type="curve" smooth="yes"/>
			<point x="276.5" y="72.5"/>
			<point x="315.75" y="90.5"/>
			<point x="342" y="118" type="curve"/>
			<point x="358.875" y="136.75" type="line"/>
			<point x="358.875" y="52.5" type="line"/>
			<point x="338.375" y="52.5" type="line"/>
			<point x="297.125" y="12.25"/>
			<point x="250.625" y="-12.5"/>
			<point x="188.25" y="-12.5" type="curve" smooth="yes"/>
			<point x="107.25" y="-12.5"/>
			<point x="51.25" y="44"/>
		</contour>
		<contour>
			<point x="356.75" y="0" type="line"/>
			<point x="342" y="54" type="line"/>
			<point x="342" y="325" type="line" smooth="yes"/>
			<point x="342" y="369.75"/>
			<point x="316.25" y="396.875"/>
			<point x="267" y="396.875" type="curve" smooth="yes"/>
			<point x="228.25" y="396.875"/>
			<point x="201" y="368.25"/>
			<point x="196.25" y="330" type="curve"/>
			<point name=".hr01" x="73.75" y="330" type="line"/>
			<point x="81.125" y="412.75"/>
			<point x="150.875" y="472.5"/>
			<point x="273" y="472.5" type="curve" smooth="yes"/>
			<point x="401.375" y="472.5"/>
			<point x="462" y="406.875"/>
			<point x="462" y="321.5" type="curve" smooth="yes"/>
			<point x="462" y="0" type="line"/>
		</contour>
	</outline>
	<anchor name="top" x="272.5" y="520"/>
</glyph>
<glyph name="b" format="2">
	<unicode hex="0062"/>
	<advance width="569"/>
	<outline>
		<contour>
			<point x="174.375" y="239.5" type="curve" smooth="yes"/>
			<point x="174.375" y="213.5" type="line" smooth="yes"/>
			<point x="174.375" y="112.25"/>
			<point x="231" y="72.5"/>
			<point x="280.625" y="72.5" type="curve" smooth="yes"/>
			<point x="340.5" y="72.5"/>
			<point x="389" y="122"/>
			<point x="389" y="232.5" type="curve" smooth="yes"/>
			<point x="389" y="344.875"/>
			<point x="343.75" y="387.5"/>
			<point x="277.5" y="387.5" type="curve" smooth="yes"/>
			<point x="215.875" y="387.5"/>
			<point x="174.375" y="327.125"/>
		</contour>
		<contour>
			<point x="164.75" y="91.625" type="line"/>
			<point x="162.875" y="359.625" type="line"/>
			<point x="174.375" y="379.625" type="line"/>
			<point x="205.5" y="438.375"/>
			<point x="250.375" y="472.5"/>
			<point x="321.875" y="472.5" type="curve" smooth="yes"/>
			<point x="432.875" y="472.5"/>
			<point x="515.25" y="392.625"/>
			<point x="515.25" y="232.5" type="curve" smooth="yes"/>
			<point x="515.25" y="83.75"/>
			<point x="420.375" y="-12.5"/>
			<point x="319.375" y="-12.5" type="curve" smooth="yes"/>
			<point x="253.875" y="-12.5"/>
			<point x="209.875" y="18.5"/>
			<point x="174.375" y="91.625" type="curve"/>
		</contour>
		<contour>
			<point x="54.375" y="0" type="line"/>
			<point x="54.375" y="700" type="line"/>
			<point x="174.375" y="700" type="line"/>
			<point x="174.375" y="91.625" type="line"/>
			<point x="172.375" y="91.625" type="line"/>
			<point x="156.625" y="0" type="line"/>
		</contour>
	</outline>
</glyph>
<glyph name="h" format="2">
	<unicode hex="0068"/>
	<advance width="562"/>
	<outline>
		<contour>
			<point x="166" y="281.875" type="line"/>
			<point x="166" y="374.5" type="line"/>
			<point x="185" y="374.5" type="line"/>
			<point x="226.875" y="439.375"/>
			<point x="282.25" y="472.5"/>
			<point x="345.875" y="472.5" type="curve" smooth="yes"/>
			<point x="446.25" y="472.5"/>
			<point x="497.125" y="416.375"/>
			<point x="497.125" y="305" type="curve" smooth="yes"/>
			<point x="497.125" y="0" type="line"/>
			<point x="377.125" y="0" type="line"/>
			<point x="377.125" y="269.375" type="line" smooth="yes"/>
			<point x="377.125" y="342.375"/>
			<point x="343.75" y="379"/>
			<point x="291.25" y="379" type="curve" smooth="yes"/>
			<point x="238.625" y="379"/>
			<point x="192.5" y="336"/>
			<point x="185" y="281.875" type="curve"/>
		</contour>
		<contour>
			<point x="65" y="0" type="line"/>
			<point x="65" y="700" type="line"/>
			<point x="185" y="700" type="line"/>
			<point x="185" y="0" type="line"/>
		</contour>
	</outline>
</glyph>
<glyph name="i" format="2">
	<unicode hex="0069"/>
	<advance width="270"/>
	<outline>
		<contour>
			<point x="195" y="0" type="line"/>
			<point x="75" y="0" type="line"/>
			<point x="75" y="460" type="line"/>
			<point x="195" y="460" type="line"/>
		</contour>
		<contour>
			<point x="195" y="520" type="line"/>
			<point x="75" y="520" type="line"/>
			<point x="75" y="656.25" type="line"/>
			<point x="195" y="656.25" type="line"/>
		</contour>
	</outline>
</glyph>
<glyph name="k" format="2">
	<unicode hex="006B"/>
	<advance width="575"/>
	<outline>
		<contour>
			<point x="165" y="174.125" type="line"/>
			<point x="165" y="295.75" type="line"/>
			<point x="209.625" y="308.125" type="line"/>
			<point x="319.75" y="460" type="line"/>
			<point x="470.125" y="460" type="line"/>
			<point x="322.125" y="263.875" type="line"/>
			<point x="480.75" y="0" type="line"/>
			<point x="333.875" y="0" type="line"/>
			<point x="221.375" y="189.625" type="line"/>
		</contour>
		<contour>
			<point x="45" y="0" type="line"/>
			<point x="45" y="700" type="line"/>
			<point x="165" y="700" type="line"/>
			<point x="165" y="0" type="line"/>
		</contour>
	</outline>
</glyph>
<glyph name="l" format="2">
	<unicode hex="006C"/>
	<advance width="250"/>
	<outline>
		<contour>
			<point x="185" y="0" type="line"/>
			<point x="65" y="0" type="line"/>
			<point x="65" y="700" type="line"/>
			<point x="185" y="700" type="line"/>
		</contour>
	</outline>
</glyph>
<glyph name="n" format="2">
	<unicode hex="006E"/>
	<advance width="562"/>
	<outline>
		<contour>
			<point x="166" y="281.875" type="line"/>
			<point x="166" y="374.5" type="line"/>
			<point x="185" y="374.5" type="line"/>
			<point x="226.875" y="439.375"/>
			<point x="282.25" y="472.5"/>
			<point x="345.875" y="472.5" type="curve" smooth="yes"/>
			<point x="446.25" y="472.5"/>
			<point x="497.125" y="416.375"/>
			<point x="497.125" y="305" type="curve" smooth="yes"/>
			<point x="497.125" y="0" type="line"/>
			<point x="377.125" y="0" type="line"/>
			<point x="377.125" y="269.375" type="line" smooth="yes"/>
			<point x="377.125" y="342.375"/>
			<point x="343.75" y="379"/>
			<point x="291.25" y="379" type="curve" smooth="yes"/>
			<point x="238.625" y="379"/>
			<point x="192.5" y="336"/>
			<point x="185" y="281.875" type="curve"/>
		</contour>
		<contour>
			<point x="65" y="0" type="line"/>
			<point x="65" y="460" type="line"/>
			<point x="171" y="460" type="line"/>
			<point x="182.125" y="374.5" type="line"/>
			<point x="185" y="374.5" type="line"/>
			<point x="185" y="0" type="line"/>
		</contour>
	</outline>
</glyph>
<glyph name="o" format="2">
	<unicode hex="006F"/>
	<advance width="549"/>
	<outline>
		<contour>
			<point x="158.125" y="230" type="curve" smooth="yes"/>
			<point x="158.125" y="117.375"/>
			<point x="207.75" y="60"/>
			<point x="274.375" y="60" type="curve" smooth="yes"/>
			<point x="341.25" y="60"/>
			<point x="390.625" y="114"/>
			<point x="390.625" y="230" type="curve" smooth="yes"/>
			<point x="390.625" y="342.625"/>
			<point x="341" y="400"/>
			<point x="274.375" y="400" type="curve" smooth="yes"/>
			<point x="207.5" y="400"/>
			<point x="158.125" y="346"/>
		</contour>
		<contour>
			<point x="31.875" y="230" type="curve" smooth="yes"/>
			<point x="31.875" y="372.125"/>
			<point x="115.75" y="472.5"/>
			<point x="274.375" y="472.5" type="curve" smooth="yes"/>
			<point x="434.25" y="472.5"/>
			<point x="516.875" y="372.375"/>
			<point x="516.875" y="230" type="curve" smooth="yes"/>
			<point x="516.875" y="87.875"/>
			<point x="433" y="-12.5"/>
			<point x="274.375" y="-12.5" type="curve" smooth="yes"/>
			<point x="114.5" y="-12.5"/>
			<point x="31.875" y="87.625"/>
		</contour>
	</outline>
	<anchor name="top" x="272.875" y="523.75"/>
</glyph>
<glyph name="p" format="2">
	<unicode hex="0070"/>
	<advance width="497"/>
	<outline>
		<contour>
			<point x="130.625" y="231.25" type="curve" smooth="yes"/>
			<point x="130.625" y="226" type="line" smooth="yes"/>
			<point x="130.625" y="123"/>
			<point x="181.625" y="55"/>
			<point x="250.625" y="55" type="curve" smooth="yes"/>
			<point x="343.625" y="55"/>
			<point x="381.625" y="123"/>
			<point x="381.625" y="231" type="curve" smooth="yes"/>
			<point x="381.625" y="306"/>
			<point x="362.625" y="405"/>
			<point x="250.625" y="405" type="curve" smooth="yes"/>
			<point x="167.625" y="405"/>
			<point x="130.625" y="315.25"/>
		</contour>
		<contour>
			<point x="50.625" y="-200" type="line"/>
			<point x="50.625" y="460" type="line"/>
			<point x="110.625" y="460" type="line"/>
			<point x="129.5" y="378.75" type="line"/>
			<point x="159.25" y="436"/>
			<point x="203.25" y="470"/>
			<point x="275.625" y="470" type="curve" smooth="yes"/>
			<point x="400.625" y="470"/>
			<point x="461.625" y="350"/>
			<point x="461.625" y="231" type="curve" smooth="yes"/>
			<point x="461.625" y="111"/>
			<point x="397.625" y="-10"/>
			<point x="271.625" y="-10" type="curve" smooth="yes"/>
			<point x="202.375" y="-10"/>
			<point x="158.625" y="19.875"/>
			<point x="130.625" y="70.625" type="curve"/>
			<point x="130.625" y="-200" type="line"/>
		</contour>
	</outline>
</glyph>
<glyph name="x" format="2">
	<unicode hex="0078"/>
	<advance width="416"/>
	<outline>
		<contour>
			<point x="248" y="238" type="line"/>
			<point x="396" y="0" type="line"/>
			<point x="316" y="0" type="line"/>
			<point x="208" y="174" type="line"/>
			<point x="100" y="0" type="line"/>
			<point x="20" y="0" type="line"/>
			<point x="168" y="238" type="line"/>
			<point x="30" y="460" type="line"/>
			<point x="110" y="460" type="line"/>
			<point x="208" y="302" type="line"/>
			<point x="306" y="460" type="line"/>
			<point x="386" y="460" type="line"/>
		</contour>
	</outline>
</glyph>
<glyph name="y" format="2">
	<unicode hex="0079"/>
	<advance width="460"/>
	<outline>
		<contour>
			<point x="198" y="-12" type="curve"/>
			<point x="30" y="460" type="line"/>
			<point x="110" y="460" type="line"/>
			<point x="239" y="98" type="line"/>
			<point x="354" y="460" type="line"/>
			<point x="430" y="460" type="line"/>
			<point x="258" y="-49" type="line" smooth="yes"/>
			<point x="252" y="-67"/>
			<point x="225" y="-200"/>
			<point x="150" y="-200" type="curve" smooth="yes"/>
			<point x="108" y="-200"/>
			<point x="89" y="-198"/>
			<point x="58" y="-190" type="curve"/>
			<point x="58" y="-120" type="line"/>
			<point x="78" y="-129"/>
			<point x="94" y="-135"/>
			<point x="116" y="-135" type="curve" smooth="yes"/>
			<point x="122" y="-135" type="line" smooth="yes"/>
			<point x="163" y="-135"/>
			<point x="187" y="-54"/>
		</contour>
	</outline>
</glyph>
<glyph name="braceleft" format="2">
	<unicode hex="007B"/>
	<advance width="324"/>
	<outline>
		<contour>
			<point x="40" y="326" type="curve"/>
			<point x="40" y="374" type="line"/>
			<point x="91" y="389"/>
			<point x="110" y="409"/>
			<point x="110" y="468" type="curve" smooth="yes"/>
			<point x="110" y="615" type="line" smooth="yes"/>
			<point x="110" y="774"/>
			<point x="186" y="780"/>
			<point x="284" y="780" type="curve"/>
			<point x="284" y="722" type="line"/>
			<point x="212" y="722"/>
			<point x="190" y="701"/>
			<point x="190" y="628" type="curve" smooth="yes"/>
			<point x="190" y="460" type="line" smooth="yes"/>
			<point x="190" y="404"/>
			<point x="164" y="371"/>
			<point x="126" y="348" type="curve"/>
			<point x="162" y="330"/>
			<point x="190" y="287"/>
			<point x="190" y="234" type="curve" smooth="yes"/>
			<point x="190" y="74" type="line" smooth="yes"/>
			<point x="190" y="4"/>
			<point x="214" y="-26"/>
			<point x="284" y="-26" type="curve"/>
			<point x="284" y="-80" type="line"/>
			<point x="132" y="-80"/>
			<point x="110" y="-42"/>
			<point x="110" y="97" type="curve" smooth="yes"/>
			<point x="110" y="230" type="line" smooth="yes"/>
			<point x="110" y="287"/>
			<point x="92" y="312"/>
		</contour>
	</outline>
</glyph>
<glyph name="dieresis" format="2">
	<unicode hex="00A8"/>
	<advance width="324"/>
	<outline>
		<contour>
			<point x="111.25" y="520" type="line"/>
			<point x="53.75" y="520" type="line"/>
			<point x="53.75" y="600" type="line"/>
			<point x="111.25" y="600" type="line"/>
		</contour>
		<contour>
			<point x="270" y="520" type="line"/>
			<point x="212.5" y="520" type="line"/>
			<point x="212.5" y="600" type="line"/>
			<point x="270" y="600" type="line"/>
		</contour>
	</outline>
</glyph>
<glyph name="degree" format="2">
	<unicode hex="00B0"/>
	<advance width="356"/>
	<outline>
		<contour>
			<point x="58" y="525" type="curve" smooth="yes"/>
			<point x="58" y="592"/>
			<point x="111" y="645"/>
			<point x="178" y="645" type="curve" smooth="yes"/>
			<point x="245" y="645"/>
			<point x="298" y="591"/>
			<point x="298" y="525" type="curve" smooth="yes"/>
			<point x="298" y="457"/>
			<point x="244" y="404"/>
			<point x="178" y="404" type="curve" smooth="yes"/>
			<point x="112" y="404"/>
			<point x="58" y="457"/>
		</contour>
		<contour>
			<point x="113" y="525" type="curve" smooth="yes"/>
			<point x="113" y="484"/>
			<point x="142" y="459"/>
			<point x="178" y="459" type="curve" smooth="yes"/>
			<point x="213" y="459"/>
			<point x="243" y="484"/>
			<point x="243" y="525" type="curve" smooth="yes"/>
			<point x="243" y="565"/>
			<point x="214" y="590"/>
			<point x="178" y="590" type="curve" smooth="yes"/>
			<point x="142" y="590"/>
			<point x="113" y="565"/>
		</contour>
	</outline>
</glyph>
<glyph name="twosuperior" format="2">
	<unicode hex="00B2"/>
	<advance width="296"/>
	<outline>
		<contour>
			<point x="281" y="319" type="line"/>
			<point x="11" y="319" type="line"/>
			<point x="18" y="376"/>
			<point x="80" y="421"/>
			<point x="123" y="452" type="curve" smooth="yes"/>
			<point x="190" y="501"/>
			<point x="211" y="516"/>
			<point x="211" y="546" type="curve" smooth="yes"/>
			<point x="211" y="577"/>
			<point x="188" y="594"/>
			<point x="151" y="594" type="curve" smooth="yes"/>
			<point x="103" y="594"/>
			<point x="96" y="574"/>
			<point x="85" y="545" type="curve"/>
			<point x="20" y="551" type="line"/>
			<point x="25" y="568" type="line"/>
			<point x="36" y="600"/>
			<point x="62" y="645"/>
			<point x="152" y="645" type="curve" smooth="yes"/>
			<point x="172" y="645"/>
			<point x="279" y="643"/>
			<point x="279" y="557" type="curve" smooth="yes"/>
			<point x="279" y="478"/>
			<point x="167" y="425"/>
			<point x="113" y="371" type="curve"/>
			<point x="281" y="371" type="line"/>
		</contour>
	</outline>
</glyph>
<glyph name="acute" format="2">
	<unicode hex="00B4"/>
	<advance width="318"/>
	<outline>
		<contour>
			<point x="180.25" y="501.25" type="line"/>
			<point x="62.5" y="501.25" type="line"/>
			<point x="125" y="700" type="line"/>
			<point x="258.75" y="700" type="line"/>
		</contour>
	</outline>
</glyph>
<glyph name="guillemotright" format="2">
	<unicode hex="00BB"/>
	<advance width="495"/>
	<outline>
		<contour>
			<point x="125" y="31" type="line"/>
			<point x="61" y="31" type="line"/>
			<point x="174" y="230" type="line"/>
			<point x="61" y="428" type="line"/>
			<point x="125" y="428" type="line"/>
			<point x="263" y="230" type="line"/>
		</contour>
		<contour>
			<point x="295" y="31" type="line"/>
			<point x="231" y="31" type="line"/>
			<point x="344" y="230" type="line"/>
			<point x="231" y="428" type="line"/>
			<point x="295" y="428" type="line"/>
			<point x="433" y="230" type="line"/>
		</contour>
	</outline>
</glyph>
<glyph name="Aring" format="2">
	<unicode hex="00C5"/>
	<advance width="586"/>
	<outline>
		<contour>
			<point x="367" y="285.625" type="line"/>
			<point x="293.125" y="519.375" type="line"/>
			<point x="219.25" y="285.625" type="line"/>
		</contour>
		<contour>
			<point x="262.125" y="859" type="curve" smooth="yes"/>
			<point x="262.125" y="842"/>
			<point x="276.125" y="828"/>
			<point x="293.125" y="828" type="curve" smooth="yes"/>
			<point x="310.125" y="828"/>
			<point x="324.125" y="842"/>
			<point x="324.125" y="859" type="curve" smooth="yes"/>
			<point x="324.125" y="876"/>
			<point x="310.125" y="890"/>
			<point x="293.125" y="890" type="curve" smooth="yes"/>
			<point x="276.125" y="890"/>
			<point x="262.125" y="876"/>
		</contour>
		<contour>
			<point x="455.5" y="0" type="line"/>
			<point x="403.625" y="165.625" type="line"/>
			<point x="182.625" y="165.625" type="line"/>
			<point x="130.75" y="0" type="line"/>
			<point x="10" y="0" type="line"/>
			<point x="222.125" y="680" type="line"/>
			<point x="362.875" y="680" type="line"/>
			<point x="576.25" y="0" type="line"/>
		</contour>
		<contour>
			<point x="215.125" y="859" type="curve" smooth="yes"/>
			<point x="215.125" y="902"/>
			<point x="250.125" y="937"/>
			<point x="293.125" y="937" type="curve" smooth="yes"/>
			<point x="336.125" y="937"/>
			<point x="371.125" y="902"/>
			<point x="371.125" y="859" type="curve" smooth="yes"/>
			<point x="371.125" y="816"/>
			<point x="336.125" y="781"/>
			<point x="293.125" y="781" type="curve" smooth="yes"/>
			<point x="250.125" y="781"/>
			<point x="215.125" y="816"/>
		</contour>
	</outline>
</glyph>
<glyph name="Ccedilla" format="2">
	<unicode hex="00C7"/>
	<advance width="668"/>
	<outline>
		<contour>
			<point x="249.25" y="-193" type="curve"/>
			<point x="249.25" y="-164" type="line"/>
			<point x="262.25" y="-167"/>
			<point x="283.25" y="-170"/>
			<point x="303.25" y="-170" type="curve" smooth="yes"/>
			<point x="344.25" y="-170"/>
			<point x="362.25" y="-148"/>
			<point x="362.25" y="-118" type="curve" smooth="yes"/>
			<point x="362.25" y="-82"/>
			<point x="313.25" y="-70"/>
			<point x="283.25" y="-67" type="curve"/>
			<point x="310.875" y="-8.375" type="line"/>
			<point x="144.5" y="9.125"/>
			<point x="48.75" y="134.625"/>
			<point x="48.75" y="340" type="curve" smooth="yes"/>
			<point x="48.75" y="561.125"/>
			<point x="160.25" y="690"/>
			<point x="351.75" y="690" type="curve" smooth="yes"/>
			<point x="494.75" y="690"/>
			<point x="593.625" y="598.5"/>
			<point x="618.75" y="447.75" type="curve"/>
			<point x="511.25" y="447.75" type="line"/>
			<point x="492.75" y="534.625"/>
			<point x="433.375" y="582.5"/>
			<point x="351.75" y="582.5" type="curve" smooth="yes"/>
			<point x="239.625" y="582.5"/>
			<point x="169.5" y="488.375"/>
			<point x="169.5" y="340" type="curve" smooth="yes"/>
			<point x="169.5" y="191.625"/>
			<point x="239.625" y="97.5"/>
			<point x="351.75" y="97.5" type="curve" smooth="yes"/>
			<point x="427.5" y="97.5"/>
			<point x="490" y="141.25"/>
			<point x="505.625" y="209" type="curve"/>
			<point x="613.125" y="209" type="line"/>
			<point x="591.625" y="82.75"/>
			<point x="498.5" y="-2"/>
			<point x="370.625" y="-9.25" type="curve"/>
			<point x="352.25" y="-46" type="line"/>
			<point x="375.25" y="-54"/>
			<point x="419.25" y="-70"/>
			<point x="419.25" y="-123" type="curve" smooth="yes"/>
			<point x="419.25" y="-177"/>
			<point x="374.25" y="-209"/>
			<point x="319.25" y="-209" type="curve" smooth="yes"/>
			<point x="286.25" y="-209"/>
			<point x="263.25" y="-200"/>
		</contour>
	</outline>
</glyph>
<glyph name="Ntilde" format="2">
	<unicode hex="00D1"/>
	<advance width="678"/>
	<outline>
		<contour>
			<point x="189.5" y="417.5" type="curve" smooth="yes"/>
			<point x="189.5" y="0" type="line"/>
			<point x="68.75" y="0" type="line"/>
			<point x="68.75" y="680" type="line"/>
			<point x="202.75" y="680" type="line"/>
			<point x="491.125" y="196.375" type="line"/>
			<point x="488.5" y="221.625"/>
			<point x="488.5" y="244.875"/>
			<point x="488.5" y="262.5" type="curve" smooth="yes"/>
			<point x="488.5" y="680" type="line"/>
			<point x="609.25" y="680" type="line"/>
			<point x="609.25" y="0" type="line"/>
			<point x="475.25" y="0" type="line"/>
			<point x="186.875" y="483.625" type="line"/>
			<point x="189.5" y="458.375"/>
			<point x="189.5" y="435.125"/>
		</contour>
		<contour>
			<point x="265.5" y="760" type="curve"/>
			<point x="215.5" y="760" type="line"/>
			<point x="229.5" y="847"/>
			<point x="265.5" y="880"/>
			<point name=".hr01" x="305.5" y="880" type="curve" smooth="yes"/>
			<point x="330.5" y="880"/>
			<point x="352.5" y="870"/>
			<point x="374.5" y="859" type="curve"/>
			<point x="390.5" y="850"/>
			<point x="411.5" y="840"/>
			<point name=".hr02" x="431.5" y="840" type="curve" smooth="yes"/>
			<point x="451.5" y="840"/>
			<point x="466.5" y="852"/>
			<point x="471.5" y="880" type="curve"/>
			<point name=".hr03" x="521.5" y="880" type="line"/>
			<point x="507.5" y="793"/>
			<point x="471.5" y="760"/>
			<point name=".hr04" x="431.5" y="760" type="curve" smooth="yes"/>
			<point x="406.5" y="760"/>
			<point x="385.5" y="769"/>
			<point x="364.5" y="780" type="curve" smooth="yes"/>
			<point x="347.5" y="789"/>
			<point x="325.5" y="800"/>
			<point name=".hr05" x="305.5" y="800" type="curve" smooth="yes"/>
			<point x="285.5" y="800"/>
			<point x="270.5" y="788"/>
		</contour>
	</outline>
</glyph>
<glyph name="germandbls" format="2">
	<unicode hex="00DF"/>
	<advance width="536"/>
	<outline>
		<contour>
			<point x="125" y="-30" type="line"/>
			<point x="45" y="-30" type="line"/>
			<point x="45" y="492" type="line" smooth="yes"/>
			<point x="45" y="604"/>
			<point x="116" y="700"/>
			<point x="248" y="700" type="curve" smooth="yes"/>
			<point x="378" y="700"/>
			<point x="458" y="628"/>
			<point x="458" y="518" type="curve" smooth="yes"/>
			<point x="458" y="421"/>
			<point x="391" y="387"/>
			<point x="365" y="370" type="curve"/>
			<point x="445" y="347"/>
			<point name=".hr01" x="491" y="255"/>
			<point x="491" y="190" type="curve" smooth="yes"/>
			<point x="491" y="48"/>
			<point x="382" y="-10"/>
			<point x="239" y="-10" type="curve" smooth="yes"/>
			<point x="211" y="-10"/>
			<point x="200" y="-8"/>
			<point x="186" y="-4" type="curve"/>
			<point x="186" y="63" type="line"/>
			<point x="201" y="58"/>
			<point x="216" y="55"/>
			<point x="230" y="55" type="curve" smooth="yes"/>
			<point x="319" y="55"/>
			<point x="411" y="81"/>
			<point x="411" y="190" type="curve" smooth="yes"/>
			<point x="411" y="292"/>
			<point x="338" y="327"/>
			<point x="230" y="327" type="curve" smooth="yes"/>
			<point x="214" y="327" type="line"/>
			<point x="214" y="397" type="line"/>
			<point x="289" y="397"/>
			<point name=".hr02" x="378" y="416"/>
			<point x="378" y="510" type="curve" smooth="yes"/>
			<point x="378" y="583"/>
			<point x="334" y="635"/>
			<point x="247" y="635" type="curve" smooth="yes"/>
			<point x="150" y="635"/>
			<point x="125" y="573"/>
			<point x="125" y="480" type="curve" smooth="yes"/>
		</contour>
	</outline>
</glyph>
<glyph name="ccedilla" format="2">
	<unicode hex="00E7"/>
	<advance width="452"/>
	<outline>
		<contour>
			<point x="34" y="230" type="curve" smooth="yes"/>
			<point x="34" y="348"/>
			<point x="96" y="470"/>
			<point x="234" y="470" type="curve" smooth="yes"/>
			<point x="328" y="470"/>
			<point x="399" y="420"/>
			<point x="415" y="334" type="curve"/>
			<point x="338" y="333" type="line"/>
			<point x="315" y="369"/>
			<point x="279" y="390"/>
			<point x="233" y="390" type="curve" smooth="yes"/>
			<point x="164" y="390"/>
			<point x="113" y="328"/>
			<point x="113" y="230" type="curve" smooth="yes"/>
			<point x="113" y="156"/>
			<point x="148" y="70"/>
			<point x="233" y="70" type="curve" smooth="yes"/>
			<point x="273" y="70"/>
			<point x="303" y="88"/>
			<point x="324" y="114" type="curve"/>
			<point x="416" y="114" type="line"/>
			<point x="381" y="55"/>
			<point x="340" y="2"/>
			<point x="262" y="-8" type="curve"/>
			<point x="242" y="-49" type="line"/>
			<point x="265" y="-57"/>
			<point x="309" y="-73"/>
			<point x="309" y="-126" type="curve" smooth="yes"/>
			<point x="309" y="-180"/>
			<point x="264" y="-212"/>
			<point x="209" y="-212" type="curve" smooth="yes"/>
			<point x="176" y="-212"/>
			<point x="147" y="-202"/>
			<point x="139" y="-196" type="curve"/>
			<point x="139" y="-167" type="line"/>
			<point x="150" y="-170"/>
			<point x="169" y="-173"/>
			<point x="187" y="-173" type="curve" smooth="yes"/>
			<point x="193" y="-173" type="line" smooth="yes"/>
			<point x="236" y="-173"/>
			<point x="252" y="-150"/>
			<point x="252" y="-121" type="curve" smooth="yes"/>
			<point x="252" y="-85"/>
			<point x="201" y="-73"/>
			<point x="173" y="-70" type="curve"/>
			<point x="202" y="-8" type="line"/>
			<point x="78" y="10"/>
			<point x="34" y="130"/>
		</contour>
	</outline>
</glyph>
<glyph name="oslash" format="2">
	<unicode hex="00F8"/>
	<advance width="480"/>
	<outline>
		<contour>
			<point x="115" y="228" type="curve" smooth="yes"/>
			<point x="115" y="195"/>
			<point x="119" y="167"/>
			<point x="126" y="144" type="curve"/>
			<point x="319" y="374" type="line"/>
			<point x="298" y="391"/>
			<point x="265" y="403"/>
			<point x="240" y="403" type="curve" smooth="yes"/>
			<point x="169" y="403"/>
			<point x="115" y="355"/>
		</contour>
		<contour>
			<point x="358" y="296" type="curve"/>
			<point x="172" y="75" type="line"/>
			<point x="191" y="61"/>
			<point x="214" y="54"/>
			<point x="239" y="54" type="curve" smooth="yes"/>
			<point x="312" y="54"/>
			<point x="364" y="104"/>
			<point x="364" y="229" type="curve" smooth="yes"/>
			<point x="364" y="255"/>
			<point x="362" y="277"/>
		</contour>
		<contour>
			<point x="125" y="19" type="curve"/>
			<point x="55" y="-64" type="line"/>
			<point x="-6" y="-13" type="line"/>
			<point x="70" y="77" type="line"/>
			<point x="45" y="119"/>
			<point x="35" y="172"/>
			<point x="35" y="229" type="curve" smooth="yes"/>
			<point x="35" y="367"/>
			<point x="99" y="469"/>
			<point x="240" y="469" type="curve" smooth="yes"/>
			<point x="292" y="469"/>
			<point x="334" y="455"/>
			<point x="366" y="430" type="curve"/>
			<point x="444" y="523" type="line"/>
			<point x="505" y="472" type="line"/>
			<point x="417" y="367" type="line"/>
			<point x="436" y="329"/>
			<point x="445" y="282"/>
			<point x="445" y="230" type="curve"/>
			<point x="444" y="229" type="line"/>
			<point x="444" y="95"/>
			<point x="373" y="-11"/>
			<point x="239" y="-11" type="curve" smooth="yes"/>
			<point x="192" y="-11"/>
			<point x="154" y="0"/>
		</contour>
	</outline>
</glyph>
<glyph name="ucircumflex" format="2">
	<unicode hex="00FB"/>
	<advance width="478"/>
	<outline>
		<contour>
			<point x="354" y="154" type="curve"/>
			<point x="354" y="460" type="line"/>
			<point x="433" y="460" type="line"/>
			<point x="433" y="0" type="line"/>
			<point x="374" y="0" type="line"/>
			<point x="357" y="83" type="line"/>
			<point x="323" y="36"/>
			<point x="275" y="-10"/>
			<point x="200" y="-10" type="curve" smooth="yes"/>
			<point x="51" y="-10"/>
			<point x="45" y="98"/>
			<point x="45" y="165" type="curve" smooth="yes"/>
			<point x="45" y="460" type="line"/>
			<point x="125" y="460" type="line"/>
			<point x="125" y="165" type="line" smooth="yes"/>
			<point x="125" y="121"/>
			<point x="134" y="55"/>
			<point x="222" y="55" type="curve" smooth="yes"/>
			<point x="266" y="55"/>
			<point x="330" y="90"/>
		</contour>
		<contour>
			<point x="239" y="627.25" type="line"/>
			<point x="146.5" y="520" type="line"/>
			<point x="80.25" y="520" type="line"/>
			<point x="187.75" y="692.5" type="line"/>
			<point x="290.25" y="692.5" type="line"/>
			<point x="397.75" y="520" type="line"/>
			<point x="331.5" y="520" type="line"/>
		</contour>
	</outline>
</glyph>
<glyph name="yacute" format="2">
	<unicode hex="00FD"/>
	<advance width="470"/>
	<outline>
		<contour>
			<point x="267" y="530" type="line"/>
			<point x="203" y="530" type="line"/>
			<point x="253" y="710" type="line"/>
			<point x="333" y="710" type="line"/>
		</contour>
		<contour>
			<point x="203" y="-12" type="curve"/>
			<point x="35" y="460" type="line"/>
			<point x="115" y="460" type="line"/>
			<point x="244" y="98" type="line"/>
			<point x="359" y="460" type="line"/>
			<point x="435" y="460" type="line"/>
			<point x="263" y="-49" type="line" smooth="yes"/>
			<point x="257" y="-67"/>
			<point x="230" y="-200"/>
			<point x="155" y="-200" type="curve" smooth="yes"/>
			<point x="113" y="-200"/>
			<point x="94" y="-198"/>
			<point x="63" y="-190" type="curve"/>
			<point x="63" y="-120" type="line"/>
			<point x="83" y="-129"/>
			<point x="99" y="-135"/>
			<point x="121" y="-135" type="curve" smooth="yes"/>
			<point x="127" y="-135" type="line" smooth="yes"/>
			<point x="168" y="-135"/>
			<point x="192" y="-54"/>
		</contour>
	</outline>
</glyph>
<glyph name="Abreve" format="2">
	<unicode hex="0102"/>
	<advance width="570"/>
	<outline>
		<contour>
			<point x="349.5" y="285.625" type="line"/>
			<point x="275.625" y="519.375" type="line"/>
			<point x="201.75" y="285.625" type="line"/>
		</contour>
		<contour>
			<point x="438" y="0" type="line"/>
			<point x="386.125" y="165.625" type="line"/>
			<point x="165.125" y="165.625" type="line"/>
			<point x="113.25" y="0" type="line"/>
			<point x="-7.5" y="0" type="line"/>
			<point x="204.625" y="680" type="line"/>
			<point x="345.375" y="680" type="line"/>
			<point x="558.75" y="0" type="line"/>
		</contour>
		<contour>
			<point x="130" y="890" type="curve"/>
			<point x="210" y="890" type="line"/>
			<point x="210" y="830"/>
			<point x="250" y="810"/>
			<point x="285" y="810" type="curve" smooth="yes"/>
			<point x="320" y="810"/>
			<point x="360" y="830"/>
			<point x="360" y="890" type="curve"/>
			<point x="440" y="890" type="line"/>
			<point x="440" y="790"/>
			<point x="365" y="750"/>
			<point x="285" y="750" type="curve" smooth="yes"/>
			<point x="205" y="750"/>
			<point x="130" y="790"/>
		</contour>
	</outline>
</glyph>
<glyph name="Aogonek" format="2">
	<unicode hex="0104"/>
	<advance width="560"/>
	<outline>
		<contour>
			<point x="350" y="372" type="line"/>
			<point x="280" y="610" type="line"/>
			<point x="210" y="372" type="line"/>
		</contour>
		<contour>
			<point x="371" y="-124" type="curve" smooth="yes"/>
			<point x="371" y="-70"/>
			<point x="408" y="-25"/>
			<point x="442" y="0" type="curve"/>
			<point x="450" y="0" type="line"/>
			<point x="370" y="282" type="line"/>
			<point x="190" y="282" type="line"/>
			<point x="110" y="0" type="line"/>
			<point x="20" y="0" type="line"/>
			<point x="230" y="700" type="line"/>
			<point x="330" y="700" type="line"/>
			<point x="540" y="0" type="line"/>
			<point x="500" y="0" type="line"/>
			<point x="459" y="-31"/>
			<point x="432" y="-69"/>
			<point x="432" y="-108" type="curve" smooth="yes"/>
			<point x="432" y="-135"/>
			<point x="452" y="-154"/>
			<point x="478" y="-154" type="curve" smooth="yes"/>
			<point x="492" y="-154"/>
			<point x="507" y="-149"/>
			<point x="518" y="-141" type="curve"/>
			<point x="540" y="-182" type="line"/>
			<point x="527" y="-191" type="line"/>
			<point x="508" y="-202"/>
			<point x="481" y="-209"/>
			<point x="461" y="-209" type="curve" smooth="yes"/>
			<point x="411" y="-209"/>
			<point x="371" y="-180"/>
		</contour>
	</outline>
</glyph>
<glyph name="Cacute" format="2">
	<unicode hex="0106"/>
	<advance width="668"/>
	<outline>
		<contour>
			<point x="351.75" y="582.5" type="curve" smooth="yes"/>
			<point x="239.625" y="582.5"/>
			<point x="169.5" y="488.375"/>
			<point x="169.5" y="340" type="curve" smooth="yes"/>
			<point x="169.5" y="191.625"/>
			<point x="239.625" y="97.5"/>
			<point x="351.75" y="97.5" type="curve" smooth="yes"/>
			<point x="427.5" y="97.5"/>
			<point x="490" y="141.25"/>
			<point x="505.625" y="209" type="curve"/>
			<point x="613.125" y="209" type="line"/>
			<point x="590.25" y="76.875"/>
			<point x="489.125" y="-10"/>
			<point x="351.75" y="-10" type="curve" smooth="yes"/>
			<point x="160.25" y="-10"/>
			<point x="48.75" y="118.875"/>
			<point x="48.75" y="340" type="curve" smooth="yes"/>
			<point x="48.75" y="561.125"/>
			<point x="160.25" y="690"/>
			<point x="351.75" y="690" type="curve" smooth="yes"/>
			<point x="494.75" y="690"/>
			<point x="593.625" y="598.5"/>
			<point x="618.75" y="447.75" type="curve"/>
			<point x="511.25" y="447.75" type="line"/>
			<point x="492.75" y="534.625"/>
			<point x="433.375" y="582.5"/>
		</contour>
		<contour>
			<point x="477.625" y="908.75" type="line"/>
			<point x="402.125" y="710" type="line"/>
			<point x="284.375" y="710" type="line"/>
			<point x="346.875" y="908.75" type="line"/>
		</contour>
	</outline>
</glyph>
<glyph name="Ccircumflex" format="2">
	<unicode hex="0108"/>
	<advance width="668"/>
	<outline>
		<contour>
			<point x="351.75" y="582.5" type="curve" smooth="yes"/>
			<point x="239.625" y="582.5"/>
			<point x="169.5" y="488.375"/>
			<point x="169.5" y="340" type="curve" smooth="yes"/>
			<point x="169.5" y="191.625"/>
			<point x="239.625" y="97.5"/>
			<point x="351.75" y="97.5" type="curve" smooth="yes"/>
			<point x="427.5" y="97.5"/>
			<point x="490" y="141.25"/>
			<point x="505.625" y="209" type="curve"/>
			<point x="613.125" y="209" type="line"/>
			<point x="590.25" y="76.875"/>
			<point x="489.125" y="-10"/>
			<point x="351.75" y="-10" type="curve" smooth="yes"/>
			<point x="160.25" y="-10"/>
			<point x="48.75" y="118.875"/>
			<point x="48.75" y="340" type="curve" smooth="yes"/>
			<point x="48.75" y="561.125"/>
			<point x="160.25" y="690"/>
			<point x="351.75" y="690" type="curve" smooth="yes"/>
			<point x="494.75" y="690"/>
			<point x="593.625" y="598.5"/>
			<point x="618.75" y="447.75" type="curve"/>
			<point x="511.25" y="447.75" type="line"/>
			<point x="492.75" y="534.625"/>
			<point x="433.375" y="582.5"/>
		</contour>
		<contour>
			<point x="343.75" y="847.25" type="line"/>
			<point x="251.25" y="740" type="line"/>
			<point x="185" y="740" type="line"/>
			<point x="292.5" y="912.5" type="line"/>
			<point x="395" y="912.5" type="line"/>
			<point x="502.5" y="740" type="line"/>
			<point x="436.25" y="740" type="line"/>
		</contour>
	</outline>
</glyph>
<glyph name="ccircumflex" format="2">
	<unicode hex="0109"/>
	<advance width="510"/>
	<outline>
		<contour>
			<point x="50" y="230" type="curve" smooth="yes"/>
			<point x="50" y="348"/>
			<point x="95" y="470"/>
			<point x="259" y="470" type="curve" smooth="yes"/>
			<point x="378" y="470"/>
			<point x="437" y="405"/>
			<point x="459" y="320" type="curve"/>
			<point x="370" y="320" type="line"/>
			<point x="367" y="335"/>
			<point x="338" y="402"/>
			<point x="259" y="402" type="curve" smooth="yes"/>
			<point x="168" y="402"/>
			<point x="134" y="335"/>
			<point x="134" y="230" type="curve" smooth="yes"/>
			<point x="134" y="147"/>
			<point x="160" y="58"/>
			<point x="259" y="58" type="curve" smooth="yes"/>
			<point x="336" y="58"/>
			<point x="365" y="118"/>
			<point x="372" y="150" type="curve"/>
			<point x="460" y="150" type="line"/>
			<point x="440" y="79"/>
			<point x="387" y="-10"/>
			<point x="259" y="-10" type="curve" smooth="yes"/>
			<point x="94" y="-10"/>
			<point x="50" y="122"/>
		</contour>
		<contour>
			<point x="255" y="627.25" type="line"/>
			<point x="162.5" y="520" type="line"/>
			<point x="96.25" y="520" type="line"/>
			<point x="203.75" y="692.5" type="line"/>
			<point x="306.25" y="692.5" type="line"/>
			<point x="413.75" y="520" type="line"/>
			<point x="347.5" y="520" type="line"/>
		</contour>
	</outline>
</glyph>
<glyph name="Cdotaccent" format="2">
	<unicode hex="010A"/>
	<advance width="668"/>
	<outline>
		<contour>
			<point x="351.75" y="582.5" type="curve" smooth="yes"/>
			<point x="239.625" y="582.5"/>
			<point x="169.5" y="488.375"/>
			<point x="169.5" y="340" type="curve" smooth="yes"/>
			<point x="169.5" y="191.625"/>
			<point x="239.625" y="97.5"/>
			<point x="351.75" y="97.5" type="curve" smooth="yes"/>
			<point x="427.5" y="97.5"/>
			<point x="490" y="141.25"/>
			<point x="505.625" y="209" type="curve"/>
			<point x="613.125" y="209" type="line"/>
			<point x="590.25" y="76.875"/>
			<point x="489.125" y="-10"/>
			<point x="351.75" y="-10" type="curve" smooth="yes"/>
			<point x="160.25" y="-10"/>
			<point x="48.75" y="118.875"/>
			<point x="48.75" y="340" type="curve" smooth="yes"/>
			<point x="48.75" y="561.125"/>
			<point x="160.25" y="690"/>
			<point x="351.75" y="690" type="curve" smooth="yes"/>
			<point x="494.75" y="690"/>
			<point x="593.625" y="598.5"/>
			<point x="618.75" y="447.75" type="curve"/>
			<point x="511.25" y="447.75" type="line"/>
			<point x="492.75" y="534.625"/>
			<point x="433.375" y="582.5"/>
		</contour>
		<contour>
			<point x="403.75" y="857.5" type="line"/>
			<point x="403.75" y="740" type="line"/>
			<point x="283.75" y="740" type="line"/>
			<point x="283.75" y="857.5" type="line"/>
		</contour>
	</outline>
</glyph>
<glyph name="Ccaron" format="2">
	<unicode hex="010C"/>
	<advance width="668"/>
	<outline>
		<contour>
			<point x="351.75" y="582.5" type="curve" smooth="yes"/>
			<point x="239.625" y="582.5"/>
			<point x="169.5" y="488.375"/>
			<point x="169.5" y="340" type="curve" smooth="yes"/>
			<point x="169.5" y="191.625"/>
			<point x="239.625" y="97.5"/>
			<point x="351.75" y="97.5" type="curve" smooth="yes"/>
			<point x="427.5" y="97.5"/>
			<point x="490" y="141.25"/>
			<point x="505.625" y="209" type="curve"/>
			<point x="613.125" y="209" type="line"/>
			<point x="590.25" y="76.875"/>
			<point x="489.125" y="-10"/>
			<point x="351.75" y="-10" type="curve" smooth="yes"/>
			<point x="160.25" y="-10"/>
			<point x="48.75" y="118.875"/>
			<point x="48.75" y="340" type="curve" smooth="yes"/>
			<point x="48.75" y="561.125"/>
			<point x="160.25" y="690"/>
			<point x="351.75" y="690" type="curve" smooth="yes"/>
			<point x="494.75" y="690"/>
			<point x="593.625" y="598.5"/>
			<point x="618.75" y="447.75" type="curve"/>
			<point x="511.25" y="447.75" type="line"/>
			<point x="492.75" y="534.625"/>
			<point x="433.375" y="582.5"/>
		</contour>
		<contour>
			<point x="383.75" y="740" type="line"/>
			<point x="303.75" y="740" type="line"/>
			<point x="203.75" y="900" type="line"/>
			<point x="267.75" y="900" type="line"/>
			<point x="343.75" y="815" type="line"/>
			<point x="419.75" y="900" type="line"/>
			<point x="483.75" y="900" type="line"/>
		</contour>
	</outline>
</glyph>
<glyph name="Dcaron" format="2">
	<unicode hex="010E"/>
	<advance width="636"/>
	<outline>
		<contour>
			<point x="189.5" y="572.5" type="line"/>
			<point x="189.5" y="107.5" type="line"/>
			<point x="300.5" y="107.5" type="line" smooth="yes"/>
			<point x="405" y="107.5"/>
			<point x="467.125" y="204.5"/>
			<point x="467.125" y="340" type="curve" smooth="yes"/>
			<point x="467.125" y="498"/>
			<point x="407" y="572.5"/>
			<point x="300.5" y="572.5" type="curve" smooth="yes"/>
		</contour>
		<contour>
			<point x="68.75" y="680" type="line"/>
			<point x="300.5" y="680" type="line" smooth="yes"/>
			<point x="490.5" y="680"/>
			<point x="587.5" y="552.75"/>
			<point x="587.5" y="340" type="curve" smooth="yes"/>
			<point x="587.5" y="125.375"/>
			<point x="491.125" y="0"/>
			<point x="300.5" y="0" type="curve" smooth="yes"/>
			<point x="68.75" y="0" type="line"/>
		</contour>
		<contour>
			<point x="358.125" y="760" type="line"/>
			<point x="278.125" y="760" type="line"/>
			<point x="178.125" y="920" type="line"/>
			<point x="242.125" y="920" type="line"/>
			<point x="318.125" y="835" type="line"/>
			<point x="394.125" y="920" type="line"/>
			<point x="458.125" y="920" type="line"/>
		</contour>
	</outline>
</glyph>
<glyph name="Emacron" format="2">
	<unicode hex="0112"/>
	<advance width="510"/>
	<outline>
		<contour>
			<point x="420" y="296.25" type="line"/>
			<point x="189.5" y="296.25" type="line"/>
			<point x="189.5" y="101.25" type="line"/>
			<point x="460" y="101.25" type="line"/>
			<point x="460" y="0" type="line"/>
			<point x="68.75" y="0" type="line"/>
			<point x="68.75" y="680" type="line"/>
			<point x="460" y="680" type="line"/>
			<point x="460" y="578.75" type="line"/>
			<point x="189.5" y="578.75" type="line"/>
			<point x="189.5" y="397.5" type="line"/>
			<point x="420" y="397.5" type="line"/>
		</contour>
		<contour>
			<point name=".hr01" x="390" y="860" type="line"/>
			<point x="390" y="790" type="line"/>
			<point x="120" y="790" type="line"/>
			<point x="120" y="860" type="line"/>
		</contour>
	</outline>
</glyph>
<glyph name="Ebreve" format="2">
	<unicode hex="0114"/>
	<advance width="510"/>
	<outline>
		<contour>
			<point x="420" y="296.25" type="line"/>
			<point x="189.5" y="296.25" type="line"/>
			<point x="189.5" y="101.25" type="line"/>
			<point x="460" y="101.25" type="line"/>
			<point x="460" y="0" type="line"/>
			<point x="68.75" y="0" type="line"/>
			<point x="68.75" y="680" type="line"/>
			<point x="460" y="680" type="line"/>
			<point x="460" y="578.75" type="line"/>
			<point x="189.5" y="578.75" type="line"/>
			<point x="189.5" y="397.5" type="line"/>
			<point x="420" y="397.5" type="line"/>
		</contour>
		<contour>
			<point name=".hr01" x="100" y="880" type="curve"/>
			<point x="180" y="880" type="line"/>
			<point x="180" y="820"/>
			<point x="220" y="800"/>
			<point x="255" y="800" type="curve" smooth="yes"/>
			<point x="290" y="800"/>
			<point x="330" y="820"/>
			<point x="330" y="880" type="curve"/>
			<point x="410" y="880" type="line"/>
			<point x="410" y="780"/>
			<point x="335" y="740"/>
			<point x="255" y="740" type="curve" smooth="yes"/>
			<point x="175" y="740"/>
			<point x="100" y="780"/>
		</contour>
	</outline>
</glyph>
<glyph name="Edotaccent" format="2">
	<unicode hex="0116"/>
	<advance width="510"/>
	<outline>
		<contour>
			<point x="420" y="296.25" type="line"/>
			<point x="189.5" y="296.25" type="line"/>
			<point x="189.5" y="101.25" type="line"/>
			<point x="460" y="101.25" type="line"/>
			<point x="460" y="0" type="line"/>
			<point x="68.75" y="0" type="line"/>
			<point x="68.75" y="680" type="line"/>
			<point x="460" y="680" type="line"/>
			<point x="460" y="578.75" type="line"/>
			<point x="189.5" y="578.75" type="line"/>
			<point x="189.5" y="397.5" type="line"/>
			<point x="420" y="397.5" type="line"/>
		</contour>
		<contour>
			<point x="315" y="857.5" type="line"/>
			<point x="315" y="740" type="line"/>
			<point x="195" y="740" type="line"/>
			<point x="195" y="857.5" type="line"/>
		</contour>
	</outline>
</glyph>
<glyph name="edotaccent" format="2">
	<unicode hex="0117"/>
	<advance width="518"/>
	<outline>
		<contour>
			<point x="139" y="278" type="curve"/>
			<point x="379" y="278" type="line"/>
			<point x="379" y="278"/>
			<point x="371" y="402"/>
			<point x="259" y="402" type="curve" smooth="yes"/>
			<point x="147" y="402"/>
			<point x="139" y="278"/>
		</contour>
		<contour>
			<point x="50" y="240" type="curve" smooth="yes"/>
			<point x="50" y="360"/>
			<point x="119" y="470"/>
			<point x="259" y="470" type="curve" smooth="yes"/>
			<point x="399" y="470"/>
			<point x="468" y="360"/>
			<point x="468" y="240" type="curve" smooth="yes"/>
			<point x="468" y="210" type="line"/>
			<point x="134" y="210" type="line"/>
			<point x="134" y="140"/>
			<point x="179" y="58"/>
			<point x="259" y="58" type="curve" smooth="yes"/>
			<point x="329" y="58"/>
			<point x="365" y="98"/>
			<point x="375" y="142" type="curve"/>
			<point x="458" y="142" type="line"/>
			<point x="443" y="73"/>
			<point x="409" y="-10"/>
			<point x="259" y="-10" type="curve" smooth="yes"/>
			<point x="109" y="-10"/>
			<point x="50" y="120"/>
		</contour>
		<contour>
			<point x="351.25" y="677.5" type="line"/>
			<point x="351.25" y="560" type="line"/>
			<point x="231.25" y="560" type="line"/>
			<point x="231.25" y="677.5" type="line"/>
		</contour>
	</outline>
</glyph>
<glyph name="Ecaron" format="2">
	<unicode hex="011A"/>
	<advance width="510"/>
	<outline>
		<contour>
			<point x="420" y="296.25" type="line"/>
			<point x="189.5" y="296.25" type="line"/>
			<point x="189.5" y="101.25" type="line"/>
			<point x="460" y="101.25" type="line"/>
			<point x="460" y="0" type="line"/>
			<point x="68.75" y="0" type="line"/>
			<point x="68.75" y="680" type="line"/>
			<point x="460" y="680" type="line"/>
			<point x="460" y="578.75" type="line"/>
			<point x="189.5" y="578.75" type="line"/>
			<point x="189.5" y="397.5" type="line"/>
			<point x="420" y="397.5" type="line"/>
		</contour>
		<contour>
			<point x="295" y="740" type="line"/>
			<point x="215" y="740" type="line"/>
			<point x="115" y="900" type="line"/>
			<point x="179" y="900" type="line"/>
			<point x="255" y="815" type="line"/>
			<point x="331" y="900" type="line"/>
			<point x="395" y="900" type="line"/>
		</contour>
	</outline>
</glyph>
<glyph name="Gcircumflex" format="2">
	<unicode hex="011C"/>
	<advance width="670"/>
	<outline>
		<contour>
			<point x="351.75" y="582.5" type="curve" smooth="yes"/>
			<point x="239.625" y="582.5"/>
			<point x="169.5" y="488.375"/>
			<point x="169.5" y="340" type="curve" smooth="yes"/>
			<point x="169.5" y="191.625"/>
			<point x="239.625" y="97.5"/>
			<point x="351.75" y="97.5" type="curve" smooth="yes"/>
			<point x="418" y="97.5"/>
			<point x="478.625" y="134.875"/>
			<point x="508.75" y="189.125" type="curve"/>
			<point x="508.75" y="248.75" type="line"/>
			<point x="362.375" y="248.75" type="line"/>
			<point x="362.375" y="331.25" type="line"/>
			<point x="610.75" y="331.25" type="line"/>
			<point x="610.75" y="0" type="line"/>
			<point x="508.75" y="0" type="line"/>
			<point x="508.75" y="56.75" type="line"/>
			<point x="475.875" y="19"/>
			<point x="409.375" y="-10"/>
			<point x="351.75" y="-10" type="curve" smooth="yes"/>
			<point x="160.25" y="-10"/>
			<point x="48.75" y="118.875"/>
			<point x="48.75" y="340" type="curve" smooth="yes"/>
			<point x="48.75" y="561.125"/>
			<point x="160.25" y="690"/>
			<point x="351.75" y="690" type="curve" smooth="yes"/>
			<point x="494.75" y="690"/>
			<point x="593.625" y="598.5"/>
			<point x="618.75" y="447.75" type="curve"/>
			<point x="511.25" y="447.75" type="line"/>
			<point x="492.75" y="534.625"/>
			<point x="433.375" y="582.5"/>
		</contour>
		<contour>
			<point x="334.25" y="847.25" type="line"/>
			<point x="241.75" y="740" type="line"/>
			<point x="175.5" y="740" type="line"/>
			<point x="283" y="912.5" type="line"/>
			<point x="385.5" y="912.5" type="line"/>
			<point x="493" y="740" type="line"/>
			<point x="426.75" y="740" type="line"/>
		</contour>
	</outline>
</glyph>
<glyph name="gcircumflex" format="2">
	<unicode hex="011D"/>
	<advance width="492"/>
	<outline>
		<contour>
			<point x="115" y="230" type="curve" smooth="yes"/>
			<point x="115" y="159"/>
			<point x="141" y="65"/>
			<point x="246" y="65" type="curve" smooth="yes"/>
			<point x="331" y="65"/>
			<point x="367" y="143"/>
			<point x="367" y="210" type="curve" smooth="yes"/>
			<point x="367" y="245" type="line" smooth="yes"/>
			<point x="367" y="347"/>
			<point x="311" y="405"/>
			<point x="246" y="405" type="curve" smooth="yes"/>
			<point x="156" y="405"/>
			<point x="115" y="337"/>
		</contour>
		<contour>
			<point x="35" y="230" type="curve" smooth="yes"/>
			<point x="35" y="355"/>
			<point x="96" y="470"/>
			<point x="226" y="470" type="curve" smooth="yes"/>
			<point x="284" y="470"/>
			<point x="344" y="439"/>
			<point x="367" y="388" type="curve"/>
			<point x="387" y="459" type="line"/>
			<point x="447" y="459" type="line"/>
			<point x="447" y="27" type="line" smooth="yes"/>
			<point x="447" y="-146"/>
			<point x="362" y="-200"/>
			<point x="244" y="-200" type="curve" smooth="yes"/>
			<point x="114" y="-200"/>
			<point x="62" y="-106"/>
			<point x="52" y="-54" type="curve"/>
			<point x="135" y="-54" type="line"/>
			<point x="153" y="-113"/>
			<point x="206" y="-134"/>
			<point x="244" y="-134" type="curve" smooth="yes"/>
			<point x="316" y="-134"/>
			<point x="367" y="-91"/>
			<point x="367" y="27" type="curve" smooth="yes"/>
			<point x="367" y="89" type="line"/>
			<point x="339" y="33"/>
			<point x="286" y="-1"/>
			<point x="227" y="-1" type="curve" smooth="yes"/>
			<point x="56" y="-1"/>
			<point x="35" y="144"/>
		</contour>
		<contour>
			<point x="241" y="627.25" type="line"/>
			<point x="148.5" y="520" type="line"/>
			<point x="82.25" y="520" type="line"/>
			<point x="189.75" y="692.5" type="line"/>
			<point x="292.25" y="692.5" type="line"/>
			<point x="399.75" y="520" type="line"/>
			<point x="333.5" y="520" type="line"/>
		</contour>
	</outline>
</glyph>
<glyph name="Gbreve" format="2">
	<unicode hex="011E"/>
	<advance width="670"/>
	<outline>
		<contour>
			<point x="351.75" y="582.5" type="curve" smooth="yes"/>
			<point x="239.625" y="582.5"/>
			<point x="169.5" y="488.375"/>
			<point x="169.5" y="340" type="curve" smooth="yes"/>
			<point x="169.5" y="191.625"/>
			<point x="239.625" y="97.5"/>
			<point x="351.75" y="97.5" type="curve" smooth="yes"/>
			<point x="418" y="97.5"/>
			<point x="478.625" y="134.875"/>
			<point x="508.75" y="189.125" type="curve"/>
			<point x="508.75" y="248.75" type="line"/>
			<point x="362.375" y="248.75" type="line"/>
			<point x="362.375" y="331.25" type="line"/>
			<point x="610.75" y="331.25" type="line"/>
			<point x="610.75" y="0" type="line"/>
			<point x="508.75" y="0" type="line"/>
			<point x="508.75" y="56.75" type="line"/>
			<point x="475.875" y="19"/>
			<point x="409.375" y="-10"/>
			<point x="351.75" y="-10" type="curve" smooth="yes"/>
			<point x="160.25" y="-10"/>
			<point x="48.75" y="118.875"/>
			<point x="48.75" y="340" type="curve" smooth="yes"/>
			<point x="48.75" y="561.125"/>
			<point x="160.25" y="690"/>
			<point x="351.75" y="690" type="curve" smooth="yes"/>
			<point x="494.75" y="690"/>
			<point x="593.625" y="598.5"/>
			<point x="618.75" y="447.75" type="curve"/>
			<point x="511.25" y="447.75" type="line"/>
			<point x="492.75" y="534.625"/>
			<point x="433.375" y="582.5"/>
		</contour>
		<contour>
			<point x="179.25" y="880" type="curve"/>
			<point x="259.25" y="880" type="line"/>
			<point x="259.25" y="820"/>
			<point x="299.25" y="800"/>
			<point x="334.25" y="800" type="curve" smooth="yes"/>
			<point x="369.25" y="800"/>
			<point x="409.25" y="820"/>
			<point x="409.25" y="880" type="curve"/>
			<point x="489.25" y="880" type="line"/>
			<point x="489.25" y="780"/>
			<point x="414.25" y="740"/>
			<point x="334.25" y="740" type="curve" smooth="yes"/>
			<point x="254.25" y="740"/>
			<point x="179.25" y="780"/>
		</contour>
	</outline>
</glyph>
<glyph name="gbreve" format="2">
	<unicode hex="011F"/>
	<advance width="492"/>
	<outline>
		<contour>
			<point x="115" y="230" type="curve" smooth="yes"/>
			<point x="115" y="159"/>
			<point x="141" y="65"/>
			<point x="246" y="65" type="curve" smooth="yes"/>
			<point x="331" y="65"/>
			<point x="367" y="143"/>
			<point x="367" y="210" type="curve" smooth="yes"/>
			<point x="367" y="245" type="line" smooth="yes"/>
			<point x="367" y="347"/>
			<point x="311" y="405"/>
			<point x="246" y="405" type="curve" smooth="yes"/>
			<point x="156" y="405"/>
			<point x="115" y="337"/>
		</contour>
		<contour>
			<point x="35" y="230" type="curve" smooth="yes"/>
			<point x="35" y="355"/>
			<point x="96" y="470"/>
			<point x="226" y="470" type="curve" smooth="yes"/>
			<point x="284" y="470"/>
			<point x="344" y="439"/>
			<point x="367" y="388" type="curve"/>
			<point x="387" y="459" type="line"/>
			<point x="447" y="459" type="line"/>
			<point x="447" y="27" type="line" smooth="yes"/>
			<point x="447" y="-146"/>
			<point x="362" y="-200"/>
			<point x="244" y="-200" type="curve" smooth="yes"/>
			<point x="114" y="-200"/>
			<point x="62" y="-106"/>
			<point x="52" y="-54" type="curve"/>
			<point x="135" y="-54" type="line"/>
			<point x="153" y="-113"/>
			<point x="206" y="-134"/>
			<point x="244" y="-134" type="curve" smooth="yes"/>
			<point x="316" y="-134"/>
			<point name=".hr01" x="367" y="-91"/>
			<point name=".hr02" x="367" y="27" type="curve" smooth="yes"/>
			<point x="367" y="89" type="line"/>
			<point x="339" y="33"/>
			<point x="286" y="-1"/>
			<point x="227" y="-1" type="curve" smooth="yes"/>
			<point x="56" y="-1"/>
			<point x="35" y="144"/>
		</contour>
		<contour>
			<point x="86" y="660" type="curve"/>
			<point x="166" y="660" type="line"/>
			<point name=".hr03" x="166" y="600"/>
			<point x="206" y="580"/>
			<point x="241" y="580" type="curve" smooth="yes"/>
			<point x="276" y="580"/>
			<point x="316" y="600"/>
			<point x="316" y="660" type="curve"/>
			<point x="396" y="660" type="line"/>
			<point x="396" y="560"/>
			<point x="321" y="520"/>
			<point x="241" y="520" type="curve" smooth="yes"/>
			<point x="161" y="520"/>
			<point x="86" y="560"/>
		</contour>
	</outline>
</glyph>
<glyph name="Gdotaccent" format="2">
	<unicode hex="0120"/>
	<advance width="670"/>
	<outline>
		<contour>
			<point x="351.75" y="582.5" type="curve" smooth="yes"/>
			<point x="239.625" y="582.5"/>
			<point x="169.5" y="488.375"/>
			<point x="169.5" y="340" type="curve" smooth="yes"/>
			<point x="169.5" y="191.625"/>
			<point x="239.625" y="97.5"/>
			<point x="351.75" y="97.5" type="curve" smooth="yes"/>
			<point x="418" y="97.5"/>
			<point x="478.625" y="134.875"/>
			<point x="508.75" y="189.125" type="curve"/>
			<point x="508.75" y="248.75" type="line"/>
			<point x="362.375" y="248.75" type="line"/>
			<point x="362.375" y="331.25" type="line"/>
			<point x="610.75" y="331.25" type="line"/>
			<point x="610.75" y="0" type="line"/>
			<point x="508.75" y="0" type="line"/>
			<point x="508.75" y="56.75" type="line"/>
			<point x="475.875" y="19"/>
			<point x="409.375" y="-10"/>
			<point x="351.75" y="-10" type="curve" smooth="yes"/>
			<point x="160.25" y="-10"/>
			<point x="48.75" y="118.875"/>
			<point x="48.75" y="340" type="curve" smooth="yes"/>
			<point x="48.75" y="561.125"/>
			<point x="160.25" y="690"/>
			<point x="351.75" y="690" type="curve" smooth="yes"/>
			<point x="494.75" y="690"/>
			<point x="593.625" y="598.5"/>
			<point x="618.75" y="447.75" type="curve"/>
			<point x="511.25" y="447.75" type="line"/>
			<point x="492.75" y="534.625"/>
			<point x="433.375" y="582.5"/>
		</contour>
		<contour>
			<point x="394.25" y="857.5" type="line"/>
			<point x="394.25" y="740" type="line"/>
			<point x="274.25" y="740" type="line"/>
			<point x="274.25" y="857.5" type="line"/>
		</contour>
	</outline>
</glyph>
<glyph name="uni0122" format="2">
	<unicode hex="0122"/>
	<advance width="670"/>
	<outline>
		<contour>
			<point x="351.75" y="582.5" type="curve" smooth="yes"/>
			<point x="239.625" y="582.5"/>
			<point x="169.5" y="488.375"/>
			<point x="169.5" y="340" type="curve" smooth="yes"/>
			<point x="169.5" y="191.625"/>
			<point x="239.625" y="97.5"/>
			<point x="351.75" y="97.5" type="curve" smooth="yes"/>
			<point x="418" y="97.5"/>
			<point x="478.625" y="134.875"/>
			<point x="508.75" y="189.125" type="curve"/>
			<point x="508.75" y="248.75" type="line"/>
			<point x="362.375" y="248.75" type="line"/>
			<point x="362.375" y="331.25" type="line"/>
			<point x="610.75" y="331.25" type="line"/>
			<point x="610.75" y="0" type="line"/>
			<point x="508.75" y="0" type="line"/>
			<point x="508.75" y="56.75" type="line"/>
			<point x="475.875" y="19"/>
			<point x="409.375" y="-10"/>
			<point x="351.75" y="-10" type="curve" smooth="yes"/>
			<point x="160.25" y="-10"/>
			<point x="48.75" y="118.875"/>
			<point x="48.75" y="340" type="curve" smooth="yes"/>
			<point x="48.75" y="561.125"/>
			<point x="160.25" y="690"/>
			<point x="351.75" y="690" type="curve" smooth="yes"/>
			<point x="494.75" y="690"/>
			<point x="593.625" y="598.5"/>
			<point x="618.75" y="447.75" type="curve"/>
			<point x="511.25" y="447.75" type="line"/>
			<point x="492.75" y="534.625"/>
			<point x="433.375" y="582.5"/>
		</contour>
		<contour>
			<point x="317.25" y="-140" type="line"/>
			<point x="295.25" y="-140" type="line"/>
			<point x="295.25" y="-60" type="line"/>
			<point x="375.25" y="-60" type="line"/>
			<point x="375.25" y="-140" type="line"/>
			<point x="329.25" y="-270" type="line"/>
			<point x="295.25" y="-270" type="line"/>
		</contour>
	</outline>
</glyph>
<glyph name="Hcircumflex" format="2">
	<unicode hex="0124"/>
	<advance width="638"/>
	<outline>
		<contour>
			<point x="569.5" y="680" type="line"/>
			<point x="569.5" y="0" type="line"/>
			<point x="448.75" y="0" type="line"/>
			<point x="448.75" y="287" type="line"/>
			<point x="189.5" y="287" type="line"/>
			<point x="189.5" y="0" type="line"/>
			<point x="68.75" y="0" type="line"/>
			<point x="68.75" y="680" type="line"/>
			<point x="189.5" y="680" type="line"/>
			<point x="189.5" y="394.5" type="line"/>
			<point x="448.75" y="394.5" type="line"/>
			<point x="448.75" y="680" type="line"/>
		</contour>
		<contour>
			<point x="319.125" y="867.25" type="line"/>
			<point x="226.625" y="760" type="line"/>
			<point x="160.375" y="760" type="line"/>
			<point x="267.875" y="932.5" type="line"/>
			<point x="370.375" y="932.5" type="line"/>
			<point x="477.875" y="760" type="line"/>
			<point x="411.625" y="760" type="line"/>
		</contour>
	</outline>
</glyph>
<glyph name="Itilde" format="2">
	<unicode hex="0128"/>
	<advance width="258"/>
	<outline>
		<contour>
			<point x="189.5" y="0" type="line"/>
			<point x="68.75" y="0" type="line"/>
			<point x="68.75" y="680" type="line"/>
			<point x="189.5" y="680" type="line"/>
		</contour>
		<contour>
			<point x="26.125" y="760" type="curve"/>
			<point x="-23.875" y="760" type="line"/>
			<point x="-9.875" y="847"/>
			<point name=".hr01" x="26.125" y="880"/>
			<point x="66.125" y="880" type="curve" smooth="yes"/>
			<point x="91.125" y="880"/>
			<point x="113.125" y="870"/>
			<point x="135.125" y="859" type="curve"/>
			<point x="151.125" y="850"/>
			<point name=".hr02" x="172.125" y="840"/>
			<point x="192.125" y="840" type="curve" smooth="yes"/>
			<point x="212.125" y="840"/>
			<point x="227.125" y="852"/>
			<point name=".hr03" x="232.125" y="880" type="curve"/>
			<point x="282.125" y="880" type="line"/>
			<point x="268.125" y="793"/>
			<point name=".hr04" x="232.125" y="760"/>
			<point x="192.125" y="760" type="curve" smooth="yes"/>
			<point x="167.125" y="760"/>
			<point x="146.125" y="769"/>
			<point x="125.125" y="780" type="curve" smooth="yes"/>
			<point x="108.125" y="789"/>
			<point name=".hr05" x="86.125" y="800"/>
			<point x="66.125" y="800" type="curve" smooth="yes"/>
			<point x="46.125" y="800"/>
			<point x="31.125" y="788"/>
		</contour>
	</outline>
</glyph>
<glyph name="itilde" format="2">
	<unicode hex="0129"/>
	<advance width="280"/>
	<outline>
		<contour>
			<point x="37" y="540" type="curve"/>
			<point x="-13" y="540" type="line"/>
			<point x="1" y="627"/>
			<point name=".hr01" x="37" y="660"/>
			<point x="77" y="660" type="curve" smooth="yes"/>
			<point x="102" y="660"/>
			<point x="124" y="650"/>
			<point x="146" y="639" type="curve"/>
			<point x="162" y="630"/>
			<point name=".hr02" x="183" y="620"/>
			<point x="203" y="620" type="curve" smooth="yes"/>
			<point x="223" y="620"/>
			<point x="238" y="632"/>
			<point name=".hr03" x="243" y="660" type="curve"/>
			<point x="293" y="660" type="line"/>
			<point x="279" y="573"/>
			<point name=".hr04" x="243" y="540"/>
			<point x="203" y="540" type="curve" smooth="yes"/>
			<point x="178" y="540"/>
			<point x="157" y="549"/>
			<point x="136" y="560" type="curve" smooth="yes"/>
			<point x="119" y="569"/>
			<point name=".hr05" x="97" y="580"/>
			<point x="77" y="580" type="curve" smooth="yes"/>
			<point x="57" y="580"/>
			<point x="42" y="568"/>
		</contour>
		<contour>
			<point name=".hr06" x="220" y="0" type="line"/>
			<point x="100" y="0" type="line"/>
			<point x="100" y="460" type="line"/>
			<point x="220" y="460" type="line"/>
		</contour>
	</outline>
</glyph>
<glyph name="Ibreve" format="2">
	<unicode hex="012C"/>
	<advance width="258"/>
	<outline>
		<contour>
			<point x="189.5" y="0" type="line"/>
			<point x="68.75" y="0" type="line"/>
			<point x="68.75" y="680" type="line"/>
			<point x="189.5" y="680" type="line"/>
		</contour>
		<contour>
			<point x="-25.875" y="880" type="curve"/>
			<point x="54.125" y="880" type="line"/>
			<point x="54.125" y="820"/>
			<point x="94.125" y="800"/>
			<point x="129.125" y="800" type="curve" smooth="yes"/>
			<point x="164.125" y="800"/>
			<point x="204.125" y="820"/>
			<point x="204.125" y="880" type="curve"/>
			<point x="284.125" y="880" type="line"/>
			<point x="284.125" y="780"/>
			<point x="209.125" y="740"/>
			<point x="129.125" y="740" type="curve" smooth="yes"/>
			<point x="49.125" y="740"/>
			<point x="-25.875" y="780"/>
		</contour>
	</outline>
</glyph>
<glyph name="ibreve" format="2">
	<unicode hex="012D"/>
	<advance width="280"/>
	<outline>
		<contour>
			<point x="-15" y="660" type="curve"/>
			<point x="65" y="660" type="line"/>
			<point x="65" y="600"/>
			<point x="105" y="580"/>
			<point x="140" y="580" type="curve" smooth="yes"/>
			<point x="175" y="580"/>
			<point x="215" y="600"/>
			<point x="215" y="660" type="curve"/>
			<point x="295" y="660" type="line"/>
			<point x="295" y="560"/>
			<point name=".hr01" x="220" y="520"/>
			<point x="140" y="520" type="curve" smooth="yes"/>
			<point x="60" y="520"/>
			<point x="-15" y="560"/>
		</contour>
		<contour>
			<point x="220" y="0" type="line"/>
			<point x="100" y="0" type="line"/>
			<point x="100" y="460" type="line"/>
			<point x="220" y="460" type="line"/>
		</contour>
	</outline>
</glyph>
<glyph name="Iogonek" format="2">
	<unicode hex="012E"/>
	<advance width="258"/>
	<outline>
		<contour>
			<point x="39.25" y="-131.125" type="curve" smooth="yes"/>
			<point x="39.25" y="-79.75"/>
			<point name=".hr01" x="69.5" y="-36.625"/>
			<point x="108.375" y="0" type="curve"/>
			<point x="68.75" y="0" type="line"/>
			<point x="68.75" y="680" type="line"/>
			<point x="189.5" y="680" type="line"/>
			<point x="189.5" y="0" type="line"/>
			<point x="190.875" y="0" type="line"/>
			<point x="146.875" y="-41.5"/>
			<point name=".hr02" x="134.875" y="-69.25"/>
			<point x="134.875" y="-97.625" type="curve" smooth="yes"/>
			<point x="134.875" y="-121.375"/>
			<point x="149" y="-133.75"/>
			<point x="171.625" y="-133.75" type="curve" smooth="yes"/>
			<point x="183" y="-133.75"/>
			<point x="195.25" y="-127"/>
			<point x="204.625" y="-118.875" type="curve"/>
			<point x="218.375" y="-184.625" type="line"/>
			<point x="198.375" y="-199.375"/>
			<point x="165.875" y="-210"/>
			<point x="128.875" y="-210" type="curve" smooth="yes"/>
			<point x="72.625" y="-210"/>
			<point x="39.25" y="-181.875"/>
		</contour>
	</outline>
</glyph>
<glyph name="Idotaccent" format="2">
	<unicode hex="0130"/>
	<advance width="258"/>
	<outline>
		<contour>
			<point x="189.5" y="0" type="line"/>
			<point x="68.75" y="0" type="line"/>
			<point x="68.75" y="680" type="line"/>
			<point x="189.5" y="680" type="line"/>
		</contour>
		<contour>
			<point x="189.125" y="740" type="line"/>
			<point x="69.125" y="740" type="line"/>
			<point x="69.125" y="857.5" type="line"/>
			<point x="189.125" y="857.5" type="line"/>
		</contour>
	</outline>
</glyph>
<glyph name="dotlessi" format="2">
	<unicode hex="0131"/>
	<advance width="295"/>
	<outline>
		<contour>
			<point x="207.5" y="0" type="line"/>
			<point x="87.5" y="0" type="line"/>
			<point x="87.5" y="460" type="line"/>
			<point x="207.5" y="460" type="line"/>
		</contour>
	</outline>
	<anchor name="top" x="147.5" y="520"/>
</glyph>
<glyph name="Jcircumflex" format="2">
	<unicode hex="0134"/>
	<advance width="286"/>
	<outline>
		<contour>
			<point x="105.25" y="0" type="curve" smooth="yes"/>
			<point x="50" y="0" type="line"/>
			<point x="50" y="107.5" type="line"/>
			<point x="76" y="107.5" type="line" smooth="yes"/>
			<point x="116" y="107.5"/>
			<point x="148" y="142.25"/>
			<point x="148" y="206.25" type="curve" smooth="yes"/>
			<point x="148" y="680" type="line"/>
			<point x="268.75" y="680" type="line"/>
			<point x="268.75" y="214" type="line" smooth="yes"/>
			<point x="268.75" y="91.25"/>
			<point x="233" y="0"/>
		</contour>
		<contour>
			<point x="193" y="857.25" type="line"/>
			<point x="100.5" y="750" type="line"/>
			<point x="34.25" y="750" type="line"/>
			<point x="141.75" y="922.5" type="line"/>
			<point x="244.25" y="922.5" type="line"/>
			<point x="351.75" y="750" type="line"/>
			<point x="285.5" y="750" type="line"/>
		</contour>
	</outline>
</glyph>
<glyph name="jcircumflex" format="2">
	<unicode hex="0135"/>
	<advance width="220"/>
	<outline>
		<contour>
			<point x="-103" y="-90" type="curve"/>
			<point x="-24" y="-90" type="line"/>
			<point x="-8" y="-114"/>
			<point x="7" y="-120"/>
			<point x="30" y="-120" type="curve" smooth="yes"/>
			<point x="55" y="-120"/>
			<point x="70" y="-103"/>
			<point x="70" y="-55" type="curve" smooth="yes"/>
			<point x="70" y="460" type="line"/>
			<point x="150" y="460" type="line"/>
			<point x="150" y="-31" type="line" smooth="yes"/>
			<point x="150" y="-139"/>
			<point x="93" y="-200"/>
			<point x="28" y="-200" type="curve" smooth="yes"/>
			<point x="-36" y="-200"/>
			<point x="-87" y="-149"/>
		</contour>
		<contour>
			<point x="110" y="627.25" type="line"/>
			<point x="17.5" y="520" type="line"/>
			<point x="-48.75" y="520" type="line"/>
			<point x="58.75" y="692.5" type="line"/>
			<point x="161.25" y="692.5" type="line"/>
			<point x="268.75" y="520" type="line"/>
			<point x="202.5" y="520" type="line"/>
		</contour>
	</outline>
</glyph>
<glyph name="uni0136" format="2">
	<unicode hex="0136"/>
	<advance width="630"/>
	<outline>
		<contour>
			<point x="189.5" y="263.375" type="line"/>
			<point x="189.5" y="0" type="line"/>
			<point x="68.75" y="0" type="line"/>
			<point x="68.75" y="680" type="line"/>
			<point x="189.5" y="680" type="line"/>
			<point x="189.5" y="363.875" type="line"/>
			<point x="265.625" y="380.875" type="line"/>
			<point x="445" y="680" type="line"/>
			<point x="579.75" y="680" type="line"/>
			<point x="379.75" y="350" type="line"/>
			<point x="619.75" y="0" type="line"/>
			<point x="472.5" y="0" type="line"/>
			<point x="278.75" y="287.125" type="line"/>
		</contour>
		<contour>
			<point x="296.875" y="-140" type="line"/>
			<point x="274.875" y="-140" type="line"/>
			<point x="274.875" y="-60" type="line"/>
			<point x="354.875" y="-60" type="line"/>
			<point x="354.875" y="-140" type="line"/>
			<point x="308.875" y="-270" type="line"/>
			<point x="274.875" y="-270" type="line"/>
		</contour>
	</outline>
</glyph>
<glyph name="uni0137" format="2">
	<unicode hex="0137"/>
	<advance width="422"/>
	<outline>
		<contour>
			<point x="183" y="-60" type="curve"/>
			<point x="263" y="-60" type="line"/>
			<point x="263" y="-140" type="line"/>
			<point x="217" y="-270" type="line"/>
			<point x="183" y="-270" type="line"/>
			<point x="205" y="-140" type="line"/>
			<point x="183" y="-140" type="line"/>
			<point x="183" y="-113"/>
			<point x="183" y="-87"/>
		</contour>
		<contour>
			<point x="124" y="0" type="line"/>
			<point x="44" y="0" type="line"/>
			<point x="44" y="233"/>
			<point x="44" y="467"/>
			<point x="44" y="700" type="curve"/>
			<point x="124" y="700" type="line"/>
			<point x="124" y="290" type="line"/>
			<point x="156" y="300" type="line"/>
			<point x="281" y="460" type="line"/>
			<point x="381" y="460" type="line"/>
			<point x="228" y="266" type="line"/>
			<point x="401" y="0" type="line"/>
			<point x="301" y="0" type="line"/>
			<point x="156" y="220" type="line"/>
			<point x="124" y="210" type="line"/>
		</contour>
	</outline>
</glyph>
<glyph name="Lacute" format="2">
	<unicode hex="0139"/>
	<advance width="529"/>
	<outline>
		<contour>
			<point x="189.5" y="680" type="line"/>
			<point x="189.5" y="107.5" type="line"/>
			<point x="481.625" y="107.5" type="line"/>
			<point x="481.625" y="0" type="line"/>
			<point x="68.75" y="0" type="line"/>
			<point x="68.75" y="680" type="line"/>
		</contour>
		<contour>
			<point x="247.625" y="908.75" type="line"/>
			<point x="172.125" y="710" type="line"/>
			<point x="54.375" y="710" type="line"/>
			<point x="116.875" y="908.75" type="line"/>
		</contour>
	</outline>
</glyph>
<glyph name="lslash" format="2">
	<unicode hex="0142"/>
	<advance width="448"/>
	<outline>
		<contour>
			<point x="119" y="151" type="line"/>
			<point x="15" y="151" type="line"/>
			<point x="172" y="338" type="line"/>
			<point x="172" y="700" type="line"/>
			<point x="252" y="700" type="line"/>
			<point x="252" y="434" type="line"/>
			<point x="330" y="527" type="line"/>
			<point x="433" y="527" type="line"/>
			<point x="252" y="309" type="line"/>
			<point x="252" y="0" type="line"/>
			<point x="172" y="0" type="line"/>
			<point x="172" y="214" type="line"/>
		</contour>
	</outline>
</glyph>
<glyph name="uni0145" format="2">
	<unicode hex="0145"/>
	<advance width="600"/>
	<outline>
		<contour>
			<point x="88.25" y="417.5" type="curve" smooth="yes"/>
			<point x="88.25" y="0" type="line"/>
			<point x="-32.5" y="0" type="line"/>
			<point x="-32.5" y="680" type="line"/>
			<point x="101.5" y="680" type="line"/>
			<point x="389.875" y="196.375" type="line"/>
			<point x="387.25" y="221.625"/>
			<point x="387.25" y="244.875"/>
			<point x="387.25" y="262.5" type="curve" smooth="yes"/>
			<point x="387.25" y="680" type="line"/>
			<point x="508" y="680" type="line"/>
			<point x="508" y="0" type="line"/>
			<point x="374" y="0" type="line"/>
			<point x="85.625" y="483.625" type="line"/>
			<point x="88.25" y="458.375"/>
			<point x="88.25" y="435.125"/>
		</contour>
		<contour>
			<point x="282" y="-140" type="line"/>
			<point x="260" y="-140" type="line"/>
			<point x="260" y="-60" type="line"/>
			<point x="340" y="-60" type="line"/>
			<point x="340" y="-140" type="line"/>
			<point x="294" y="-270" type="line"/>
			<point x="260" y="-270" type="line"/>
		</contour>
	</outline>
</glyph>
<glyph name="eng" format="2">
	<unicode hex="014B"/>
	<advance width="478"/>
	<outline>
		<contour>
			<point x="125" y="0" type="curve"/>
			<point x="46" y="0" type="line"/>
			<point x="46" y="460" type="line"/>
			<point x="126" y="460" type="line"/>
			<point x="126" y="370" type="line"/>
			<point x="167" y="417"/>
			<point x="237" y="470"/>
			<point x="307" y="470" type="curve" smooth="yes"/>
			<point x="428" y="470"/>
			<point x="433" y="382"/>
			<point x="433" y="300" type="curve" smooth="yes"/>
			<point x="433" y="-62" type="line" smooth="yes"/>
			<point x="433" y="-139"/>
			<point x="366" y="-200"/>
			<point x="303" y="-200" type="curve" smooth="yes"/>
			<point x="283" y="-200" type="line"/>
			<point x="283" y="-120" type="line"/>
			<point x="367" y="-120"/>
			<point x="353" y="-46"/>
			<point x="353" y="12" type="curve" smooth="yes"/>
			<point x="353" y="270" type="line" smooth="yes"/>
			<point x="353" y="353"/>
			<point x="353" y="405"/>
			<point x="287" y="405" type="curve" smooth="yes"/>
			<point x="223" y="405"/>
			<point x="125" y="343"/>
			<point x="125" y="230" type="curve" smooth="yes"/>
			<point x="125" y="153"/>
			<point x="125" y="77"/>
		</contour>
	</outline>
</glyph>
<glyph name="Omacron" format="2">
	<unicode hex="014C"/>
	<advance width="704"/>
	<outline>
		<contour>
			<point x="351.75" y="582.5" type="curve" smooth="yes"/>
			<point x="239.625" y="582.5"/>
			<point x="169.5" y="488.375"/>
			<point x="169.5" y="340" type="curve" smooth="yes"/>
			<point x="169.5" y="191.625"/>
			<point x="239.625" y="97.5"/>
			<point x="351.75" y="97.5" type="curve" smooth="yes"/>
			<point x="463.875" y="97.5"/>
			<point x="534" y="191.625"/>
			<point x="534" y="340" type="curve" smooth="yes"/>
			<point x="534" y="488.375"/>
			<point x="463.875" y="582.5"/>
		</contour>
		<contour>
			<point x="351.75" y="-10" type="curve" smooth="yes"/>
			<point x="160.25" y="-10"/>
			<point x="48.75" y="118.875"/>
			<point x="48.75" y="340" type="curve" smooth="yes"/>
			<point x="48.75" y="561.125"/>
			<point x="160.25" y="690"/>
			<point x="351.75" y="690" type="curve" smooth="yes"/>
			<point x="543.25" y="690"/>
			<point x="654.75" y="561.125"/>
			<point x="654.75" y="340" type="curve" smooth="yes"/>
			<point x="654.75" y="118.875"/>
			<point x="543.25" y="-10"/>
		</contour>
		<contour>
			<point x="488" y="860" type="line"/>
			<point x="488" y="790" type="line"/>
			<point x="218" y="790" type="line"/>
			<point x="218" y="860" type="line"/>
		</contour>
	</outline>
</glyph>
<glyph name="Obreve" format="2">
	<unicode hex="014E"/>
	<advance width="704"/>
	<outline>
		<contour>
			<point x="351.75" y="582.5" type="curve" smooth="yes"/>
			<point x="239.625" y="582.5"/>
			<point x="169.5" y="488.375"/>
			<point x="169.5" y="340" type="curve" smooth="yes"/>
			<point x="169.5" y="191.625"/>
			<point x="239.625" y="97.5"/>
			<point x="351.75" y="97.5" type="curve" smooth="yes"/>
			<point x="463.875" y="97.5"/>
			<point x="534" y="191.625"/>
			<point x="534" y="340" type="curve" smooth="yes"/>
			<point x="534" y="488.375"/>
			<point x="463.875" y="582.5"/>
		</contour>
		<contour>
			<point x="351.75" y="-10" type="curve" smooth="yes"/>
			<point x="160.25" y="-10"/>
			<point x="48.75" y="118.875"/>
			<point x="48.75" y="340" type="curve" smooth="yes"/>
			<point x="48.75" y="561.125"/>
			<point x="160.25" y="690"/>
			<point x="351.75" y="690" type="curve" smooth="yes"/>
			<point x="543.25" y="690"/>
			<point x="654.75" y="561.125"/>
			<point x="654.75" y="340" type="curve" smooth="yes"/>
			<point x="654.75" y="118.875"/>
			<point x="543.25" y="-10"/>
		</contour>
		<contour>
			<point x="198" y="880" type="curve"/>
			<point x="278" y="880" type="line"/>
			<point x="278" y="820"/>
			<point x="318" y="800"/>
			<point x="353" y="800" type="curve" smooth="yes"/>
			<point x="388" y="800"/>
			<point x="428" y="820"/>
			<point x="428" y="880" type="curve"/>
			<point x="508" y="880" type="line"/>
			<point x="508" y="780"/>
			<point x="433" y="740"/>
			<point x="353" y="740" type="curve" smooth="yes"/>
			<point x="273" y="740"/>
			<point x="198" y="780"/>
		</contour>
	</outline>
</glyph>
<glyph name="Ohungarumlaut" format="2">
	<unicode hex="0150"/>
	<advance width="704"/>
	<outline>
		<contour>
			<point x="351.75" y="582.5" type="curve" smooth="yes"/>
			<point x="239.625" y="582.5"/>
			<point x="169.5" y="488.375"/>
			<point x="169.5" y="340" type="curve" smooth="yes"/>
			<point x="169.5" y="191.625"/>
			<point x="239.625" y="97.5"/>
			<point x="351.75" y="97.5" type="curve" smooth="yes"/>
			<point x="463.875" y="97.5"/>
			<point x="534" y="191.625"/>
			<point x="534" y="340" type="curve" smooth="yes"/>
			<point x="534" y="488.375"/>
			<point x="463.875" y="582.5"/>
		</contour>
		<contour>
			<point x="351.75" y="-10" type="curve" smooth="yes"/>
			<point x="160.25" y="-10"/>
			<point x="48.75" y="118.875"/>
			<point x="48.75" y="340" type="curve" smooth="yes"/>
			<point x="48.75" y="561.125"/>
			<point x="160.25" y="690"/>
			<point x="351.75" y="690" type="curve" smooth="yes"/>
			<point x="543.25" y="690"/>
			<point x="654.75" y="561.125"/>
			<point x="654.75" y="340" type="curve" smooth="yes"/>
			<point x="654.75" y="118.875"/>
			<point x="543.25" y="-10"/>
		</contour>
		<contour>
			<point x="359.75" y="910" type="line"/>
			<point x="298.75" y="730" type="line"/>
			<point x="234.75" y="730" type="line"/>
			<point x="279.75" y="910" type="line"/>
		</contour>
		<contour>
			<point x="469.75" y="910" type="line"/>
			<point x="393.75" y="730" type="line"/>
			<point x="329.75" y="730" type="line"/>
			<point x="389.75" y="910" type="line"/>
		</contour>
	</outline>
</glyph>
<glyph name="oe" format="2">
	<unicode hex="0153"/>
	<advance width="801"/>
	<outline>
		<contour>
			<point x="115" y="230" type="curve" smooth="yes"/>
			<point x="115" y="109"/>
			<point x="170" y="55"/>
			<point x="240" y="55" type="curve" smooth="yes"/>
			<point x="312" y="55"/>
			<point x="365" y="105"/>
			<point x="365" y="230" type="curve" smooth="yes"/>
			<point x="365" y="357"/>
			<point x="311" y="405"/>
			<point x="240" y="405" type="curve" smooth="yes"/>
			<point x="169" y="405"/>
			<point x="115" y="357"/>
		</contour>
		<contour>
			<point x="450" y="290" type="curve"/>
			<point x="689" y="290" type="line"/>
			<point x="676" y="358"/>
			<point x="641" y="390"/>
			<point name=".hr01" x="571" y="390" type="curve" smooth="yes"/>
			<point x="512" y="390"/>
			<point x="460" y="353"/>
		</contour>
		<contour>
			<point x="33" y="231" type="curve" smooth="yes"/>
			<point x="33" y="369"/>
			<point x="97" y="471"/>
			<point x="238" y="471" type="curve" smooth="yes"/>
			<point name=".hr02" x="317" y="471"/>
			<point x="372" y="439"/>
			<point x="405" y="386" type="curve"/>
			<point x="438" y="435"/>
			<point x="492" y="470"/>
			<point x="570" y="470" type="curve" smooth="yes"/>
			<point name=".hr03" x="709" y="470"/>
			<point x="765" y="350"/>
			<point x="765" y="210" type="curve"/>
			<point x="449" y="210" type="line"/>
			<point x="456" y="135"/>
			<point x="489" y="70"/>
			<point x="571" y="70" type="curve" smooth="yes"/>
			<point x="615" y="70"/>
			<point x="662" y="88"/>
			<point x="685" y="114" type="curve"/>
			<point x="746" y="100" type="line"/>
			<point x="729" y="58"/>
			<point x="671" y="-8"/>
			<point x="570" y="-8" type="curve" smooth="yes"/>
			<point x="489" y="-8"/>
			<point x="436" y="28"/>
			<point x="404" y="79" type="curve"/>
			<point x="370" y="25"/>
			<point x="314" y="-9"/>
			<point x="238" y="-9" type="curve" smooth="yes"/>
			<point name=".hr04" x="86" y="-9"/>
			<point x="33" y="103"/>
		</contour>
	</outline>
</glyph>
<glyph name="Sacute" format="2">
	<unicode hex="015A"/>
	<advance width="582"/>
	<outline>
		<contour>
			<point x="322" y="750" type="line"/>
			<point x="258" y="750" type="line"/>
			<point x="308" y="910" type="line"/>
			<point x="388" y="910" type="line"/>
		</contour>
		<contour>
			<point x="38.5" y="211.75" type="curve"/>
			<point x="165.5" y="211.75" type="line"/>
			<point x="165.5" y="145.125"/>
			<point x="212.875" y="97.5"/>
			<point x="292.875" y="97.5" type="curve" smooth="yes"/>
			<point x="372.5" y="97.5"/>
			<point x="417.5" y="134.75"/>
			<point x="417.5" y="187.625" type="curve" smooth="yes"/>
			<point x="417.5" y="231.75"/>
			<point x="392.625" y="262.125"/>
			<point x="345.125" y="279" type="curve"/>
			<point x="159.25" y="362.875" type="line"/>
			<point x="97.375" y="389.5"/>
			<point name=".hr01" x="56.875" y="439"/>
			<point x="56.875" y="505.875" type="curve" smooth="yes"/>
			<point x="56.875" y="617.625"/>
			<point x="144.875" y="690"/>
			<point x="293.375" y="690" type="curve" smooth="yes"/>
			<point x="437.75" y="690"/>
			<point x="542.5" y="598.25"/>
			<point x="542.5" y="488.5" type="curve"/>
			<point x="415.5" y="488.5" type="line"/>
			<point x="415.5" y="541.625"/>
			<point x="368.625" y="582.5"/>
			<point x="282.125" y="582.5" type="curve" smooth="yes"/>
			<point x="219.125" y="582.5"/>
			<point x="183.875" y="556.875"/>
			<point x="183.875" y="506.5" type="curve" smooth="yes"/>
			<point x="183.875" y="471.875"/>
			<point x="205.125" y="445.625"/>
			<point x="249.625" y="428.75" type="curve"/>
			<point x="430.625" y="349.5" type="line"/>
			<point x="505.875" y="317.625"/>
			<point x="544.5" y="266.875"/>
			<point x="544.5" y="184.625" type="curve" smooth="yes"/>
			<point x="544.5" y="65.25"/>
			<point x="453.75" y="-10"/>
			<point x="289.625" y="-10" type="curve" smooth="yes"/>
			<point x="139.375" y="-10"/>
			<point name=".hr02" x="38.5" y="82"/>
		</contour>
	</outline>
</glyph>
<glyph name="sacute" format="2">
	<unicode hex="015B"/>
	<advance width="452"/>
	<outline>
		<contour>
			<point x="242" y="520" type="line"/>
			<point x="178" y="520" type="line"/>
			<point x="228" y="680" type="line"/>
			<point x="308" y="680" type="line"/>
		</contour>
		<contour>
			<point x="35" y="136" type="curve"/>
			<point x="114" y="136" type="line"/>
			<point x="114" y="62"/>
			<point x="192" y="55"/>
			<point x="237" y="55" type="curve" smooth="yes"/>
			<point x="261" y="55"/>
			<point x="335" y="67"/>
			<point x="335" y="130" type="curve" smooth="yes"/>
			<point x="335" y="236"/>
			<point name=".hr01" x="55" y="185"/>
			<point x="55" y="340" type="curve" smooth="yes"/>
			<point x="55" y="407"/>
			<point x="105" y="470"/>
			<point x="215" y="470" type="curve" smooth="yes"/>
			<point x="307" y="470"/>
			<point x="397" y="414"/>
			<point x="397" y="336" type="curve"/>
			<point x="316" y="336" type="line"/>
			<point x="304" y="378"/>
			<point x="265" y="405"/>
			<point x="215" y="405" type="curve" smooth="yes"/>
			<point x="170" y="405"/>
			<point x="135" y="385"/>
			<point x="135" y="340" type="curve" smooth="yes"/>
			<point x="135" y="263"/>
			<point x="417" y="288"/>
			<point x="417" y="130" type="curve" smooth="yes"/>
			<point x="417" y="10"/>
			<point x="314" y="-10"/>
			<point x="237" y="-10" type="curve" smooth="yes"/>
			<point x="133" y="-10"/>
			<point name=".hr02" x="35" y="52"/>
		</contour>
	</outline>
</glyph>
<glyph name="Scircumflex" format="2">
	<unicode hex="015C"/>
	<advance width="582"/>
	<outline>
		<contour>
			<point x="38.5" y="211.75" type="curve"/>
			<point x="165.5" y="211.75" type="line"/>
			<point x="165.5" y="145.125"/>
			<point x="212.875" y="97.5"/>
			<point x="292.875" y="97.5" type="curve" smooth="yes"/>
			<point x="372.5" y="97.5"/>
			<point x="417.5" y="134.75"/>
			<point x="417.5" y="187.625" type="curve" smooth="yes"/>
			<point x="417.5" y="231.75"/>
			<point x="392.625" y="262.125"/>
			<point x="345.125" y="279" type="curve"/>
			<point x="159.25" y="362.875" type="line"/>
			<point x="97.375" y="389.5"/>
			<point name=".hr01" x="56.875" y="439"/>
			<point x="56.875" y="505.875" type="curve" smooth="yes"/>
			<point x="56.875" y="617.625"/>
			<point x="144.875" y="690"/>
			<point x="293.375" y="690" type="curve" smooth="yes"/>
			<point x="437.75" y="690"/>
			<point x="542.5" y="598.25"/>
			<point x="542.5" y="488.5" type="curve"/>
			<point x="415.5" y="488.5" type="line"/>
			<point x="415.5" y="541.625"/>
			<point x="368.625" y="582.5"/>
			<point x="282.125" y="582.5" type="curve" smooth="yes"/>
			<point x="219.125" y="582.5"/>
			<point x="183.875" y="556.875"/>
			<point x="183.875" y="506.5" type="curve" smooth="yes"/>
			<point x="183.875" y="471.875"/>
			<point x="205.125" y="445.625"/>
			<point x="249.625" y="428.75" type="curve"/>
			<point x="430.625" y="349.5" type="line"/>
			<point x="505.875" y="317.625"/>
			<point x="544.5" y="266.875"/>
			<point x="544.5" y="184.625" type="curve" smooth="yes"/>
			<point x="544.5" y="65.25"/>
			<point x="453.75" y="-10"/>
			<point x="289.625" y="-10" type="curve" smooth="yes"/>
			<point x="139.375" y="-10"/>
			<point name=".hr02" x="38.5" y="82"/>
		</contour>
		<contour>
			<point x="290" y="857.25" type="line"/>
			<point x="197.5" y="750" type="line"/>
			<point x="131.25" y="750" type="line"/>
			<point x="238.75" y="922.5" type="line"/>
			<point x="341.25" y="922.5" type="line"/>
			<point x="448.75" y="750" type="line"/>
			<point x="382.5" y="750" type="line"/>
		</contour>
	</outline>
</glyph>
<glyph name="scircumflex" format="2">
	<unicode hex="015D"/>
	<advance width="452"/>
	<outline>
		<contour>
			<point x="35" y="136" type="curve"/>
			<point x="114" y="136" type="line"/>
			<point x="114" y="62"/>
			<point x="192" y="55"/>
			<point x="237" y="55" type="curve" smooth="yes"/>
			<point x="261" y="55"/>
			<point x="335" y="67"/>
			<point x="335" y="130" type="curve" smooth="yes"/>
			<point x="335" y="236"/>
			<point name=".hr01" x="55" y="185"/>
			<point x="55" y="340" type="curve" smooth="yes"/>
			<point x="55" y="407"/>
			<point x="105" y="470"/>
			<point x="215" y="470" type="curve" smooth="yes"/>
			<point x="307" y="470"/>
			<point x="397" y="414"/>
			<point x="397" y="336" type="curve"/>
			<point x="316" y="336" type="line"/>
			<point x="304" y="378"/>
			<point x="265" y="405"/>
			<point x="215" y="405" type="curve" smooth="yes"/>
			<point x="170" y="405"/>
			<point x="135" y="385"/>
			<point x="135" y="340" type="curve" smooth="yes"/>
			<point x="135" y="263"/>
			<point x="417" y="288"/>
			<point x="417" y="130" type="curve" smooth="yes"/>
			<point x="417" y="10"/>
			<point x="314" y="-10"/>
			<point x="237" y="-10" type="curve" smooth="yes"/>
			<point x="133" y="-10"/>
			<point name=".hr02" x="35" y="52"/>
		</contour>
		<contour>
			<point x="210" y="627.25" type="line"/>
			<point x="117.5" y="520" type="line"/>
			<point x="51.25" y="520" type="line"/>
			<point x="158.75" y="692.5" type="line"/>
			<point x="261.25" y="692.5" type="line"/>
			<point x="368.75" y="520" type="line"/>
			<point x="302.5" y="520" type="line"/>
		</contour>
	</outline>
</glyph>
<glyph name="Scaron" format="2">
	<unicode hex="0160"/>
	<advance width="582"/>
	<outline>
		<contour>
			<point x="38.5" y="211.75" type="curve"/>
			<point x="165.5" y="211.75" type="line"/>
			<point x="165.5" y="145.125"/>
			<point x="212.875" y="97.5"/>
			<point x="292.875" y="97.5" type="curve" smooth="yes"/>
			<point x="372.5" y="97.5"/>
			<point x="417.5" y="134.75"/>
			<point x="417.5" y="187.625" type="curve" smooth="yes"/>
			<point x="417.5" y="231.75"/>
			<point x="392.625" y="262.125"/>
			<point x="345.125" y="279" type="curve"/>
			<point x="159.25" y="362.875" type="line"/>
			<point x="97.375" y="389.5"/>
			<point name=".hr01" x="56.875" y="439"/>
			<point x="56.875" y="505.875" type="curve" smooth="yes"/>
			<point x="56.875" y="617.625"/>
			<point x="144.875" y="690"/>
			<point x="293.375" y="690" type="curve" smooth="yes"/>
			<point x="437.75" y="690"/>
			<point x="542.5" y="598.25"/>
			<point x="542.5" y="488.5" type="curve"/>
			<point x="415.5" y="488.5" type="line"/>
			<point x="415.5" y="541.625"/>
			<point x="368.625" y="582.5"/>
			<point x="282.125" y="582.5" type="curve" smooth="yes"/>
			<point x="219.125" y="582.5"/>
			<point x="183.875" y="556.875"/>
			<point x="183.875" y="506.5" type="curve" smooth="yes"/>
			<point x="183.875" y="471.875"/>
			<point x="205.125" y="445.625"/>
			<point x="249.625" y="428.75" type="curve"/>
			<point x="430.625" y="349.5" type="line"/>
			<point x="505.875" y="317.625"/>
			<point x="544.5" y="266.875"/>
			<point x="544.5" y="184.625" type="curve" smooth="yes"/>
			<point x="544.5" y="65.25"/>
			<point x="453.75" y="-10"/>
			<point x="289.625" y="-10" type="curve" smooth="yes"/>
			<point x="139.375" y="-10"/>
			<point name=".hr02" x="38.5" y="82"/>
		</contour>
		<contour>
			<point x="330" y="750" type="line"/>
			<point x="250" y="750" type="line"/>
			<point x="150" y="910" type="line"/>
			<point x="214" y="910" type="line"/>
			<point x="290" y="825" type="line"/>
			<point x="366" y="910" type="line"/>
			<point x="430" y="910" type="line"/>
		</contour>
	</outline>
</glyph>
<glyph name="uni0162" format="2">
	<unicode hex="0162"/>
	<advance width="480"/>
	<outline>
		<contour>
			<point x="300.375" y="572.5" type="line"/>
			<point x="300.375" y="0" type="line"/>
			<point x="179.625" y="0" type="line"/>
			<point x="179.625" y="572.5" type="line"/>
			<point x="10" y="572.5" type="line"/>
			<point x="10" y="680" type="line"/>
			<point x="470" y="680" type="line"/>
			<point x="470" y="572.5" type="line"/>
		</contour>
		<contour>
			<point x="222" y="-140" type="line"/>
			<point name=".hr01" x="200" y="-140" type="line"/>
			<point x="200" y="-60" type="line"/>
			<point x="280" y="-60" type="line"/>
			<point x="280" y="-140" type="line"/>
			<point x="234" y="-270" type="line"/>
			<point x="200" y="-270" type="line"/>
		</contour>
	</outline>
</glyph>
<glyph name="Tcaron" format="2">
	<unicode hex="0164"/>
	<advance width="480"/>
	<outline>
		<contour>
			<point x="300.375" y="572.5" type="line"/>
			<point x="300.375" y="0" type="line"/>
			<point x="179.625" y="0" type="line"/>
			<point x="179.625" y="572.5" type="line"/>
			<point x="10" y="572.5" type="line"/>
			<point x="10" y="680" type="line"/>
			<point x="470" y="680" type="line"/>
			<point x="470" y="572.5" type="line"/>
		</contour>
		<contour>
			<point x="280" y="740" type="line"/>
			<point x="200" y="740" type="line"/>
			<point x="100" y="900" type="line"/>
			<point x="164" y="900" type="line"/>
			<point x="240" y="815" type="line"/>
			<point x="316" y="900" type="line"/>
			<point x="380" y="900" type="line"/>
		</contour>
	</outline>
</glyph>
<glyph name="Utilde" format="2">
	<unicode hex="0168"/>
	<advance width="610"/>
	<outline>
		<contour>
			<point x="50" y="255" type="curve" smooth="yes"/>
			<point x="50" y="680" type="line"/>
			<point x="170" y="680" type="line"/>
			<point x="170" y="287.5" type="line" smooth="yes"/>
			<point x="170" y="161.875"/>
			<point x="212.5" y="103.75"/>
			<point x="305" y="103.75" type="curve" smooth="yes"/>
			<point x="397.5" y="103.75"/>
			<point x="440" y="161.875"/>
			<point x="440" y="287.5" type="curve" smooth="yes"/>
			<point x="440" y="680" type="line"/>
			<point x="560" y="680" type="line"/>
			<point x="560" y="255" type="line" smooth="yes"/>
			<point x="560" y="80"/>
			<point x="467.5" y="-10"/>
			<point x="305" y="-10" type="curve" smooth="yes"/>
			<point x="142.5" y="-10"/>
			<point x="50" y="80"/>
		</contour>
		<contour>
			<point x="202" y="760" type="curve"/>
			<point x="152" y="760" type="line"/>
			<point x="166" y="847"/>
			<point x="202" y="880"/>
			<point name=".hr01" x="242" y="880" type="curve" smooth="yes"/>
			<point x="267" y="880"/>
			<point x="289" y="870"/>
			<point x="311" y="859" type="curve"/>
			<point x="327" y="850"/>
			<point x="348" y="840"/>
			<point name=".hr02" x="368" y="840" type="curve" smooth="yes"/>
			<point x="388" y="840"/>
			<point x="403" y="852"/>
			<point x="408" y="880" type="curve"/>
			<point name=".hr03" x="458" y="880" type="line"/>
			<point x="444" y="793"/>
			<point x="408" y="760"/>
			<point name=".hr04" x="368" y="760" type="curve" smooth="yes"/>
			<point x="343" y="760"/>
			<point x="322" y="769"/>
			<point x="301" y="780" type="curve" smooth="yes"/>
			<point x="284" y="789"/>
			<point x="262" y="800"/>
			<point name=".hr05" x="242" y="800" type="curve" smooth="yes"/>
			<point x="222" y="800"/>
			<point x="207" y="788"/>
		</contour>
	</outline>
</glyph>
<glyph name="Umacron" format="2">
	<unicode hex="016A"/>
	<advance width="560"/>
	<outline>
		<contour>
			<point x="415" y="750" type="line"/>
			<point x="145" y="750" type="line"/>
			<point x="145" y="820" type="line"/>
			<point name=".hr01" x="415" y="820" type="line"/>
		</contour>
		<contour>
			<point name=".hr02" x="25" y="255" type="curve" smooth="yes"/>
			<point x="25" y="680" type="line"/>
			<point x="145" y="680" type="line"/>
			<point x="145" y="287.5" type="line" smooth="yes"/>
			<point x="145" y="161.875"/>
			<point x="187.5" y="103.75"/>
			<point x="280" y="103.75" type="curve" smooth="yes"/>
			<point x="372.5" y="103.75"/>
			<point name=".hr03" x="415" y="161.875"/>
			<point x="415" y="287.5" type="curve" smooth="yes"/>
			<point x="415" y="680" type="line"/>
			<point name=".hr04" x="535" y="680" type="line"/>
			<point x="535" y="255" type="line" smooth="yes"/>
			<point x="535" y="80"/>
			<point x="442.5" y="-10"/>
			<point x="280" y="-10" type="curve" smooth="yes"/>
			<point x="117.5" y="-10"/>
			<point x="25" y="80"/>
		</contour>
	</outline>
</glyph>
<glyph name="Ubreve" format="2">
	<unicode hex="016C"/>
	<advance width="560"/>
	<outline>
		<contour>
			<point x="125" y="890" type="curve"/>
			<point x="205" y="890" type="line"/>
			<point x="205" y="830"/>
			<point x="245" y="810"/>
			<point x="280" y="810" type="curve" smooth="yes"/>
			<point x="315" y="810"/>
			<point x="355" y="830"/>
			<point x="355" y="890" type="curve"/>
			<point x="435" y="890" type="line"/>
			<point x="435" y="790"/>
			<point x="360" y="750"/>
			<point x="280" y="750" type="curve" smooth="yes"/>
			<point x="200" y="750"/>
			<point x="125" y="790"/>
		</contour>
		<contour>
			<point x="25" y="255" type="curve" smooth="yes"/>
			<point name=".hr01" x="25" y="680" type="line"/>
			<point x="145" y="680" type="line"/>
			<point x="145" y="287.5" type="line" smooth="yes"/>
			<point x="145" y="161.875"/>
			<point x="187.5" y="103.75"/>
			<point x="280" y="103.75" type="curve" smooth="yes"/>
			<point x="372.5" y="103.75"/>
			<point x="415" y="161.875"/>
			<point x="415" y="287.5" type="curve" smooth="yes"/>
			<point x="415" y="680" type="line"/>
			<point x="535" y="680" type="line"/>
			<point x="535" y="255" type="line" smooth="yes"/>
			<point x="535" y="80"/>
			<point x="442.5" y="-10"/>
			<point x="280" y="-10" type="curve" smooth="yes"/>
			<point x="117.5" y="-10"/>
			<point x="25" y="80"/>
		</contour>
	</outline>
</glyph>
<glyph name="Uring" format="2">
	<unicode hex="016E"/>
	<advance width="560"/>
	<outline>
		<contour>
			<point x="240" y="819" type="curve" smooth="yes"/>
			<point x="240" y="802"/>
			<point x="254" y="788"/>
			<point x="271" y="788" type="curve" smooth="yes"/>
			<point x="288" y="788"/>
			<point x="302" y="802"/>
			<point x="302" y="819" type="curve" smooth="yes"/>
			<point x="302" y="836"/>
			<point x="288" y="850"/>
			<point x="271" y="850" type="curve" smooth="yes"/>
			<point x="254" y="850"/>
			<point x="240" y="836"/>
		</contour>
		<contour>
			<point x="25" y="255" type="curve" smooth="yes"/>
			<point x="25" y="680" type="line"/>
			<point x="145" y="680" type="line"/>
			<point x="145" y="287.5" type="line" smooth="yes"/>
			<point x="145" y="161.875"/>
			<point x="187.5" y="103.75"/>
			<point x="280" y="103.75" type="curve" smooth="yes"/>
			<point x="372.5" y="103.75"/>
			<point x="415" y="161.875"/>
			<point x="415" y="287.5" type="curve" smooth="yes"/>
			<point x="415" y="680" type="line"/>
			<point x="535" y="680" type="line"/>
			<point x="535" y="255" type="line" smooth="yes"/>
			<point x="535" y="80"/>
			<point x="442.5" y="-10"/>
			<point x="280" y="-10" type="curve" smooth="yes"/>
			<point x="117.5" y="-10"/>
			<point x="25" y="80"/>
		</contour>
		<contour>
			<point x="193" y="819" type="curve" smooth="yes"/>
			<point x="193" y="862"/>
			<point x="228" y="897"/>
			<point x="271" y="897" type="curve" smooth="yes"/>
			<point x="314" y="897"/>
			<point x="349" y="862"/>
			<point x="349" y="819" type="curve" smooth="yes"/>
			<point x="349" y="776"/>
			<point x="314" y="741"/>
			<point x="271" y="741" type="curve" smooth="yes"/>
			<point x="228" y="741"/>
			<point x="193" y="776"/>
		</contour>
	</outline>
</glyph>
<glyph name="Uhungarumlaut" format="2">
	<unicode hex="0170"/>
	<advance width="610"/>
	<outline>
		<contour>
			<point x="50" y="255" type="curve" smooth="yes"/>
			<point x="50" y="680" type="line"/>
			<point x="170" y="680" type="line"/>
			<point x="170" y="287.5" type="line" smooth="yes"/>
			<point x="170" y="161.875"/>
			<point x="212.5" y="103.75"/>
			<point x="305" y="103.75" type="curve" smooth="yes"/>
			<point x="397.5" y="103.75"/>
			<point x="440" y="161.875"/>
			<point x="440" y="287.5" type="curve" smooth="yes"/>
			<point x="440" y="680" type="line"/>
			<point x="560" y="680" type="line"/>
			<point x="560" y="255" type="line" smooth="yes"/>
			<point x="560" y="80"/>
			<point x="467.5" y="-10"/>
			<point x="305" y="-10" type="curve" smooth="yes"/>
			<point x="142.5" y="-10"/>
			<point x="50" y="80"/>
		</contour>
		<contour>
			<point x="347" y="730" type="line"/>
			<point x="283" y="730" type="line"/>
			<point x="343" y="910" type="line"/>
			<point x="423" y="910" type="line"/>
		</contour>
		<contour>
			<point x="252" y="730" type="line"/>
			<point x="188" y="730" type="line"/>
			<point x="233" y="910" type="line"/>
			<point x="313" y="910" type="line"/>
		</contour>
	</outline>
</glyph>
<glyph name="Wcircumflex" format="2">
	<unicode hex="0174"/>
	<advance width="1061"/>
	<outline>
		<contour>
			<point x="257" y="0" type="line"/>
			<point x="50" y="700" type="line"/>
			<point x="157" y="700" type="line"/>
			<point x="317" y="97" type="line"/>
			<point x="477" y="700" type="line"/>
			<point x="584" y="700" type="line"/>
			<point x="744" y="97" type="line"/>
			<point x="904" y="700" type="line"/>
			<point x="1011" y="700" type="line"/>
			<point x="802" y="0" type="line"/>
			<point x="684" y="0" type="line"/>
			<point x="530" y="520" type="line"/>
			<point x="375" y="0" type="line"/>
		</contour>
		<contour>
			<point x="434" y="760" type="line"/>
			<point x="370" y="760" type="line"/>
			<point x="490" y="940" type="line"/>
			<point x="570" y="940" type="line"/>
			<point x="690" y="760" type="line"/>
			<point x="626" y="760" type="line"/>
			<point x="530" y="887" type="line"/>
		</contour>
	</outline>
</glyph>
<glyph name="zcaron" format="2">
	<unicode hex="017E"/>
	<advance width="450"/>
	<outline>
		<contour>
			<point x="410" y="0" type="line"/>
			<point x="40" y="0" type="line"/>
			<point x="40" y="65" type="line"/>
			<point x="310" y="395" type="line"/>
			<point x="40" y="395" type="line"/>
			<point x="40" y="460" type="line"/>
			<point x="410" y="460" type="line"/>
			<point x="410" y="395" type="line"/>
			<point x="150" y="65" type="line"/>
			<point x="410" y="65" type="line"/>
		</contour>
		<contour>
			<point x="185" y="520" type="line"/>
			<point x="65" y="700" type="line"/>
			<point x="129" y="700" type="line"/>
			<point name=".hr01" x="225" y="573" type="line"/>
			<point name=".hr02" x="321" y="700" type="line"/>
			<point x="385" y="700" type="line"/>
			<point x="265" y="520" type="line"/>
		</contour>
	</outline>
</glyph>
<glyph name="uni01C9" format="2">
	<unicode hex="01C9"/>
	<advance width="450"/>
	<outline>
		<contour>
			<point x="380" y="560" type="line"/>
			<point x="300" y="560" type="line"/>
			<point x="300" y="640" type="line"/>
			<point x="380" y="640" type="line"/>
		</contour>
		<contour>
			<point x="152" y="-100" type="curve"/>
			<point x="217" y="-100" type="line"/>
			<point x="220" y="-132"/>
			<point x="241" y="-140"/>
			<point x="256" y="-140" type="curve" smooth="yes"/>
			<point x="280" y="-140"/>
			<point x="300" y="-136"/>
			<point x="300" y="-80" type="curve" smooth="yes"/>
			<point x="300" y="460" type="line"/>
			<point x="380" y="460" type="line"/>
			<point x="380" y="-60" type="line" smooth="yes"/>
			<point x="380" y="-181"/>
			<point x="324" y="-200"/>
			<point x="260" y="-200" type="curve" smooth="yes"/>
			<point x="204" y="-200"/>
			<point x="156" y="-162"/>
		</contour>
		<contour>
			<point x="190" y="0" type="line"/>
			<point name=".hr01" x="70" y="0" type="line"/>
			<point x="70" y="700" type="line"/>
			<point x="190" y="700" type="line"/>
		</contour>
	</outline>
</glyph>
<glyph name="uni01CA" format="2">
	<unicode hex="01CA"/>
	<advance width="886"/>
	<outline>
		<contour>
			<point x="88.25" y="417.5" type="curve" smooth="yes"/>
			<point x="88.25" y="0" type="line"/>
			<point x="-32.5" y="0" type="line"/>
			<point x="-32.5" y="680" type="line"/>
			<point x="101.5" y="680" type="line"/>
			<point x="389.875" y="196.375" type="line"/>
			<point x="387.25" y="221.625"/>
			<point x="387.25" y="244.875"/>
			<point x="387.25" y="262.5" type="curve" smooth="yes"/>
			<point x="387.25" y="680" type="line"/>
			<point x="508" y="680" type="line"/>
			<point x="508" y="0" type="line"/>
			<point x="374" y="0" type="line"/>
			<point x="85.625" y="483.625" type="line"/>
			<point x="88.25" y="458.375"/>
			<point x="88.25" y="435.125"/>
		</contour>
		<contour>
			<point x="705.25" y="0" type="curve" smooth="yes"/>
			<point x="650" y="0" type="line"/>
			<point x="650" y="107.5" type="line"/>
			<point x="676" y="107.5" type="line" smooth="yes"/>
			<point x="716" y="107.5"/>
			<point x="748" y="142.25"/>
			<point x="748" y="206.25" type="curve" smooth="yes"/>
			<point x="748" y="680" type="line"/>
			<point x="868.75" y="680" type="line"/>
			<point x="868.75" y="214" type="line" smooth="yes"/>
			<point x="868.75" y="91.25"/>
			<point x="833" y="0"/>
		</contour>
	</outline>
</glyph>
<glyph name="uni01CB" format="2">
	<unicode hex="01CB"/>
	<advance width="830"/>
	<outline>
		<contour>
			<point x="532" y="-100" type="curve"/>
			<point x="597" y="-100" type="line"/>
			<point x="600" y="-132"/>
			<point x="621" y="-140"/>
			<point x="636" y="-140" type="curve" smooth="yes"/>
			<point x="660" y="-140"/>
			<point x="680" y="-136"/>
			<point x="680" y="-80" type="curve" smooth="yes"/>
			<point x="680" y="460" type="line"/>
			<point x="760" y="460" type="line"/>
			<point x="760" y="-60" type="line" smooth="yes"/>
			<point x="760" y="-181"/>
			<point x="704" y="-200"/>
			<point x="640" y="-200" type="curve" smooth="yes"/>
			<point x="584" y="-200"/>
			<point x="536" y="-162"/>
		</contour>
		<contour>
			<point x="88.25" y="417.5" type="curve" smooth="yes"/>
			<point x="88.25" y="0" type="line"/>
			<point x="-32.5" y="0" type="line"/>
			<point x="-32.5" y="680" type="line"/>
			<point x="101.5" y="680" type="line"/>
			<point x="389.875" y="196.375" type="line"/>
			<point x="387.25" y="221.625"/>
			<point x="387.25" y="244.875"/>
			<point x="387.25" y="262.5" type="curve" smooth="yes"/>
			<point x="387.25" y="680" type="line"/>
			<point x="508" y="680" type="line"/>
			<point x="508" y="0" type="line"/>
			<point x="374" y="0" type="line"/>
			<point x="85.625" y="483.625" type="line"/>
			<point x="88.25" y="458.375"/>
			<point x="88.25" y="435.125"/>
		</contour>
		<contour>
			<point x="760" y="640" type="line"/>
			<point x="760" y="560" type="line"/>
			<point name=".hr01" x="680" y="560" type="line"/>
			<point x="680" y="640" type="line"/>
		</contour>
	</outline>
</glyph>
<glyph name="uni01CC" format="2">
	<unicode hex="01CC"/>
	<advance width="708"/>
	<outline>
		<contour>
			<point x="638" y="560" type="line"/>
			<point x="558" y="560" type="line"/>
			<point x="558" y="640" type="line"/>
			<point x="638" y="640" type="line"/>
		</contour>
		<contour>
			<point x="410" y="-100" type="curve"/>
			<point x="475" y="-100" type="line"/>
			<point x="478" y="-132"/>
			<point x="499" y="-140"/>
			<point x="514" y="-140" type="curve" smooth="yes"/>
			<point x="538" y="-140"/>
			<point x="558" y="-136"/>
			<point x="558" y="-80" type="curve" smooth="yes"/>
			<point x="558" y="460" type="line"/>
			<point x="638" y="460" type="line"/>
			<point x="638" y="-60" type="line" smooth="yes"/>
			<point x="638" y="-181"/>
			<point x="582" y="-200"/>
			<point x="518" y="-200" type="curve" smooth="yes"/>
			<point x="462" y="-200"/>
			<point x="414" y="-162"/>
		</contour>
		<contour>
			<point x="165" y="0" type="line"/>
			<point x="45" y="0" type="line"/>
			<point x="45" y="460" type="line"/>
			<point x="151" y="460" type="line"/>
			<point x="165" y="352.5" type="line"/>
		</contour>
	</outline>
</glyph>
<glyph name="uni01CE" format="2">
	<unicode hex="01CE"/>
	<advance width="416"/>
	<outline>
		<contour>
			<point x="263" y="530" type="line"/>
			<point x="183" y="530" type="line"/>
			<point x="83" y="690" type="line"/>
			<point x="147" y="690" type="line"/>
			<point x="223" y="605" type="line"/>
			<point x="299" y="690" type="line"/>
			<point x="363" y="690" type="line"/>
		</contour>
		<contour>
			<point x="45" y="123" type="curve" smooth="yes"/>
			<point x="45" y="205"/>
			<point x="84" y="237"/>
			<point x="222" y="264" type="curve" smooth="yes"/>
			<point x="350" y="290" type="line"/>
			<point x="350" y="274" type="line"/>
			<point x="215" y="246" type="line" smooth="yes"/>
			<point x="98" y="222"/>
			<point x="65" y="194"/>
			<point x="65" y="121" type="curve" smooth="yes"/>
			<point x="65" y="54"/>
			<point x="124" y="10"/>
			<point x="191" y="10" type="curve" smooth="yes"/>
			<point x="239" y="10"/>
			<point x="302" y="38"/>
			<point name=".hr01" x="342" y="78" type="curve" smooth="yes"/>
			<point x="352" y="88" type="line"/>
			<point x="352" y="50" type="line"/>
			<point x="339" y="50" type="line"/>
			<point x="294" y="11"/>
			<point x="240" y="-10"/>
			<point x="182" y="-10" type="curve" smooth="yes"/>
			<point x="101" y="-10"/>
			<point x="45" y="44"/>
		</contour>
		<contour>
			<point x="348" y="0" type="line"/>
			<point x="342" y="54" type="line"/>
			<point x="342" y="350" type="line" smooth="yes"/>
			<point x="342" y="416"/>
			<point x="300" y="450"/>
			<point x="217" y="450" type="curve" smooth="yes"/>
			<point x="147" y="450"/>
			<point x="96" y="402"/>
			<point x="90" y="330" type="curve"/>
			<point x="70" y="330" type="line"/>
			<point x="78" y="414"/>
			<point x="139" y="470"/>
			<point x="223" y="470" type="curve" smooth="yes"/>
			<point x="307" y="470"/>
			<point x="362" y="425"/>
			<point x="362" y="359" type="curve" smooth="yes"/>
			<point x="362" y="0" type="line"/>
		</contour>
	</outline>
</glyph>
<glyph name="uni01CF" format="2">
	<unicode hex="01CF"/>
	<advance width="258"/>
	<outline>
		<contour>
			<point x="189.5" y="680" type="line"/>
			<point x="189.5" y="0" type="line"/>
			<point x="68.75" y="0" type="line"/>
			<point x="68.75" y="680" type="line"/>
		</contour>
		<contour>
			<point x="169.125" y="740" type="line"/>
			<point x="89.125" y="740" type="line"/>
			<point x="-10.875" y="900" type="line"/>
			<point x="53.125" y="900" type="line"/>
			<point x="129.125" y="815" type="line"/>
			<point x="205.125" y="900" type="line"/>
			<point x="269.125" y="900" type="line"/>
		</contour>
	</outline>
</glyph>
<glyph name="uni01D1" format="2">
	<unicode hex="01D1"/>
	<advance width="704"/>
	<outline>
		<contour>
			<point x="351.75" y="582.5" type="curve" smooth="yes"/>
			<point x="239.625" y="582.5"/>
			<point x="169.5" y="488.375"/>
			<point x="169.5" y="340" type="curve" smooth="yes"/>
			<point x="169.5" y="191.625"/>
			<point x="239.625" y="97.5"/>
			<point x="351.75" y="97.5" type="curve" smooth="yes"/>
			<point x="463.875" y="97.5"/>
			<point x="534" y="191.625"/>
			<point x="534" y="340" type="curve" smooth="yes"/>
			<point x="534" y="488.375"/>
			<point x="463.875" y="582.5"/>
		</contour>
		<contour>
			<point x="351.75" y="-10" type="curve" smooth="yes"/>
			<point x="160.25" y="-10"/>
			<point x="48.75" y="118.875"/>
			<point x="48.75" y="340" type="curve" smooth="yes"/>
			<point x="48.75" y="561.125"/>
			<point x="160.25" y="690"/>
			<point x="351.75" y="690" type="curve" smooth="yes"/>
			<point x="543.25" y="690"/>
			<point x="654.75" y="561.125"/>
			<point x="654.75" y="340" type="curve" smooth="yes"/>
			<point x="654.75" y="118.875"/>
			<point x="543.25" y="-10"/>
		</contour>
		<contour>
			<point x="393" y="740" type="line"/>
			<point x="313" y="740" type="line"/>
			<point x="213" y="900" type="line"/>
			<point x="277" y="900" type="line"/>
			<point x="353" y="815" type="line"/>
			<point x="429" y="900" type="line"/>
			<point x="493" y="900" type="line"/>
		</contour>
	</outline>
</glyph>
<glyph name="uni01D3" format="2">
	<unicode hex="01D3"/>
	<advance width="560"/>
	<outline>
		<contour>
			<point x="25" y="255" type="curve" smooth="yes"/>
			<point x="25" y="680" type="line"/>
			<point x="145" y="680" type="line"/>
			<point x="145" y="287.5" type="line" smooth="yes"/>
			<point x="145" y="161.875"/>
			<point x="187.5" y="103.75"/>
			<point x="280" y="103.75" type="curve" smooth="yes"/>
			<point x="372.5" y="103.75"/>
			<point x="415" y="161.875"/>
			<point x="415" y="287.5" type="curve" smooth="yes"/>
			<point x="415" y="680" type="line"/>
			<point x="535" y="680" type="line"/>
			<point x="535" y="255" type="line" smooth="yes"/>
			<point x="535" y="80"/>
			<point x="442.5" y="-10"/>
			<point x="280" y="-10" type="curve" smooth="yes"/>
			<point x="117.5" y="-10"/>
			<point x="25" y="80"/>
		</contour>
		<contour>
			<point x="320" y="750" type="line"/>
			<point x="240" y="750" type="line"/>
			<point x="140" y="910" type="line"/>
			<point x="204" y="910" type="line"/>
			<point x="280" y="825" type="line"/>
			<point x="356" y="910" type="line"/>
			<point x="420" y="910" type="line"/>
		</contour>
	</outline>
</glyph>
<glyph name="uni01DD" format="2">
	<unicode hex="01DD"/>
	<advance width="471"/>
	<outline>
		<contour>
			<point x="352" y="170" type="curve"/>
			<point x="113" y="170" type="line"/>
			<point x="126" y="102"/>
			<point x="161" y="70"/>
			<point x="231" y="70" type="curve" smooth="yes"/>
			<point x="290" y="70"/>
			<point x="342" y="107"/>
		</contour>
		<contour>
			<point x="36" y="250" type="curve"/>
			<point x="352" y="250" type="line"/>
			<point x="344" y="322"/>
			<point x="314" y="390"/>
			<point x="230" y="390" type="curve" smooth="yes"/>
			<point x="186" y="390"/>
			<point x="139" y="372"/>
			<point x="116" y="346" type="curve"/>
			<point x="55" y="362" type="line"/>
			<point x="72" y="404"/>
			<point x="130" y="470"/>
			<point x="231" y="470" type="curve" smooth="yes"/>
			<point x="387" y="470"/>
			<point x="437" y="338"/>
			<point x="437" y="220" type="curve" smooth="yes"/>
			<point x="437" y="112"/>
			<point x="376" y="-10"/>
			<point x="231" y="-10" type="curve" smooth="yes"/>
			<point x="93" y="-10"/>
			<point x="36" y="112"/>
		</contour>
	</outline>
</glyph>
<glyph name="uni01DE" format="2">
	<unicode hex="01DE"/>
	<advance width="586"/>
	<outline>
		<contour>
			<point x="367" y="285.625" type="line"/>
			<point x="293.125" y="519.375" type="line"/>
			<point x="219.25" y="285.625" type="line"/>
		</contour>
		<contour>
			<point x="455.5" y="0" type="line"/>
			<point x="403.625" y="165.625" type="line"/>
			<point x="182.625" y="165.625" type="line"/>
			<point x="130.75" y="0" type="line"/>
			<point x="10" y="0" type="line"/>
			<point x="222.125" y="680" type="line"/>
			<point x="362.875" y="680" type="line"/>
			<point x="576.25" y="0" type="line"/>
		</contour>
		<contour>
			<point x="318.75" y="860" type="line"/>
			<point x="368.75" y="833.75" type="line"/>
			<point x="340.625" y="871.25" type="line"/>
			<point x="453.125" y="852.5" type="line"/>
			<point x="445.625" y="740" type="line"/>
			<point x="333.125" y="758.75" type="line"/>
			<point x="303.125" y="790" type="line"/>
			<point x="253.125" y="771.25" type="line"/>
			<point x="245.625" y="740" type="line"/>
			<point x="133.125" y="758.75" type="line"/>
			<point x="105" y="871.25" type="line"/>
			<point x="217.5" y="897.5" type="line"/>
		</contour>
	</outline>
</glyph>
<glyph name="uni01E8" format="2">
	<unicode hex="01E8"/>
	<advance width="630"/>
	<outline>
		<contour>
			<point x="189.5" y="263.375" type="line"/>
			<point x="189.5" y="0" type="line"/>
			<point x="68.75" y="0" type="line"/>
			<point x="68.75" y="680" type="line"/>
			<point x="189.5" y="680" type="line"/>
			<point x="189.5" y="363.875" type="line"/>
			<point x="265.625" y="380.875" type="line"/>
			<point x="445" y="680" type="line"/>
			<point x="579.75" y="680" type="line"/>
			<point x="379.75" y="350" type="line"/>
			<point x="619.75" y="0" type="line"/>
			<point x="472.5" y="0" type="line"/>
			<point x="278.75" y="287.125" type="line"/>
		</contour>
		<contour>
			<point x="354.875" y="760" type="line"/>
			<point x="274.875" y="760" type="line"/>
			<point x="174.875" y="920" type="line"/>
			<point x="238.875" y="920" type="line"/>
			<point x="314.875" y="835" type="line"/>
			<point x="390.875" y="920" type="line"/>
			<point x="454.875" y="920" type="line"/>
		</contour>
	</outline>
</glyph>
<glyph name="uni01F2" format="2">
	<unicode hex="01F2"/>
	<advance width="1086"/>
	<outline>
		<contour>
			<point x="189.5" y="572.5" type="line"/>
			<point x="189.5" y="107.5" type="line"/>
			<point x="300.5" y="107.5" type="line" smooth="yes"/>
			<point x="405" y="107.5"/>
			<point x="467.125" y="204.5"/>
			<point x="467.125" y="340" type="curve" smooth="yes"/>
			<point x="467.125" y="498"/>
			<point x="407" y="572.5"/>
			<point x="300.5" y="572.5" type="curve" smooth="yes"/>
		</contour>
		<contour>
			<point x="68.75" y="680" type="line"/>
			<point x="300.5" y="680" type="line" smooth="yes"/>
			<point x="490.5" y="680"/>
			<point x="587.5" y="552.75"/>
			<point x="587.5" y="340" type="curve" smooth="yes"/>
			<point x="587.5" y="125.375"/>
			<point x="491.125" y="0"/>
			<point x="300.5" y="0" type="curve" smooth="yes"/>
			<point x="68.75" y="0" type="line"/>
		</contour>
		<contour>
			<point name=".hr01" x="1046.25" y="65" type="line"/>
			<point x="1046.25" y="0" type="line"/>
			<point x="676.25" y="0" type="line"/>
			<point x="676.25" y="65" type="line"/>
			<point x="946.25" y="395" type="line"/>
			<point x="676.25" y="395" type="line"/>
			<point x="676.25" y="460" type="line"/>
			<point x="1046.25" y="460" type="line"/>
			<point x="1046.25" y="395" type="line"/>
			<point x="786.25" y="65" type="line"/>
		</contour>
	</outline>
</glyph>
<glyph name="uni0202" format="2">
	<unicode hex="0202"/>
	<advance width="570"/>
	<outline>
		<contour>
			<point x="349.5" y="285.625" type="line"/>
			<point x="275.625" y="519.375" type="line"/>
			<point x="201.75" y="285.625" type="line"/>
		</contour>
		<contour>
			<point x="438" y="0" type="line"/>
			<point x="386.125" y="165.625" type="line"/>
			<point x="165.125" y="165.625" type="line"/>
			<point x="113.25" y="0" type="line"/>
			<point x="-7.5" y="0" type="line"/>
			<point x="204.625" y="680" type="line"/>
			<point x="345.375" y="680" type="line"/>
			<point x="558.75" y="0" type="line"/>
		</contour>
		<contour>
			<point x="205" y="720" type="curve"/>
			<point x="125" y="720" type="line"/>
			<point x="125" y="820"/>
			<point x="200" y="860"/>
			<point x="280" y="860" type="curve" smooth="yes"/>
			<point x="360" y="860"/>
			<point x="435" y="820"/>
			<point x="435" y="720" type="curve"/>
			<point x="355" y="720" type="line"/>
			<point x="355" y="780"/>
			<point x="315" y="800"/>
			<point x="280" y="800" type="curve" smooth="yes"/>
			<point x="245" y="800"/>
			<point x="205" y="780"/>
		</contour>
	</outline>
</glyph>
<glyph name="uni0204" format="2">
	<unicode hex="0204"/>
	<advance width="510"/>
	<outline>
		<contour>
			<point x="420" y="296.25" type="line"/>
			<point x="189.5" y="296.25" type="line"/>
			<point x="189.5" y="101.25" type="line"/>
			<point x="460" y="101.25" type="line"/>
			<point x="460" y="0" type="line"/>
			<point x="68.75" y="0" type="line"/>
			<point x="68.75" y="680" type="line"/>
			<point x="460" y="680" type="line"/>
			<point x="460" y="578.75" type="line"/>
			<point x="189.5" y="578.75" type="line"/>
			<point x="189.5" y="397.5" type="line"/>
			<point x="420" y="397.5" type="line"/>
		</contour>
		<contour>
			<point x="278" y="730" type="line"/>
			<point x="214" y="730" type="line"/>
			<point x="138" y="910" type="line"/>
			<point x="218" y="910" type="line"/>
		</contour>
		<contour>
			<point x="373" y="730" type="line"/>
			<point x="309" y="730" type="line"/>
			<point x="248" y="910" type="line"/>
			<point x="328" y="910" type="line"/>
		</contour>
	</outline>
</glyph>
<glyph name="uni0208" format="2">
	<unicode hex="0208"/>
	<advance width="258"/>
	<outline>
		<contour>
			<point x="189.5" y="0" type="line"/>
			<point x="68.75" y="0" type="line"/>
			<point x="68.75" y="680" type="line"/>
			<point x="189.5" y="680" type="line"/>
		</contour>
		<contour>
			<point x="183.125" y="730" type="line"/>
			<point x="122.125" y="910" type="line"/>
			<point x="202.125" y="910" type="line"/>
			<point x="247.125" y="730" type="line"/>
		</contour>
		<contour>
			<point x="88.125" y="730" type="line"/>
			<point x="12.125" y="910" type="line"/>
			<point x="92.125" y="910" type="line"/>
			<point x="152.125" y="730" type="line"/>
		</contour>
	</outline>
</glyph>
<glyph name="uni020A" format="2">
	<unicode hex="020A"/>
	<advance width="258"/>
	<outline>
		<contour>
			<point x="189.5" y="0" type="line"/>
			<point x="68.75" y="0" type="line"/>
			<point x="68.75" y="680" type="line"/>
			<point x="189.5" y="680" type="line"/>
		</contour>
		<contour>
			<point x="54.125" y="740" type="curve"/>
			<point x="-25.875" y="740" type="line"/>
			<point x="-25.875" y="840"/>
			<point x="49.125" y="880"/>
			<point x="129.125" y="880" type="curve" smooth="yes"/>
			<point x="209.125" y="880"/>
			<point x="284.125" y="840"/>
			<point x="284.125" y="740" type="curve"/>
			<point x="204.125" y="740" type="line"/>
			<point x="204.125" y="800"/>
			<point x="164.125" y="820"/>
			<point x="129.125" y="820" type="curve" smooth="yes"/>
			<point x="94.125" y="820"/>
			<point x="54.125" y="800"/>
		</contour>
	</outline>
</glyph>
<glyph name="uni020C" format="2">
	<unicode hex="020C"/>
	<advance width="704"/>
	<outline>
		<contour>
			<point x="351.75" y="582.5" type="curve" smooth="yes"/>
			<point x="239.625" y="582.5"/>
			<point x="169.5" y="488.375"/>
			<point x="169.5" y="340" type="curve" smooth="yes"/>
			<point x="169.5" y="191.625"/>
			<point x="239.625" y="97.5"/>
			<point x="351.75" y="97.5" type="curve" smooth="yes"/>
			<point x="463.875" y="97.5"/>
			<point x="534" y="191.625"/>
			<point x="534" y="340" type="curve" smooth="yes"/>
			<point x="534" y="488.375"/>
			<point x="463.875" y="582.5"/>
		</contour>
		<contour>
			<point x="351.75" y="-10" type="curve" smooth="yes"/>
			<point x="160.25" y="-10"/>
			<point x="48.75" y="118.875"/>
			<point x="48.75" y="340" type="curve" smooth="yes"/>
			<point x="48.75" y="561.125"/>
			<point x="160.25" y="690"/>
			<point x="351.75" y="690" type="curve" smooth="yes"/>
			<point x="543.25" y="690"/>
			<point x="654.75" y="561.125"/>
			<point x="654.75" y="340" type="curve" smooth="yes"/>
			<point x="654.75" y="118.875"/>
			<point x="543.25" y="-10"/>
		</contour>
		<contour>
			<point x="374.75" y="730" type="line"/>
			<point x="310.75" y="730" type="line"/>
			<point x="234.75" y="910" type="line"/>
			<point x="314.75" y="910" type="line"/>
		</contour>
		<contour>
			<point x="469.75" y="730" type="line"/>
			<point x="405.75" y="730" type="line"/>
			<point x="344.75" y="910" type="line"/>
			<point x="424.75" y="910" type="line"/>
		</contour>
	</outline>
</glyph>
<glyph name="uni020E" format="2">
	<unicode hex="020E"/>
	<advance width="704"/>
	<outline>
		<contour>
			<point x="351.75" y="582.5" type="curve" smooth="yes"/>
			<point x="239.625" y="582.5"/>
			<point x="169.5" y="488.375"/>
			<point x="169.5" y="340" type="curve" smooth="yes"/>
			<point x="169.5" y="191.625"/>
			<point x="239.625" y="97.5"/>
			<point x="351.75" y="97.5" type="curve" smooth="yes"/>
			<point x="463.875" y="97.5"/>
			<point x="534" y="191.625"/>
			<point x="534" y="340" type="curve" smooth="yes"/>
			<point x="534" y="488.375"/>
			<point x="463.875" y="582.5"/>
		</contour>
		<contour>
			<point x="351.75" y="-10" type="curve" smooth="yes"/>
			<point x="160.25" y="-10"/>
			<point x="48.75" y="118.875"/>
			<point x="48.75" y="340" type="curve" smooth="yes"/>
			<point x="48.75" y="561.125"/>
			<point x="160.25" y="690"/>
			<point x="351.75" y="690" type="curve" smooth="yes"/>
			<point x="543.25" y="690"/>
			<point x="654.75" y="561.125"/>
			<point x="654.75" y="340" type="curve" smooth="yes"/>
			<point x="654.75" y="118.875"/>
			<point x="543.25" y="-10"/>
		</contour>
		<contour>
			<point x="278" y="740" type="curve"/>
			<point x="198" y="740" type="line"/>
			<point x="198" y="840"/>
			<point x="273" y="880"/>
			<point x="353" y="880" type="curve" smooth="yes"/>
			<point x="433" y="880"/>
			<point x="508" y="840"/>
			<point x="508" y="740" type="curve"/>
			<point x="428" y="740" type="line"/>
			<point x="428" y="800"/>
			<point x="388" y="820"/>
			<point x="353" y="820" type="curve" smooth="yes"/>
			<point x="318" y="820"/>
			<point x="278" y="800"/>
		</contour>
	</outline>
</glyph>
<glyph name="uni0214" format="2">
	<unicode hex="0214"/>
	<advance width="610"/>
	<outline>
		<contour>
			<point x="50" y="255" type="curve" smooth="yes"/>
			<point x="50" y="680" type="line"/>
			<point x="170" y="680" type="line"/>
			<point x="170" y="287.5" type="line" smooth="yes"/>
			<point x="170" y="161.875"/>
			<point x="212.5" y="103.75"/>
			<point x="305" y="103.75" type="curve" smooth="yes"/>
			<point x="397.5" y="103.75"/>
			<point x="440" y="161.875"/>
			<point x="440" y="287.5" type="curve" smooth="yes"/>
			<point x="440" y="680" type="line"/>
			<point x="560" y="680" type="line"/>
			<point x="560" y="255" type="line" smooth="yes"/>
			<point x="560" y="80"/>
			<point x="467.5" y="-10"/>
			<point x="305" y="-10" type="curve" smooth="yes"/>
			<point x="142.5" y="-10"/>
			<point x="50" y="80"/>
		</contour>
		<contour>
			<point x="359" y="730" type="line"/>
			<point x="298" y="910" type="line"/>
			<point x="378" y="910" type="line"/>
			<point x="423" y="730" type="line"/>
		</contour>
		<contour>
			<point x="264" y="730" type="line"/>
			<point x="188" y="910" type="line"/>
			<point x="268" y="910" type="line"/>
			<point x="328" y="730" type="line"/>
		</contour>
	</outline>
</glyph>
<glyph name="uni0215" format="2">
	<unicode hex="0215"/>
	<advance width="478"/>
	<outline>
		<contour>
			<point x="254" y="530" type="line"/>
			<point x="193" y="710" type="line"/>
			<point x="273" y="710" type="line"/>
			<point x="318" y="530" type="line"/>
		</contour>
		<contour>
			<point x="159" y="530" type="line"/>
			<point x="83" y="710" type="line"/>
			<point x="163" y="710" type="line"/>
			<point x="223" y="530" type="line"/>
		</contour>
		<contour>
			<point x="44" y="160" type="curve" smooth="yes"/>
			<point x="44" y="460" type="line"/>
			<point x="124" y="460" type="line"/>
			<point x="124" y="190" type="line" smooth="yes"/>
			<point x="124" y="107"/>
			<point x="124" y="55"/>
			<point x="192" y="55" type="curve" smooth="yes"/>
			<point x="255" y="55"/>
			<point x="352" y="115"/>
			<point x="352" y="230" type="curve" smooth="yes"/>
			<point x="352" y="460" type="line"/>
			<point x="433" y="460" type="line"/>
			<point x="433" y="0" type="line"/>
			<point x="353" y="0" type="line"/>
			<point x="353" y="90" type="line"/>
			<point x="314" y="43"/>
			<point x="232" y="-10"/>
			<point x="166" y="-10" type="curve" smooth="yes"/>
			<point x="49" y="-10"/>
			<point x="44" y="78"/>
		</contour>
	</outline>
</glyph>
<glyph name="uni0216" format="2">
	<unicode hex="0216"/>
	<advance width="560"/>
	<outline>
		<contour>
			<point x="200" y="720" type="curve"/>
			<point x="120" y="720" type="line"/>
			<point x="120" y="820"/>
			<point x="195" y="860"/>
			<point x="275" y="860" type="curve" smooth="yes"/>
			<point x="355" y="860"/>
			<point x="430" y="820"/>
			<point x="430" y="720" type="curve"/>
			<point x="350" y="720" type="line"/>
			<point x="350" y="780"/>
			<point x="310" y="800"/>
			<point x="275" y="800" type="curve" smooth="yes"/>
			<point x="240" y="800"/>
			<point x="200" y="780"/>
		</contour>
		<contour>
			<point x="25" y="255" type="curve" smooth="yes"/>
			<point name=".hr01" x="25" y="680" type="line"/>
			<point x="145" y="680" type="line"/>
			<point x="145" y="287.5" type="line" smooth="yes"/>
			<point x="145" y="161.875"/>
			<point x="187.5" y="103.75"/>
			<point x="280" y="103.75" type="curve" smooth="yes"/>
			<point x="372.5" y="103.75"/>
			<point x="415" y="161.875"/>
			<point x="415" y="287.5" type="curve" smooth="yes"/>
			<point x="415" y="680" type="line"/>
			<point x="535" y="680" type="line"/>
			<point x="535" y="255" type="line" smooth="yes"/>
			<point x="535" y="80"/>
			<point x="442.5" y="-10"/>
			<point x="280" y="-10" type="curve" smooth="yes"/>
			<point x="117.5" y="-10"/>
			<point x="25" y="80"/>
		</contour>
	</outline>
</glyph>
<glyph name="uni0217" format="2">
	<unicode hex="0217"/>
	<advance width="478"/>
	<outline>
		<contour>
			<point x="354" y="154" type="curve"/>
			<point x="354" y="460" type="line"/>
			<point x="433" y="460" type="line"/>
			<point x="433" y="0" type="line"/>
			<point x="374" y="0" type="line"/>
			<point x="357" y="83" type="line"/>
			<point x="323" y="36"/>
			<point x="275" y="-10"/>
			<point x="200" y="-10" type="curve" smooth="yes"/>
			<point x="51" y="-10"/>
			<point x="45" y="98"/>
			<point x="45" y="165" type="curve" smooth="yes"/>
			<point x="45" y="460" type="line"/>
			<point x="125" y="460" type="line"/>
			<point x="125" y="165" type="line" smooth="yes"/>
			<point x="125" y="121"/>
			<point x="134" y="55"/>
			<point x="222" y="55" type="curve" smooth="yes"/>
			<point x="266" y="55"/>
			<point x="330" y="90"/>
		</contour>
		<contour>
			<point x="164" y="520" type="curve"/>
			<point name=".hr01" x="84" y="520" type="line"/>
			<point x="84" y="620"/>
			<point x="159" y="660"/>
			<point x="239" y="660" type="curve" smooth="yes"/>
			<point x="319" y="660"/>
			<point x="394" y="620"/>
			<point x="394" y="520" type="curve"/>
			<point x="314" y="520" type="line"/>
			<point x="314" y="580"/>
			<point x="274" y="600"/>
			<point x="239" y="600" type="curve" smooth="yes"/>
			<point x="204" y="600"/>
			<point x="164" y="580"/>
		</contour>
	</outline>
</glyph>
<glyph name="uni0218" format="2">
	<unicode hex="0218"/>
	<advance width="582"/>
	<outline>
		<contour>
			<point x="264" y="-151" type="line"/>
			<point x="264" y="-71" type="line"/>
			<point x="344" y="-71" type="line"/>
			<point x="344" y="-151" type="line"/>
			<point x="298" y="-281" type="line"/>
			<point x="264" y="-281" type="line"/>
			<point x="286" y="-151" type="line"/>
		</contour>
		<contour>
			<point x="38.5" y="211.75" type="curve"/>
			<point x="165.5" y="211.75" type="line"/>
			<point x="165.5" y="145.125"/>
			<point x="212.875" y="97.5"/>
			<point x="292.875" y="97.5" type="curve" smooth="yes"/>
			<point x="372.5" y="97.5"/>
			<point x="417.5" y="134.75"/>
			<point x="417.5" y="187.625" type="curve" smooth="yes"/>
			<point x="417.5" y="231.75"/>
			<point x="392.625" y="262.125"/>
			<point x="345.125" y="279" type="curve"/>
			<point x="159.25" y="362.875" type="line"/>
			<point x="97.375" y="389.5"/>
			<point name=".hr01" x="56.875" y="439"/>
			<point x="56.875" y="505.875" type="curve" smooth="yes"/>
			<point x="56.875" y="617.625"/>
			<point x="144.875" y="690"/>
			<point x="293.375" y="690" type="curve" smooth="yes"/>
			<point x="437.75" y="690"/>
			<point x="542.5" y="598.25"/>
			<point x="542.5" y="488.5" type="curve"/>
			<point x="415.5" y="488.5" type="line"/>
			<point x="415.5" y="541.625"/>
			<point x="368.625" y="582.5"/>
			<point x="282.125" y="582.5" type="curve" smooth="yes"/>
			<point x="219.125" y="582.5"/>
			<point x="183.875" y="556.875"/>
			<point x="183.875" y="506.5" type="curve" smooth="yes"/>
			<point x="183.875" y="471.875"/>
			<point x="205.125" y="445.625"/>
			<point x="249.625" y="428.75" type="curve"/>
			<point x="430.625" y="349.5" type="line"/>
			<point x="505.875" y="317.625"/>
			<point x="544.5" y="266.875"/>
			<point x="544.5" y="184.625" type="curve" smooth="yes"/>
			<point x="544.5" y="65.25"/>
			<point x="453.75" y="-10"/>
			<point x="289.625" y="-10" type="curve" smooth="yes"/>
			<point x="139.375" y="-10"/>
			<point name=".hr02" x="38.5" y="82"/>
		</contour>
	</outline>
</glyph>
<glyph name="uni0226" format="2">
	<unicode hex="0226"/>
	<advance width="570"/>
	<outline>
		<contour>
			<point x="349.5" y="285.625" type="line"/>
			<point x="275.625" y="519.375" type="line"/>
			<point x="201.75" y="285.625" type="line"/>
		</contour>
		<contour>
			<point x="438" y="0" type="line"/>
			<point x="386.125" y="165.625" type="line"/>
			<point x="165.125" y="165.625" type="line"/>
			<point x="113.25" y="0" type="line"/>
			<point x="-7.5" y="0" type="line"/>
			<point x="204.625" y="680" type="line"/>
			<point x="345.375" y="680" type="line"/>
			<point x="558.75" y="0" type="line"/>
		</contour>
		<contour>
			<point x="366.25" y="867.5" type="line"/>
			<point x="366.25" y="750" type="line"/>
			<point x="246.25" y="750" type="line"/>
			<point x="246.25" y="867.5" type="line"/>
		</contour>
	</outline>
</glyph>
<glyph name="uni0232" format="2">
	<unicode hex="0232"/>
	<advance width="594"/>
	<outline>
		<contour>
			<point x="412" y="770" type="line"/>
			<point x="142" y="770" type="line"/>
			<point x="142" y="850" type="line"/>
			<point x="412" y="850" type="line"/>
		</contour>
		<contour>
			<point name=".hr01" x="252" y="310" type="line"/>
			<point x="40" y="700" type="line"/>
			<point x="147" y="700" type="line"/>
			<point x="297" y="388" type="line"/>
			<point x="447" y="700" type="line"/>
			<point x="554" y="700" type="line"/>
			<point x="342" y="310" type="line"/>
			<point x="342" y="207"/>
			<point x="342" y="103"/>
			<point x="342" y="0" type="curve"/>
			<point x="252" y="0" type="line"/>
		</contour>
	</outline>
</glyph>
<glyph name="uni0237" format="2">
	<unicode hex="0237"/>
	<advance width="220"/>
	<outline>
		<contour>
			<point x="-103" y="-90" type="curve"/>
			<point x="-24" y="-90" type="line"/>
			<point x="-8" y="-114"/>
			<point x="7" y="-120"/>
			<point x="30" y="-120" type="curve" smooth="yes"/>
			<point x="55" y="-120"/>
			<point x="70" y="-103"/>
			<point x="70" y="-55" type="curve" smooth="yes"/>
			<point x="70" y="460" type="line"/>
			<point x="150" y="460" type="line"/>
			<point x="150" y="-31" type="line" smooth="yes"/>
			<point x="150" y="-139"/>
			<point x="93" y="-200"/>
			<point x="28" y="-200" type="curve" smooth="yes"/>
			<point x="-36" y="-200"/>
			<point x="-87" y="-149"/>
		</contour>
	</outline>
</glyph>
<glyph name="circumflex" format="2">
	<unicode hex="02C6"/>
	<advance width="340"/>
	<outline>
		<contour>
			<point x="170" y="634.75" type="line"/>
			<point x="77.5" y="520" type="line"/>
			<point x="11.25" y="520" type="line"/>
			<point x="118.75" y="700" type="line"/>
			<point x="221.25" y="700" type="line"/>
			<point x="328.75" y="520" type="line"/>
			<point x="262.5" y="520" type="line"/>
		</contour>
	</outline>
</glyph>
<glyph name="dotaccent" format="2">
	<unicode hex="02D9"/>
	<advance width="243"/>
	<outline>
		<contour>
			<point x="181.25" y="520" type="line"/>
			<point x="61.25" y="520" type="line"/>
			<point x="61.25" y="637.5" type="line"/>
			<point x="181.25" y="637.5" type="line"/>
		</contour>
	</outline>
</glyph>
<glyph name="ogonek" format="2">
	<unicode hex="02DB"/>
	<advance width="304"/>
	<outline>
		<contour>
			<point x="62.5" y="-131.125" type="curve" smooth="yes"/>
			<point x="62.5" y="-79.75"/>
			<point x="92.75" y="-36.625"/>
			<point x="131.625" y="0" type="curve"/>
			<point x="214.125" y="0" type="line"/>
			<point x="170.125" y="-41.5"/>
			<point x="158.125" y="-69.25"/>
			<point x="158.125" y="-97.625" type="curve" smooth="yes"/>
			<point x="158.125" y="-121.375"/>
			<point x="172.25" y="-133.75"/>
			<point x="194.875" y="-133.75" type="curve" smooth="yes"/>
			<point x="206.25" y="-133.75"/>
			<point x="218.5" y="-127"/>
			<point x="227.875" y="-118.875" type="curve"/>
			<point x="241.625" y="-184.625" type="line"/>
			<point x="221.625" y="-199.375"/>
			<point x="189.125" y="-210"/>
			<point x="152.125" y="-210" type="curve" smooth="yes"/>
			<point x="95.875" y="-210"/>
			<point x="62.5" y="-181.875"/>
		</contour>
	</outline>
</glyph>
<glyph name="tilde" format="2">
	<unicode hex="02DC"/>
	<advance width="406"/>
	<outline>
		<contour>
			<point x="100" y="540" type="curve"/>
			<point x="50" y="540" type="line"/>
			<point x="64" y="627"/>
			<point name=".hr01" x="100" y="660"/>
			<point x="140" y="660" type="curve" smooth="yes"/>
			<point x="165" y="660"/>
			<point x="187" y="650"/>
			<point x="209" y="639" type="curve"/>
			<point x="225" y="630"/>
			<point name=".hr02" x="246" y="620"/>
			<point x="266" y="620" type="curve" smooth="yes"/>
			<point x="286" y="620"/>
			<point x="301" y="632"/>
			<point name=".hr03" x="306" y="660" type="curve"/>
			<point x="356" y="660" type="line"/>
			<point x="342" y="573"/>
			<point name=".hr04" x="306" y="540"/>
			<point x="266" y="540" type="curve" smooth="yes"/>
			<point x="241" y="540"/>
			<point x="220" y="549"/>
			<point x="199" y="560" type="curve" smooth="yes"/>
			<point x="182" y="569"/>
			<point name=".hr05" x="160" y="580"/>
			<point x="140" y="580" type="curve" smooth="yes"/>
			<point x="120" y="580"/>
			<point x="105" y="568"/>
		</contour>
	</outline>
</glyph>
<glyph name="gravecomb" format="2">
	<unicode hex="0300"/>
	<outline>
		<contour>
			<point x="-300.25" y="520" type="line"/>
			<point x="-387.5" y="705" type="line"/>
			<point x="-242.5" y="705" type="line"/>
			<point x="-192.5" y="520" type="line"/>
		</contour>
	</outline>
	<anchor name="top" x="-245.5" y="520"/>
</glyph>
<glyph name="acutecomb" format="2">
	<unicode hex="0301"/>
	<outline>
		<contour>
			<point x="-151.5" y="520" type="line"/>
			<point x="-259.25" y="520" type="line"/>
			<point x="-209.25" y="712.5" type="line"/>
			<point x="-64.25" y="712.5" type="line"/>
		</contour>
	</outline>
	<anchor name="top" x="-207.875" y="520"/>
</glyph>
<glyph name="uni0304" format="2">
	<unicode hex="0304"/>
	<outline>
		<contour>
			<point x="-50" y="520" type="line"/>
			<point x="-320" y="520" type="line"/>
			<point x="-320" y="621.25" type="line"/>
			<point x="-50" y="621.25" type="line"/>
		</contour>
	</outline>
	<anchor name="top" x="-178.625" y="520"/>
</glyph>
<glyph name="uni0307" format="2">
	<unicode hex="0307"/>
	<outline>
		<contour>
			<point x="-61.25" y="520" type="line"/>
			<point x="-181.25" y="520" type="line"/>
			<point x="-181.25" y="637.5" type="line"/>
			<point x="-61.25" y="637.5" type="line"/>
		</contour>
	</outline>
</glyph>
<glyph name="uni0308" format="2">
	<unicode hex="0308"/>
	<outline>
		<contour>
			<point x="-280.875" y="520" type="line"/>
			<point x="-394.625" y="520" type="line"/>
			<point x="-394.625" y="656.25" type="line"/>
			<point x="-280.875" y="656.25" type="line"/>
		</contour>
		<contour>
			<point x="-72.125" y="520" type="line"/>
			<point x="-185.875" y="520" type="line"/>
			<point x="-185.875" y="656.25" type="line"/>
			<point x="-72.125" y="656.25" type="line"/>
		</contour>
	</outline>
	<anchor name="top" x="-233.75" y="520"/>
</glyph>
<glyph name="uni030B" format="2">
	<unicode hex="030B"/>
	<outline>
		<contour>
			<point x="44" y="490" type="line"/>
			<point x="-20" y="490" type="line"/>
			<point x="40" y="670" type="line"/>
			<point x="120" y="670" type="line"/>
		</contour>
		<contour>
			<point x="-51" y="490" type="line"/>
			<point x="-115" y="490" type="line"/>
			<point x="-70" y="670" type="line"/>
			<point x="10" y="670" type="line"/>
		</contour>
	</outline>
</glyph>
<glyph name="uni0312" format="2">
	<unicode hex="0312"/>
	<advance width="180"/>
	<outline>
		<contour>
			<point x="130" y="490" type="line"/>
			<point x="50" y="490" type="line"/>
			<point x="50" y="570" type="line"/>
			<point x="96" y="700" type="line"/>
			<point x="130" y="700" type="line"/>
			<point x="108" y="570" type="line"/>
			<point x="130" y="570" type="line"/>
		</contour>
	</outline>
</glyph>
<glyph name="uni0400" format="2">
	<unicode hex="0400"/>
	<advance width="510"/>
	<outline>
		<contour>
			<point x="420" y="296.25" type="line"/>
			<point x="189.5" y="296.25" type="line"/>
			<point x="189.5" y="101.25" type="line"/>
			<point x="460" y="101.25" type="line"/>
			<point x="460" y="0" type="line"/>
			<point x="68.75" y="0" type="line"/>
			<point x="68.75" y="680" type="line"/>
			<point x="460" y="680" type="line"/>
			<point x="460" y="578.75" type="line"/>
			<point x="189.5" y="578.75" type="line"/>
			<point x="189.5" y="397.5" type="line"/>
			<point x="420" y="397.5" type="line"/>
		</contour>
		<contour>
			<point x="287" y="740" type="line"/>
			<point x="223" y="740" type="line"/>
			<point x="157" y="900" type="line"/>
			<point x="237" y="900" type="line"/>
		</contour>
	</outline>
</glyph>
<glyph name="uni0402" format="2">
	<unicode hex="0402"/>
	<advance width="1278"/>
	<outline>
		<contour>
			<point x="955.375" y="-90" type="curve"/>
			<point x="1034.38" y="-90" type="line"/>
			<point x="1050.38" y="-114"/>
			<point x="1065.38" y="-120"/>
			<point x="1088.38" y="-120" type="curve" smooth="yes"/>
			<point x="1113.38" y="-120"/>
			<point x="1128.38" y="-103"/>
			<point x="1128.38" y="-55" type="curve" smooth="yes"/>
			<point x="1128.38" y="460" type="line"/>
			<point x="1208.38" y="460" type="line"/>
			<point x="1208.38" y="-31" type="line" smooth="yes"/>
			<point x="1208.38" y="-139"/>
			<point x="1151.38" y="-200"/>
			<point x="1086.38" y="-200" type="curve" smooth="yes"/>
			<point x="1022.38" y="-200"/>
			<point x="971.375" y="-149"/>
		</contour>
		<contour>
			<point x="300.375" y="572.5" type="line"/>
			<point x="300.375" y="0" type="line"/>
			<point x="179.625" y="0" type="line"/>
			<point x="179.625" y="572.5" type="line"/>
			<point x="10" y="572.5" type="line"/>
			<point x="10" y="680" type="line"/>
			<point x="470" y="680" type="line"/>
			<point x="470" y="572.5" type="line"/>
		</contour>
		<contour>
			<point x="832.75" y="470" type="curve" smooth="yes"/>
			<point x="958.125" y="470"/>
			<point x="984" y="378.875"/>
			<point x="984" y="302.5" type="curve" smooth="yes"/>
			<point x="984" y="0" type="line"/>
			<point x="864" y="0" type="line"/>
			<point x="864" y="277.5" type="line" smooth="yes"/>
			<point x="864" y="336.125"/>
			<point x="838.125" y="398.375"/>
			<point x="778.125" y="398.375" type="curve" smooth="yes"/>
			<point x="712.375" y="398.375"/>
			<point x="665" y="334.75"/>
			<point x="665" y="243.75" type="curve" smooth="yes"/>
			<point x="665" y="0" type="line"/>
			<point x="545" y="0" type="line"/>
			<point x="545" y="700" type="line"/>
			<point name=".hr01" x="665" y="700" type="line"/>
			<point x="665" y="365.75" type="line"/>
			<point x="701.125" y="421.375"/>
			<point x="756.875" y="470"/>
		</contour>
	</outline>
</glyph>
<glyph name="uni0403" format="2">
	<unicode hex="0403"/>
	<advance width="580"/>
	<outline>
		<contour>
			<point x="287" y="770" type="line"/>
			<point x="223" y="770" type="line"/>
			<point x="273" y="950" type="line"/>
			<point x="353" y="950" type="line"/>
		</contour>
		<contour>
			<point x="140" y="0" type="line"/>
			<point x="50" y="0" type="line"/>
			<point x="50" y="700" type="line"/>
			<point x="460" y="700" type="line"/>
			<point x="460" y="620" type="line"/>
			<point x="140" y="620" type="line"/>
		</contour>
	</outline>
</glyph>
<glyph name="uni040C" format="2">
	<unicode hex="040C"/>
	<advance width="630"/>
	<outline>
		<contour>
			<point x="189.5" y="263.375" type="line"/>
			<point x="189.5" y="0" type="line"/>
			<point x="68.75" y="0" type="line"/>
			<point x="68.75" y="680" type="line"/>
			<point x="189.5" y="680" type="line"/>
			<point x="189.5" y="363.875" type="line"/>
			<point x="265.625" y="380.875" type="line"/>
			<point x="445" y="680" type="line"/>
			<point x="579.75" y="680" type="line"/>
			<point x="379.75" y="350" type="line"/>
			<point x="619.75" y="0" type="line"/>
			<point x="472.5" y="0" type="line"/>
			<point x="278.75" y="287.125" type="line"/>
		</contour>
		<contour>
			<point x="411.5" y="928.75" type="line"/>
			<point x="336" y="730" type="line"/>
			<point x="218.25" y="730" type="line"/>
			<point x="280.75" y="928.75" type="line"/>
		</contour>
	</outline>
</glyph>
<glyph name="uni040F" format="2">
	<unicode hex="040F"/>
	<advance width="590"/>
	<outline>
		<contour>
			<point x="260" y="0" type="line"/>
			<point x="50" y="0" type="line"/>
			<point x="50" y="700" type="line"/>
			<point x="140" y="700" type="line"/>
			<point x="140" y="80" type="line"/>
			<point x="450" y="80" type="line"/>
			<point x="450" y="700" type="line"/>
			<point x="540" y="700" type="line"/>
			<point x="540" y="0" type="line"/>
			<point x="330" y="0" type="line"/>
			<point x="330" y="-67"/>
			<point x="330" y="-133"/>
			<point x="330" y="-200" type="curve"/>
			<point x="260" y="-200" type="line"/>
		</contour>
	</outline>
</glyph>
<glyph name="uni0411" format="2">
	<unicode hex="0411"/>
	<advance width="580"/>
	<outline>
		<contour>
			<point x="142" y="0" type="line"/>
			<point x="142" y="107.5" type="line"/>
			<point x="287" y="107.5" type="line" smooth="yes"/>
			<point x="362.75" y="107.5"/>
			<point x="395" y="161.5"/>
			<point x="395" y="217.5" type="curve" smooth="yes"/>
			<point x="395" y="273.625"/>
			<point x="359.75" y="319.5"/>
			<point x="287" y="319.5" type="curve" smooth="yes"/>
			<point x="142" y="319.5" type="line"/>
			<point x="142" y="427" type="line"/>
			<point x="302" y="427" type="line" smooth="yes"/>
			<point x="463" y="427"/>
			<point x="517" y="333.5"/>
			<point x="517" y="217.5" type="curve" smooth="yes"/>
			<point x="517" y="104.5"/>
			<point x="450" y="0"/>
			<point x="302" y="0" type="curve" smooth="yes"/>
		</contour>
		<contour>
			<point x="50" y="0" type="line"/>
			<point x="50" y="680" type="line"/>
			<point x="170.75" y="680" type="line"/>
			<point x="170.75" y="0" type="line"/>
		</contour>
		<contour>
			<point x="141.25" y="572.5" type="line"/>
			<point x="141.25" y="680" type="line"/>
			<point x="447.5" y="680" type="line"/>
			<point x="447.5" y="572.5" type="line"/>
		</contour>
	</outline>
</glyph>
<glyph name="uni0413" format="2">
	<unicode hex="0413"/>
	<advance width="490"/>
	<outline>
		<contour>
			<point x="460" y="578.75" type="line"/>
			<point x="189.5" y="578.75" type="line"/>
			<point x="189.5" y="0" type="line"/>
			<point x="68.75" y="0" type="line"/>
			<point x="68.75" y="680" type="line"/>
			<point x="460" y="680" type="line"/>
		</contour>
	</outline>
</glyph>
<glyph name="uni0416" format="2">
	<unicode hex="0416"/>
	<advance width="930"/>
	<outline>
		<contour>
			<point x="140" y="0" type="line"/>
			<point x="30" y="0" type="line"/>
			<point x="270" y="350" type="line"/>
			<point x="70" y="700" type="line"/>
			<point x="180" y="700" type="line"/>
			<point x="350" y="397" type="line"/>
			<point x="420" y="377" type="line"/>
			<point x="420" y="700" type="line"/>
			<point x="510" y="700" type="line"/>
			<point x="510" y="377" type="line"/>
			<point x="580" y="397" type="line"/>
			<point x="750" y="700" type="line"/>
			<point x="860" y="700" type="line"/>
			<point x="660" y="350" type="line"/>
			<point x="900" y="0" type="line"/>
			<point x="790" y="0" type="line"/>
			<point x="580" y="317" type="line"/>
			<point x="510" y="297" type="line"/>
			<point x="510" y="0" type="line"/>
			<point x="420" y="0" type="line"/>
			<point x="420" y="297" type="line"/>
			<point x="350" y="317" type="line"/>
		</contour>
	</outline>
</glyph>
<glyph name="uni0419" format="2">
	<unicode hex="0419"/>
	<advance width="630"/>
	<outline>
		<contour>
			<point x="160" y="900" type="curve"/>
			<point x="240" y="900" type="line"/>
			<point x="240" y="840"/>
			<point x="280" y="820"/>
			<point x="315" y="820" type="curve" smooth="yes"/>
			<point x="350" y="820"/>
			<point x="390" y="840"/>
			<point x="390" y="900" type="curve"/>
			<point x="470" y="900" type="line"/>
			<point x="470" y="800"/>
			<point x="395" y="760"/>
			<point x="315" y="760" type="curve" smooth="yes"/>
			<point x="235" y="760"/>
			<point x="160" y="800"/>
		</contour>
		<contour>
			<point x="170" y="0" type="line"/>
			<point x="50" y="0" type="line"/>
			<point x="50" y="700" type="line"/>
			<point x="140" y="700" type="line"/>
			<point x="140" y="210" type="line" smooth="yes"/>
			<point x="140" y="148"/>
			<point x="138" y="127"/>
			<point x="135" y="120" type="curve"/>
			<point x="460" y="700" type="line"/>
			<point x="580" y="700" type="line"/>
			<point x="580" y="0" type="line"/>
			<point x="490" y="0" type="line"/>
			<point x="490" y="490" type="line"/>
			<point x="491" y="514"/>
			<point x="490" y="520"/>
			<point x="495" y="580" type="curve"/>
		</contour>
	</outline>
</glyph>
<glyph name="uni0426" format="2">
	<unicode hex="0426"/>
	<advance width="630"/>
	<outline>
		<contour>
			<point x="510" y="0" type="line"/>
			<point x="50" y="0" type="line"/>
			<point x="50" y="700" type="line"/>
			<point x="140" y="700" type="line"/>
			<point x="140" y="70" type="line"/>
			<point x="420" y="70" type="line"/>
			<point x="420" y="700" type="line"/>
			<point x="510" y="700" type="line"/>
			<point x="510" y="70" type="line"/>
			<point name=".hr01" x="580" y="70" type="line"/>
			<point x="580" y="-140" type="line"/>
			<point x="510" y="-140" type="line"/>
		</contour>
	</outline>
</glyph>
<glyph name="uni042B" format="2">
	<unicode hex="042B"/>
	<advance width="804"/>
	<outline>
		<component base="uni042C"/>
		<contour>
			<point x="728.75" y="687.5" type="line"/>
			<point x="728.75" y="0" type="line"/>
			<point x="608" y="0" type="line"/>
			<point x="608" y="687.5" type="line"/>
		</contour>
	</outline>
</glyph>
<glyph name="uni0439" format="2">
	<unicode hex="0439"/>
	<advance width="528"/>
	<outline>
		<contour>
			<point x="125" y="610" type="curve"/>
			<point x="200" y="610" type="line"/>
			<point x="200" y="568"/>
			<point x="235" y="554"/>
			<point x="260" y="554" type="curve" smooth="yes"/>
			<point x="292" y="554"/>
			<point x="320" y="567"/>
			<point x="320" y="610" type="curve"/>
			<point x="395" y="610" type="line"/>
			<point x="395" y="525"/>
			<point x="328" y="490"/>
			<point x="260" y="490" type="curve" smooth="yes"/>
			<point x="198" y="490"/>
			<point x="125" y="525"/>
		</contour>
		<contour>
			<point x="150" y="0" type="line"/>
			<point name=".hr01" x="70" y="0" type="line"/>
			<point x="70" y="460" type="line"/>
			<point x="150" y="460" type="line"/>
			<point x="150" y="180" type="line"/>
			<point x="145" y="115" type="line"/>
			<point x="378" y="460" type="line"/>
			<point x="458" y="460" type="line"/>
			<point x="458" y="0" type="line"/>
			<point x="378" y="0" type="line"/>
			<point x="378" y="280" type="line"/>
			<point x="383" y="345" type="line"/>
		</contour>
	</outline>
</glyph>
<glyph name="uni043F" format="2">
	<unicode hex="043F"/>
	<advance width="497"/>
	<outline>
		<contour>
			<point x="150" y="0" type="line"/>
			<point x="70" y="0" type="line"/>
			<point x="70" y="460" type="line"/>
			<point x="427" y="460" type="line"/>
			<point x="427" y="0" type="line"/>
			<point x="347" y="0" type="line"/>
			<point x="347" y="392" type="line"/>
			<point x="150" y="392" type="line"/>
		</contour>
	</outline>
</glyph>
<glyph name="uni0440" format="2">
	<unicode hex="0440"/>
	<advance width="497"/>
	<outline>
		<contour>
			<point x="130.625" y="231.25" type="curve" smooth="yes"/>
			<point x="130.625" y="226" type="line" smooth="yes"/>
			<point x="130.625" y="123"/>
			<point x="181.625" y="55"/>
			<point x="250.625" y="55" type="curve" smooth="yes"/>
			<point x="343.625" y="55"/>
			<point x="381.625" y="123"/>
			<point x="381.625" y="231" type="curve" smooth="yes"/>
			<point x="381.625" y="306"/>
			<point x="362.625" y="405"/>
			<point x="250.625" y="405" type="curve" smooth="yes"/>
			<point x="167.625" y="405"/>
			<point x="130.625" y="315.25"/>
		</contour>
		<contour>
			<point x="73.125" y="47.125" type="line"/>
			<point x="79.5" y="428.125" type="line"/>
			<point x="95.8989" y="451"/>
			<point x="140.182" y="463.75"/>
			<point x="172.5" y="463.75" type="curve"/>
			<point x="221.668" y="454.693"/>
			<point x="252.567" y="377.997"/>
			<point x="254.75" y="324.75" type="curve"/>
			<point x="274.75" y="314.125"/>
			<point x="274.5" y="290"/>
			<point x="274.125" y="290" type="curve"/>
			<point x="328.625" y="290"/>
			<point x="346.125" y="225.5"/>
			<point x="337.5" y="168.75" type="curve"/>
			<point x="337.5" y="76.4617"/>
			<point x="297.5" y="-63.0973"/>
			<point x="218.75" y="-81.25" type="curve"/>
			<point x="166.81" y="-81.25"/>
			<point x="125.312" y="-61.875"/>
			<point x="100.625" y="-28.75" type="curve"/>
			<point x="100.625" y="47.125" type="line"/>
		</contour>
	</outline>
</glyph>
<glyph name="uni044D" format="2">
	<unicode hex="044D"/>
	<advance width="471"/>
	<outline>
		<contour>
			<point x="50" y="130" type="curve"/>
			<point x="120" y="130" type="line"/>
			<point x="139" y="72"/>
			<point x="178" y="55"/>
			<point x="237" y="55" type="curve" smooth="yes"/>
			<point x="318" y="55"/>
			<point x="357" y="111"/>
			<point x="361" y="210" type="curve"/>
			<point x="238" y="210" type="line"/>
			<point x="238" y="275" type="line"/>
			<point x="361" y="275" type="line"/>
			<point x="361" y="335"/>
			<point x="313" y="405"/>
			<point x="237" y="405" type="curve" smooth="yes"/>
			<point x="179" y="405"/>
			<point x="142" y="375"/>
			<point x="120" y="320" type="curve"/>
			<point x="50" y="320" type="line"/>
			<point x="81" y="412"/>
			<point x="151" y="470"/>
			<point x="237" y="470" type="curve" smooth="yes"/>
			<point x="372" y="470"/>
			<point x="441" y="362"/>
			<point x="441" y="250" type="curve" smooth="yes"/>
			<point x="441" y="114"/>
			<point x="373" y="-10"/>
			<point x="237" y="-10" type="curve" smooth="yes"/>
			<point x="148" y="-10"/>
			<point x="72" y="41"/>
		</contour>
	</outline>
</glyph>
<glyph name="uni04D2" format="2">
	<unicode hex="04D2"/>
	<advance width="570"/>
	<outline>
		<contour>
			<point x="349.5" y="285.625" type="line"/>
			<point x="275.625" y="519.375" type="line"/>
			<point x="201.75" y="285.625" type="line"/>
		</contour>
		<contour>
			<point x="438" y="0" type="line"/>
			<point x="386.125" y="165.625" type="line"/>
			<point x="165.125" y="165.625" type="line"/>
			<point x="113.25" y="0" type="line"/>
			<point x="-7.5" y="0" type="line"/>
			<point x="204.625" y="680" type="line"/>
			<point x="345.375" y="680" type="line"/>
			<point x="558.75" y="0" type="line"/>
		</contour>
		<contour>
			<point x="246" y="840" type="line"/>
			<point x="246" y="760" type="line"/>
			<point x="166" y="760" type="line"/>
			<point x="166" y="840" type="line"/>
		</contour>
		<contour>
			<point x="404" y="840" type="line"/>
			<point x="404" y="760" type="line"/>
			<point x="324" y="760" type="line"/>
			<point x="324" y="840" type="line"/>
		</contour>
	</outline>
</glyph>
<glyph name="uni04DD" format="2">
	<unicode hex="04DD"/>
	<advance width="664"/>
	<outline>
		<contour>
			<point x="293" y="520" type="line"/>
			<point x="213" y="520" type="line"/>
			<point x="213" y="600" type="line"/>
			<point x="293" y="600" type="line"/>
		</contour>
		<contour>
			<point x="450" y="520" type="line"/>
			<point x="370" y="520" type="line"/>
			<point x="370" y="600" type="line"/>
			<point x="450" y="600" type="line"/>
		</contour>
		<contour>
			<point x="114" y="0" type="curve"/>
			<point x="14" y="0" type="line"/>
			<point x="22" y="14"/>
			<point x="29" y="28"/>
			<point x="36" y="43" type="curve" smooth="yes"/>
			<point x="71" y="116"/>
			<point x="101" y="195"/>
			<point x="187" y="236" type="curve"/>
			<point x="15" y="460" type="line"/>
			<point x="114" y="460" type="line"/>
			<point x="259" y="270" type="line"/>
			<point name=".hr01" x="291" y="270" type="line"/>
			<point x="291" y="460" type="line"/>
			<point x="371" y="460" type="line"/>
			<point x="371" y="270" type="line"/>
			<point x="402" y="270" type="line"/>
			<point x="547" y="460" type="line"/>
			<point x="647" y="460" type="line"/>
			<point x="475" y="236" type="line"/>
			<point x="562" y="193"/>
			<point x="593" y="112"/>
			<point x="627" y="41" type="curve" smooth="yes"/>
			<point x="634" y="27"/>
			<point x="640" y="13"/>
			<point x="648" y="0" type="curve"/>
			<point x="548" y="0" type="line"/>
			<point x="511" y="69"/>
			<point x="502" y="146"/>
			<point x="422" y="190" type="curve"/>
			<point x="371" y="190" type="line"/>
			<point x="371" y="0" type="line"/>
			<point x="291" y="0" type="line"/>
			<point x="291" y="190" type="line"/>
			<point x="239" y="190" type="line"/>
			<point x="168" y="149"/>
			<point x="149" y="75"/>
		</contour>
	</outline>
</glyph>
<glyph name="uni04E4" format="2">
	<unicode hex="04E4"/>
	<advance width="630"/>
	<outline>
		<contour>
			<point x="276" y="770" type="line"/>
			<point x="196" y="770" type="line"/>
			<point x="196" y="850" type="line"/>
			<point x="276" y="850" type="line"/>
		</contour>
		<contour>
			<point x="433" y="770" type="line"/>
			<point x="353" y="770" type="line"/>
			<point x="353" y="850" type="line"/>
			<point x="433" y="850" type="line"/>
		</contour>
		<contour>
			<point x="169" y="0" type="line"/>
			<point x="49" y="0" type="line"/>
			<point x="49" y="700" type="line"/>
			<point x="139" y="700" type="line"/>
			<point x="139" y="210" type="line" smooth="yes"/>
			<point x="139" y="148"/>
			<point x="137" y="127"/>
			<point x="134" y="120" type="curve"/>
			<point x="459" y="700" type="line"/>
			<point x="579" y="700" type="line"/>
			<point x="579" y="0" type="line"/>
			<point x="489" y="0" type="line"/>
			<point x="489" y="490" type="line"/>
			<point x="490" y="514"/>
			<point x="489" y="520"/>
			<point x="494" y="580" type="curve"/>
		</contour>
	</outline>
</glyph>
<glyph name=".notdef" format="2">
	<advance width="1000"/>
	<outline>
		<contour>
			<point x="573" y="237" type="line"/>
			<point x="573" y="319" type="line"/>
			<point x="163" y="319" type="line"/>
			<point x="163" y="237" type="line"/>
			<point x="336" y="237" type="line"/>
			<point x="163" y="121" type="line"/>
			<point x="163" y="40" type="line"/>
			<point x="573" y="40" type="line"/>
			<point x="573" y="121" type="line"/>
			<point x="321" y="121" type="line"/>
			<point x="494" y="237" type="line"/>
		</contour>
		<contour>
			<point x="678" y="165" type="line"/>
			<point x="642" y="165" type="line"/>
			<point x="642" y="40" type="line"/>
			<point x="825" y="40" type="line"/>
			<point x="825" y="165" type="line"/>
			<point x="715" y="165" type="line"/>
			<point x="715" y="103" type="line"/>
			<point x="752" y="103" type="line"/>
			<point x="752" y="128" type="line"/>
			<point x="789" y="128" type="line"/>
			<point x="789" y="76" type="line"/>
			<point x="678" y="76" type="line"/>
		</contour>
		<contour>
			<point x="789" y="227" type="line"/>
			<point x="642" y="227" type="line"/>
			<point x="642" y="189" type="line"/>
			<point x="825" y="189" type="line"/>
			<point x="825" y="299" type="line"/>
			<point x="789" y="299" type="line"/>
		</contour>
		<contour>
			<point x="715" y="288" type="line"/>
			<point x="642" y="288" type="line"/>
			<point x="642" y="252" type="line"/>
			<point x="752" y="252" type="line"/>
			<point x="752" y="329" type="line"/>
			<point x="825" y="329" type="line"/>
			<point x="825" y="366" type="line"/>
			<point x="642" y="366" type="line"/>
			<point x="642" y="329" type="line"/>
			<point x="715" y="329" type="line"/>
		</contour>
		<contour>
			<point x="573" y="654" type="line"/>
			<point x="163" y="654" type="line"/>
			<point x="163" y="375" type="line"/>
			<point x="573" y="375" type="line"/>
		</contour>
		<contour>
			<point x="752" y="510" type="line"/>
			<point x="642" y="510" type="line"/>
			<point x="642" y="396" type="line"/>
			<point x="825" y="396" type="line"/>
			<point x="825" y="433" type="line"/>
			<point x="752" y="433" type="line"/>
		</contour>
		<contour>
			<point x="715" y="576" type="line"/>
			<point x="642" y="576" type="line"/>
			<point x="642" y="539" type="line"/>
			<point x="825" y="539" type="line"/>
			<point x="825" y="576" type="line"/>
			<point x="752" y="576" type="line"/>
			<point x="752" y="617" type="line"/>
			<point x="825" y="617" type="line"/>
			<point x="825" y="653" type="line"/>
			<point x="643" y="653" type="line"/>
			<point x="643" y="617" type="line"/>
			<point x="715" y="617" type="line"/>
		</contour>
		<contour>
			<point x="491" y="573" type="line"/>
			<point x="491" y="457" type="line"/>
			<point x="245" y="457" type="line"/>
			<point x="245" y="573" type="line"/>
		</contour>
		<contour>
			<point x="900" y="752" type="line"/>
			<point x="900" y="-50" type="line"/>
			<point x="100" y="-50" type="line"/>
			<point x="100" y="752" type="line"/>
		</contour>
		<contour>
			<point x="715" y="473" type="line"/>
			<point x="715" y="433" type="line"/>
			<point x="678" y="433" type="line"/>
			<point x="678" y="473" type="line"/>
		</contour>
	</outline>
</glyph>
<glyph name="eight.subscript" format="2">
	<advance width="390"/>
	<outline>
		<contour>
			<point x="103" y="23" type="curve" smooth="yes"/>
			<point x="103" y="-15"/>
			<point x="127" y="-51"/>
			<point x="188" y="-51" type="curve" smooth="yes"/>
			<point x="249" y="-51"/>
			<point x="273" y="-15"/>
			<point x="273" y="23" type="curve" smooth="yes"/>
			<point x="273" y="73"/>
			<point x="234" y="92"/>
			<point x="188" y="92" type="curve" smooth="yes"/>
			<point x="127" y="92"/>
			<point x="103" y="61"/>
		</contour>
		<contour>
			<point x="94" y="-184" type="curve" smooth="yes"/>
			<point name=".hr01" x="94" y="-241"/>
			<point x="126" y="-269"/>
			<point x="188" y="-269" type="curve" smooth="yes"/>
			<point x="250" y="-269"/>
			<point x="284" y="-241"/>
			<point x="284" y="-184" type="curve" smooth="yes"/>
			<point x="284" y="-127"/>
			<point x="248" y="-101"/>
			<point x="188" y="-100" type="curve"/>
			<point x="134" y="-100"/>
			<point x="94" y="-137"/>
		</contour>
		<contour>
			<point x="27" y="-189" type="curve" smooth="yes"/>
			<point x="27" y="-129"/>
			<point x="63" y="-95"/>
			<point x="101" y="-76" type="curve"/>
			<point x="82" y="-69"/>
			<point x="35" y="-52"/>
			<point x="35" y="29" type="curve" smooth="yes"/>
			<point name=".hr02" x="35" y="98"/>
			<point x="96" y="152"/>
			<point x="188" y="152" type="curve" smooth="yes"/>
			<point x="292" y="152"/>
			<point x="341" y="98"/>
			<point x="341" y="29" type="curve" smooth="yes"/>
			<point x="341" y="-52"/>
			<point x="298" y="-65"/>
			<point x="257" y="-76" type="curve"/>
			<point x="308" y="-95"/>
			<point x="351" y="-129"/>
			<point x="351" y="-189" type="curve" smooth="yes"/>
			<point name=".hr03" x="351" y="-275"/>
			<point x="295" y="-329"/>
			<point x="188" y="-329" type="curve" smooth="yes"/>
			<point x="98" y="-329"/>
			<point x="27" y="-291"/>
		</contour>
	</outline>
</glyph>
<glyph name="five.numr" format="2">
	<advance width="366"/>
	<outline>
		<contour>
			<point x="35" y="332" type="curve"/>
			<point x="95" y="332" type="line"/>
			<point x="105" y="302"/>
			<point x="130" y="283"/>
			<point x="181" y="283" type="curve" smooth="yes"/>
			<point x="244" y="283"/>
			<point x="273" y="343"/>
			<point x="273" y="397" type="curve" smooth="yes"/>
			<point x="273" y="476"/>
			<point x="233" y="504"/>
			<point x="202" y="504" type="curve"/>
			<point x="156" y="502"/>
			<point x="111" y="482"/>
			<point x="104" y="428" type="curve"/>
			<point x="37" y="426" type="line"/>
			<point x="37" y="697" type="line"/>
			<point x="290" y="697" type="line"/>
			<point x="290" y="644" type="line"/>
			<point x="102" y="644" type="line"/>
			<point x="102" y="493" type="line"/>
			<point x="103" y="493"/>
			<point x="103" y="493"/>
			<point x="104" y="493" type="curve"/>
			<point x="122" y="532"/>
			<point x="159" y="560"/>
			<point x="207" y="560" type="curve" smooth="yes"/>
			<point x="288" y="560"/>
			<point x="340" y="493"/>
			<point x="340" y="393" type="curve" smooth="yes"/>
			<point x="340" y="298"/>
			<point x="274" y="223"/>
			<point x="184" y="223" type="curve" smooth="yes"/>
			<point x="98" y="223"/>
			<point x="53" y="266"/>
		</contour>
	</outline>
</glyph>
<glyph name="j.sc" format="2">
	<advance width="208"/>
	<outline>
		<contour>
			<point x="94" y="0" type="curve" smooth="yes"/>
			<point x="33" y="0" type="line"/>
			<point x="33" y="65" type="line"/>
			<point x="69" y="65" type="line" smooth="yes"/>
			<point x="84" y="65"/>
			<point x="97" y="84"/>
			<point x="97" y="108" type="curve" smooth="yes"/>
			<point x="97" y="460" type="line"/>
			<point x="177" y="460" type="line"/>
			<point x="177" y="91" type="line" smooth="yes"/>
			<point x="177" y="37"/>
			<point x="166" y="0"/>
		</contour>
	</outline>
</glyph>
<glyph name="nine.dnom" format="2">
	<advance width="367"/>
	<outline>
		<contour>
			<point x="91" y="83" type="curve" smooth="yes"/>
			<point x="91" y="6"/>
			<point x="141" y="-12"/>
			<point x="175" y="-12" type="curve" smooth="yes"/>
			<point x="218" y="-12"/>
			<point x="276" y="5"/>
			<point x="276" y="82" type="curve"/>
			<point x="276" y="83" type="line"/>
			<point x="275" y="137"/>
			<point x="266" y="184"/>
			<point x="183" y="184" type="curve" smooth="yes"/>
			<point x="120" y="184"/>
			<point x="91" y="137"/>
		</contour>
		<contour>
			<point x="24" y="87" type="curve" smooth="yes"/>
			<point x="24" y="183"/>
			<point x="90" y="244"/>
			<point x="180" y="244" type="curve" smooth="yes"/>
			<point x="306" y="244"/>
			<point x="341" y="158"/>
			<point x="341" y="37" type="curve" smooth="yes"/>
			<point x="341" y="-123"/>
			<point x="306" y="-237"/>
			<point x="181" y="-237" type="curve" smooth="yes"/>
			<point x="105" y="-237"/>
			<point x="61" y="-202"/>
			<point x="41" y="-142" type="curve"/>
			<point x="63" y="-142"/>
			<point x="85" y="-141"/>
			<point x="107" y="-141" type="curve"/>
			<point x="120" y="-163"/>
			<point x="130" y="-177"/>
			<point x="182" y="-177" type="curve" smooth="yes"/>
			<point x="199" y="-177"/>
			<point x="213" y="-174"/>
			<point x="225" y="-168" type="curve" smooth="yes"/>
			<point x="271" y="-145"/>
			<point x="275" y="-79"/>
			<point x="276" y="-1" type="curve"/>
			<point x="274" y="-1" type="line"/>
			<point x="256" y="-40"/>
			<point x="219" y="-68"/>
			<point x="171" y="-68" type="curve" smooth="yes"/>
			<point x="90" y="-68"/>
			<point x="24" y="-13"/>
		</contour>
	</outline>
</glyph>
<glyph name="one.dnom" format="2">
	<advance width="225"/>
	<outline>
		<contour>
			<point x="33" y="139" type="curve"/>
			<point x="33" y="191" type="line"/>
			<point x="106" y="191"/>
			<point x="144" y="211"/>
			<point x="170" y="237" type="curve"/>
			<point x="192" y="237" type="line"/>
			<point x="192" y="-230" type="line"/>
			<point x="124" y="-230" type="line"/>
			<point x="124" y="156" type="line"/>
			<point x="109" y="151"/>
			<point x="79" y="139"/>
		</contour>
	</outline>
</glyph>
<glyph name="one.inferior" format="2">
	<advance width="225"/>
	<outline>
		<contour>
			<point x="33" y="-91" type="curve"/>
			<point x="33" y="-39" type="line"/>
			<point x="106" y="-39"/>
			<point x="144" y="-19"/>
			<point x="170" y="7" type="curve"/>
			<point x="192" y="7" type="line"/>
			<point x="192" y="-460" type="line"/>
			<point x="124" y="-460" type="line"/>
			<point x="124" y="-74" type="line"/>
			<point x="109" y="-79"/>
			<point x="79" y="-91"/>
		</contour>
	</outline>
</glyph>
<glyph name="one.superior" format="2">
	<advance width="225"/>
	<outline>
		<contour>
			<point x="33" y="783" type="curve"/>
			<point x="33" y="835" type="line"/>
			<point x="106" y="835"/>
			<point x="144" y="855"/>
			<point x="170" y="881" type="curve"/>
			<point x="192" y="881" type="line"/>
			<point x="192" y="414" type="line"/>
			<point x="124" y="414" type="line"/>
			<point x="124" y="800" type="line"/>
			<point x="109" y="795"/>
			<point x="79" y="783"/>
		</contour>
	</outline>
</glyph>
<glyph name="r.sc" format="2">
	<advance width="422"/>
	<outline>
		<contour>
			<point x="208" y="395" type="curve" smooth="yes"/>
			<point x="113" y="395" type="line"/>
			<point x="113" y="245" type="line"/>
			<point x="208" y="245" type="line" smooth="yes"/>
			<point x="268" y="245"/>
			<point x="310" y="265"/>
			<point x="310" y="325" type="curve" smooth="yes"/>
			<point x="310" y="375"/>
			<point x="269" y="395"/>
		</contour>
		<contour>
			<point x="113" y="180" type="line"/>
			<point x="113" y="0" type="line"/>
			<point x="33" y="0" type="line"/>
			<point x="33" y="460" type="line"/>
			<point x="208" y="460" type="line" smooth="yes"/>
			<point x="312" y="460"/>
			<point x="390" y="430"/>
			<point x="390" y="325" type="curve" smooth="yes"/>
			<point x="390" y="264"/>
			<point x="350" y="193"/>
			<point x="252" y="183" type="curve"/>
			<point x="380" y="0" type="line"/>
			<point x="287" y="0" type="line"/>
			<point x="166" y="180" type="line"/>
		</contour>
	</outline>
</glyph>
<glyph name="six.inferior" format="2">
	<advance width="367"/>
	<outline>
		<contour>
			<point x="89" y="-305" type="curve"/>
			<point x="89" y="-306" type="line"/>
			<point x="90" y="-360"/>
			<point x="99" y="-407"/>
			<point x="182" y="-407" type="curve" smooth="yes"/>
			<point x="244" y="-407"/>
			<point x="274" y="-360"/>
			<point x="274" y="-306" type="curve" smooth="yes"/>
			<point x="274" y="-229"/>
			<point x="224" y="-212"/>
			<point x="190" y="-212" type="curve" smooth="yes"/>
			<point x="144" y="-212"/>
			<point x="89" y="-231"/>
		</contour>
		<contour>
			<point x="24" y="-260" type="curve" smooth="yes"/>
			<point x="24" y="-100"/>
			<point x="59" y="14"/>
			<point x="184" y="14" type="curve" smooth="yes"/>
			<point x="260" y="14"/>
			<point x="304" y="-21"/>
			<point x="324" y="-81" type="curve"/>
			<point x="302" y="-81"/>
			<point x="280" y="-82"/>
			<point x="258" y="-82" type="curve"/>
			<point x="245" y="-60"/>
			<point x="235" y="-46"/>
			<point x="183" y="-46" type="curve" smooth="yes"/>
			<point x="166" y="-46"/>
			<point x="152" y="-49"/>
			<point x="140" y="-55" type="curve" smooth="yes"/>
			<point x="94" y="-79"/>
			<point x="90" y="-145"/>
			<point x="89" y="-223" type="curve"/>
			<point x="91" y="-223" type="line"/>
			<point x="109" y="-184"/>
			<point x="146" y="-156"/>
			<point x="194" y="-156" type="curve" smooth="yes"/>
			<point x="275" y="-156"/>
			<point x="341" y="-210"/>
			<point x="341" y="-310" type="curve" smooth="yes"/>
			<point x="341" y="-405"/>
			<point x="275" y="-467"/>
			<point x="185" y="-467" type="curve" smooth="yes"/>
			<point x="59" y="-467"/>
			<point x="24" y="-381"/>
		</contour>
	</outline>
</glyph>
<glyph name="six.subscript" format="2">
	<advance width="367"/>
	<outline>
		<contour>
			<point x="89" y="-167" type="curve"/>
			<point x="89" y="-168" type="line"/>
			<point x="90" y="-222"/>
			<point x="99" y="-269"/>
			<point x="182" y="-269" type="curve" smooth="yes"/>
			<point x="245" y="-269"/>
			<point x="274" y="-222"/>
			<point x="274" y="-168" type="curve" smooth="yes"/>
			<point x="274" y="-91"/>
			<point x="224" y="-74"/>
			<point x="190" y="-74" type="curve" smooth="yes"/>
			<point x="146" y="-74"/>
			<point x="89" y="-91"/>
		</contour>
		<contour>
			<point x="24" y="-122" type="curve" smooth="yes"/>
			<point x="24" y="38"/>
			<point x="59" y="152"/>
			<point x="184" y="152" type="curve" smooth="yes"/>
			<point x="260" y="152"/>
			<point x="304" y="117"/>
			<point x="324" y="57" type="curve"/>
			<point x="302" y="57"/>
			<point x="280" y="56"/>
			<point x="258" y="56" type="curve"/>
			<point x="245" y="78"/>
			<point x="235" y="92"/>
			<point x="183" y="92" type="curve" smooth="yes"/>
			<point x="166" y="92"/>
			<point x="152" y="89"/>
			<point x="140" y="83" type="curve" smooth="yes"/>
			<point x="94" y="59"/>
			<point x="90" y="-7"/>
			<point x="89" y="-85" type="curve"/>
			<point x="91" y="-85" type="line"/>
			<point x="109" y="-46"/>
			<point x="146" y="-18"/>
			<point x="194" y="-18" type="curve" smooth="yes"/>
			<point x="275" y="-18"/>
			<point x="341" y="-72"/>
			<point x="341" y="-172" type="curve" smooth="yes"/>
			<point x="341" y="-267"/>
			<point x="275" y="-329"/>
			<point x="185" y="-329" type="curve" smooth="yes"/>
			<point x="59" y="-329"/>
			<point x="24" y="-243"/>
		</contour>
	</outline>
</glyph>
<glyph name="two.numr" format="2">
	<advance width="368"/>
	<outline>
		<contour>
			<point x="24" y="548" type="curve"/>
			<point x="24" y="639"/>
			<point x="87" y="704"/>
			<point x="181" y="704" type="curve" smooth="yes"/>
			<point x="308" y="704"/>
			<point x="344" y="651"/>
			<point x="344" y="572" type="curve" smooth="yes"/>
			<point x="344" y="467"/>
			<point x="186" y="367"/>
			<point x="122" y="298" type="curve"/>
			<point x="359" y="298" type="line"/>
			<point x="359" y="230" type="line"/>
			<point x="41" y="230" type="line"/>
			<point x="41" y="289" type="line"/>
			<point x="144" y="416"/>
			<point x="276" y="476"/>
			<point x="276" y="557" type="curve" smooth="yes"/>
			<point x="276" y="609"/>
			<point x="265" y="644"/>
			<point x="181" y="644" type="curve" smooth="yes"/>
			<point x="122" y="644"/>
			<point x="94" y="600"/>
			<point x="91" y="549" type="curve"/>
			<point x="69" y="549"/>
			<point x="46" y="548"/>
		</contour>
	</outline>
</glyph>
